{"glyphs":{"0":{"ha":1515,"x_min":151,"x_max":1296,"o":"m 1235 532 q 1234 521 1235 529 q 1233 503 1233 513 q 1231 486 1232 494 q 1229 474 1229 478 q 1224 449 1228 461 q 1218 424 1221 436 q 1147 269 1194 339 q 1033 148 1099 199 q 888 69 968 97 q 718 40 807 40 q 513 83 608 40 q 348 197 417 125 q 240 367 279 269 q 204 574 201 464 q 207 578 207 574 q 226 703 208 643 q 279 818 244 763 q 308 862 290 838 q 347 909 325 886 q 390 951 368 932 q 433 981 413 971 l 435 985 l 439 985 l 442 988 q 448 991 444 990 q 454 994 451 992 q 467 1002 461 999 q 478 1010 472 1006 q 508 1024 492 1018 q 540 1038 525 1031 q 628 1062 583 1054 q 718 1069 672 1069 q 912 1033 818 1069 q 1078 925 1006 996 q 1124 874 1103 900 q 1164 817 1146 847 q 1174 798 1169 808 q 1182 778 1178 788 q 1190 766 1186 771 q 1194 754 1193 761 q 1208 721 1203 738 q 1218 686 1213 704 q 1231 610 1228 646 q 1235 532 1235 575 m 990 785 q 917 783 954 782 q 843 783 881 783 l 815 783 q 793 708 803 746 q 771 632 783 669 q 783 631 776 631 q 796 632 789 632 q 810 629 806 632 l 810 292 l 961 292 l 961 457 l 1076 457 q 1096 526 1085 492 q 1115 594 1107 560 l 961 594 q 962 606 963 600 q 961 617 961 611 q 961 624 961 619 q 964 629 961 628 l 1092 629 q 1115 712 1101 671 q 1138 794 1128 753 l 993 794 q 990 785 989 792 m 344 778 q 324 705 335 742 q 304 632 313 668 q 316 631 310 631 q 329 632 322 632 q 335 632 332 632 q 342 629 339 632 l 342 292 l 493 292 l 493 422 q 493 444 493 433 q 496 467 493 456 q 524 466 510 465 q 554 467 539 467 q 571 467 563 467 q 589 465 579 467 l 589 294 q 619 292 604 292 q 647 292 633 292 q 694 292 671 292 q 740 292 717 293 l 740 783 q 694 783 717 782 q 647 783 671 783 q 589 781 618 783 l 589 622 l 493 622 q 494 671 493 646 q 494 721 494 696 q 492 783 494 751 l 349 783 q 346 781 346 783 q 344 778 346 779 m 361 -125 l 335 -125 l 335 -68 l 329 -68 l 336 -43 l 365 -43 l 367 -40 l 390 -40 l 383 -69 l 361 -69 l 361 -75 l 388 -75 l 379 -99 l 361 -99 l 361 -125 m 400 -68 l 393 -68 l 400 -43 l 425 -43 l 425 -87 q 433 -101 425 -101 q 442 -87 442 -101 l 442 -43 l 467 -43 l 467 -90 q 433 -126 467 -126 q 400 -90 400 -126 l 400 -68 m 504 -100 l 521 -100 l 513 -125 l 479 -125 l 479 -68 l 471 -68 l 479 -43 l 504 -43 l 504 -100 m 554 -100 l 571 -100 l 563 -125 l 529 -125 l 529 -68 l 522 -68 l 529 -43 l 554 -43 l 554 -100 m 678 -43 l 651 -125 l 628 -125 l 599 -43 l 626 -43 l 639 -82 l 651 -43 l 678 -43 m 729 -125 l 682 -125 l 682 -68 l 676 -68 l 683 -43 l 713 -43 l 714 -40 l 738 -40 l 731 -69 l 708 -69 l 708 -74 l 736 -74 l 731 -94 l 708 -94 l 708 -99 l 738 -99 l 729 -125 m 772 -107 l 772 -125 l 747 -125 l 747 -68 l 740 -68 l 747 -43 l 772 -43 q 789 -44 783 -43 q 801 -50 794 -46 q 811 -74 811 -60 q 797 -100 811 -90 l 814 -125 l 783 -125 l 772 -107 m 776 -68 l 772 -68 l 772 -82 l 776 -82 q 785 -75 785 -82 q 776 -68 785 -68 m 858 -40 l 881 -44 l 872 -69 q 854 -65 861 -65 q 849 -68 849 -65 q 853 -72 849 -71 q 865 -76 858 -74 q 876 -83 871 -78 q 882 -99 882 -89 q 873 -119 882 -112 q 849 -126 864 -126 q 822 -119 836 -126 l 828 -94 q 840 -100 833 -97 q 849 -103 846 -103 q 856 -99 856 -103 q 850 -94 856 -96 q 838 -90 844 -92 q 826 -83 832 -87 q 821 -68 821 -78 q 828 -50 821 -57 q 847 -43 836 -43 q 857 -44 853 -43 l 858 -40 m 917 -43 l 917 -125 l 892 -125 l 892 -68 l 885 -68 l 892 -43 l 917 -43 m 967 -43 q 997 -56 985 -43 q 1008 -85 1008 -68 q 997 -114 1008 -101 q 967 -126 985 -126 q 936 -114 947 -126 q 925 -85 925 -101 q 937 -56 925 -68 q 967 -43 949 -43 m 982 -85 q 978 -73 982 -78 q 967 -68 974 -68 q 954 -73 958 -68 q 950 -85 950 -78 q 954 -97 950 -92 q 967 -101 958 -101 q 978 -97 974 -101 q 982 -85 982 -92 m 1043 -89 l 1043 -125 l 1018 -125 l 1018 -68 l 1011 -68 l 1018 -43 l 1043 -43 l 1061 -74 l 1061 -43 l 1088 -43 l 1088 -125 l 1065 -125 l 1043 -89 m 193 -183 q 223 -196 211 -183 q 235 -226 235 -208 q 223 -256 235 -243 q 193 -268 211 -268 q 163 -255 174 -268 q 151 -225 151 -242 q 163 -196 151 -208 q 193 -183 175 -183 m 208 -226 q 193 -210 208 -210 q 176 -226 176 -210 q 193 -242 176 -242 q 208 -226 208 -242 m 269 -231 l 269 -267 l 244 -267 l 244 -210 l 238 -210 l 246 -185 l 269 -185 l 288 -215 l 288 -185 l 314 -185 l 314 -267 l 292 -267 l 269 -231 m 379 -185 l 379 -211 l 396 -211 l 396 -185 l 421 -185 l 421 -267 l 396 -267 l 396 -237 l 379 -237 l 379 -267 l 354 -267 l 354 -210 l 349 -210 l 356 -185 l 379 -185 m 481 -267 l 433 -267 l 433 -210 l 428 -210 l 435 -185 l 464 -185 l 464 -182 l 489 -182 l 481 -210 l 458 -210 l 458 -215 l 488 -215 l 482 -235 l 458 -235 l 458 -240 l 488 -240 l 481 -267 m 525 -247 l 525 -267 l 499 -267 l 499 -210 l 492 -210 l 500 -185 l 525 -185 q 551 -192 544 -185 q 563 -215 563 -200 q 550 -242 563 -233 l 564 -267 l 535 -267 l 525 -247 m 529 -210 l 525 -210 l 525 -224 l 528 -224 q 538 -217 538 -224 q 529 -210 538 -210 m 614 -183 q 644 -196 632 -183 q 656 -226 656 -208 q 644 -256 656 -243 q 614 -268 632 -268 q 583 -255 594 -268 q 571 -225 571 -242 q 583 -196 571 -208 q 614 -183 594 -183 m 631 -226 q 626 -215 631 -219 q 614 -210 621 -210 q 597 -226 597 -210 q 614 -242 597 -242 q 626 -237 621 -242 q 631 -226 631 -233 m 689 -267 l 664 -267 l 664 -210 l 658 -210 l 665 -185 l 694 -185 l 696 -182 l 719 -182 l 711 -210 l 689 -210 l 689 -215 l 715 -215 l 710 -239 l 689 -239 l 689 -267 m 768 -183 q 797 -196 785 -183 q 810 -226 810 -208 q 797 -256 810 -243 q 768 -268 785 -268 q 737 -255 749 -268 q 725 -225 725 -242 q 737 -196 725 -208 q 768 -183 749 -183 m 783 -226 q 768 -210 783 -210 q 751 -226 751 -210 q 768 -242 751 -242 q 783 -226 783 -242 m 843 -231 l 843 -267 l 818 -267 l 818 -210 l 811 -210 l 818 -185 l 843 -185 l 863 -215 l 863 -185 l 888 -185 l 888 -267 l 865 -267 l 843 -231 m 932 -210 l 932 -267 l 906 -267 l 906 -210 l 893 -210 l 901 -185 l 928 -185 l 929 -182 l 953 -182 l 944 -210 l 932 -210 m 992 -182 l 1013 -186 l 1006 -211 q 988 -207 994 -207 q 982 -208 982 -207 q 987 -212 982 -211 q 998 -217 992 -214 q 1009 -225 1004 -219 q 1014 -240 1014 -231 q 982 -268 1014 -268 q 969 -266 975 -268 q 956 -261 964 -264 l 961 -236 q 982 -243 972 -243 q 988 -240 988 -243 q 982 -235 988 -237 q 970 -231 976 -233 q 958 -224 964 -229 q 953 -210 953 -219 q 961 -191 953 -199 q 981 -183 969 -183 q 985 -184 983 -183 q 990 -185 988 -185 l 992 -182 m 1033 -240 q 1046 -254 1046 -240 q 1033 -268 1046 -268 q 1019 -254 1019 -268 q 1033 -240 1019 -240 m 1099 -182 l 1119 -190 l 1107 -215 q 1098 -210 1100 -212 q 1092 -208 1096 -208 q 1075 -225 1075 -208 q 1092 -242 1075 -242 q 1108 -235 1100 -242 l 1119 -257 q 1090 -268 1106 -268 q 1062 -256 1075 -268 q 1049 -225 1049 -244 q 1061 -196 1049 -208 q 1090 -183 1074 -183 q 1097 -185 1093 -183 l 1099 -182 m 1165 -183 q 1196 -196 1185 -183 q 1207 -226 1207 -208 q 1196 -256 1207 -243 q 1165 -268 1185 -268 q 1135 -255 1146 -268 q 1124 -225 1124 -242 q 1135 -196 1124 -208 q 1165 -183 1147 -183 m 1182 -226 q 1165 -210 1182 -210 q 1149 -226 1149 -210 q 1165 -242 1149 -242 q 1182 -226 1182 -242 m 1242 -224 l 1242 -267 l 1217 -267 l 1217 -210 l 1211 -210 l 1217 -185 l 1242 -185 l 1256 -203 l 1269 -185 l 1296 -185 l 1296 -267 l 1271 -267 l 1271 -224 l 1256 -240 l 1242 -224 z "},"1":{"ha":1515,"x_min":151,"x_max":1296,"o":"m 1235 532 q 1234 521 1235 529 q 1233 503 1233 513 q 1231 486 1232 494 q 1229 474 1229 478 q 1224 449 1228 461 q 1218 424 1221 436 q 1147 269 1194 339 q 1033 148 1099 199 q 888 69 968 97 q 718 40 807 40 q 513 83 608 40 q 348 197 417 125 q 240 367 279 269 q 204 574 201 464 q 207 578 207 574 q 226 703 208 643 q 279 818 244 763 q 308 862 290 838 q 347 909 325 886 q 390 951 368 932 q 433 981 413 971 l 435 985 l 439 985 l 442 988 q 448 991 444 990 q 454 994 451 992 q 467 1002 461 999 q 478 1010 472 1006 q 508 1024 492 1018 q 540 1038 525 1031 q 628 1062 583 1054 q 718 1069 672 1069 q 912 1033 818 1069 q 1078 925 1006 996 q 1124 874 1103 900 q 1164 817 1146 847 q 1174 798 1169 808 q 1182 778 1178 788 q 1190 766 1186 771 q 1194 754 1193 761 q 1208 721 1203 738 q 1218 686 1213 704 q 1231 610 1228 646 q 1235 532 1235 575 m 990 785 q 917 783 954 782 q 843 783 881 783 l 815 783 q 793 708 803 746 q 771 632 783 669 q 783 631 776 631 q 796 632 789 632 q 810 629 806 632 l 810 292 l 961 292 l 961 457 l 1076 457 q 1096 526 1085 492 q 1115 594 1107 560 l 961 594 q 962 606 963 600 q 961 617 961 611 q 961 624 961 619 q 964 629 961 628 l 1092 629 q 1115 712 1101 671 q 1138 794 1128 753 l 993 794 q 990 785 989 792 m 344 778 q 324 705 335 742 q 304 632 313 668 q 316 631 310 631 q 329 632 322 632 q 335 632 332 632 q 342 629 339 632 l 342 292 l 493 292 l 493 422 q 493 444 493 433 q 496 467 493 456 q 524 466 510 465 q 554 467 539 467 q 571 467 563 467 q 589 465 579 467 l 589 294 q 619 292 604 292 q 647 292 633 292 q 694 292 671 292 q 740 292 717 293 l 740 783 q 694 783 717 782 q 647 783 671 783 q 589 781 618 783 l 589 622 l 493 622 q 494 671 493 646 q 494 721 494 696 q 492 783 494 751 l 349 783 q 346 781 346 783 q 344 778 346 779 m 361 -125 l 335 -125 l 335 -68 l 329 -68 l 336 -43 l 365 -43 l 367 -40 l 390 -40 l 383 -69 l 361 -69 l 361 -75 l 388 -75 l 379 -99 l 361 -99 l 361 -125 m 400 -68 l 393 -68 l 400 -43 l 425 -43 l 425 -87 q 433 -101 425 -101 q 442 -87 442 -101 l 442 -43 l 467 -43 l 467 -90 q 433 -126 467 -126 q 400 -90 400 -126 l 400 -68 m 504 -100 l 521 -100 l 513 -125 l 479 -125 l 479 -68 l 471 -68 l 479 -43 l 504 -43 l 504 -100 m 554 -100 l 571 -100 l 563 -125 l 529 -125 l 529 -68 l 522 -68 l 529 -43 l 554 -43 l 554 -100 m 678 -43 l 651 -125 l 628 -125 l 599 -43 l 626 -43 l 639 -82 l 651 -43 l 678 -43 m 729 -125 l 682 -125 l 682 -68 l 676 -68 l 683 -43 l 713 -43 l 714 -40 l 738 -40 l 731 -69 l 708 -69 l 708 -74 l 736 -74 l 731 -94 l 708 -94 l 708 -99 l 738 -99 l 729 -125 m 772 -107 l 772 -125 l 747 -125 l 747 -68 l 740 -68 l 747 -43 l 772 -43 q 789 -44 783 -43 q 801 -50 794 -46 q 811 -74 811 -60 q 797 -100 811 -90 l 814 -125 l 783 -125 l 772 -107 m 776 -68 l 772 -68 l 772 -82 l 776 -82 q 785 -75 785 -82 q 776 -68 785 -68 m 858 -40 l 881 -44 l 872 -69 q 854 -65 861 -65 q 849 -68 849 -65 q 853 -72 849 -71 q 865 -76 858 -74 q 876 -83 871 -78 q 882 -99 882 -89 q 873 -119 882 -112 q 849 -126 864 -126 q 822 -119 836 -126 l 828 -94 q 840 -100 833 -97 q 849 -103 846 -103 q 856 -99 856 -103 q 850 -94 856 -96 q 838 -90 844 -92 q 826 -83 832 -87 q 821 -68 821 -78 q 828 -50 821 -57 q 847 -43 836 -43 q 857 -44 853 -43 l 858 -40 m 917 -43 l 917 -125 l 892 -125 l 892 -68 l 885 -68 l 892 -43 l 917 -43 m 967 -43 q 997 -56 985 -43 q 1008 -85 1008 -68 q 997 -114 1008 -101 q 967 -126 985 -126 q 936 -114 947 -126 q 925 -85 925 -101 q 937 -56 925 -68 q 967 -43 949 -43 m 982 -85 q 978 -73 982 -78 q 967 -68 974 -68 q 954 -73 958 -68 q 950 -85 950 -78 q 954 -97 950 -92 q 967 -101 958 -101 q 978 -97 974 -101 q 982 -85 982 -92 m 1043 -89 l 1043 -125 l 1018 -125 l 1018 -68 l 1011 -68 l 1018 -43 l 1043 -43 l 1061 -74 l 1061 -43 l 1088 -43 l 1088 -125 l 1065 -125 l 1043 -89 m 193 -183 q 223 -196 211 -183 q 235 -226 235 -208 q 223 -256 235 -243 q 193 -268 211 -268 q 163 -255 174 -268 q 151 -225 151 -242 q 163 -196 151 -208 q 193 -183 175 -183 m 208 -226 q 193 -210 208 -210 q 176 -226 176 -210 q 193 -242 176 -242 q 208 -226 208 -242 m 269 -231 l 269 -267 l 244 -267 l 244 -210 l 238 -210 l 246 -185 l 269 -185 l 288 -215 l 288 -185 l 314 -185 l 314 -267 l 292 -267 l 269 -231 m 379 -185 l 379 -211 l 396 -211 l 396 -185 l 421 -185 l 421 -267 l 396 -267 l 396 -237 l 379 -237 l 379 -267 l 354 -267 l 354 -210 l 349 -210 l 356 -185 l 379 -185 m 481 -267 l 433 -267 l 433 -210 l 428 -210 l 435 -185 l 464 -185 l 464 -182 l 489 -182 l 481 -210 l 458 -210 l 458 -215 l 488 -215 l 482 -235 l 458 -235 l 458 -240 l 488 -240 l 481 -267 m 525 -247 l 525 -267 l 499 -267 l 499 -210 l 492 -210 l 500 -185 l 525 -185 q 551 -192 544 -185 q 563 -215 563 -200 q 550 -242 563 -233 l 564 -267 l 535 -267 l 525 -247 m 529 -210 l 525 -210 l 525 -224 l 528 -224 q 538 -217 538 -224 q 529 -210 538 -210 m 614 -183 q 644 -196 632 -183 q 656 -226 656 -208 q 644 -256 656 -243 q 614 -268 632 -268 q 583 -255 594 -268 q 571 -225 571 -242 q 583 -196 571 -208 q 614 -183 594 -183 m 631 -226 q 626 -215 631 -219 q 614 -210 621 -210 q 597 -226 597 -210 q 614 -242 597 -242 q 626 -237 621 -242 q 631 -226 631 -233 m 689 -267 l 664 -267 l 664 -210 l 658 -210 l 665 -185 l 694 -185 l 696 -182 l 719 -182 l 711 -210 l 689 -210 l 689 -215 l 715 -215 l 710 -239 l 689 -239 l 689 -267 m 768 -183 q 797 -196 785 -183 q 810 -226 810 -208 q 797 -256 810 -243 q 768 -268 785 -268 q 737 -255 749 -268 q 725 -225 725 -242 q 737 -196 725 -208 q 768 -183 749 -183 m 783 -226 q 768 -210 783 -210 q 751 -226 751 -210 q 768 -242 751 -242 q 783 -226 783 -242 m 843 -231 l 843 -267 l 818 -267 l 818 -210 l 811 -210 l 818 -185 l 843 -185 l 863 -215 l 863 -185 l 888 -185 l 888 -267 l 865 -267 l 843 -231 m 932 -210 l 932 -267 l 906 -267 l 906 -210 l 893 -210 l 901 -185 l 928 -185 l 929 -182 l 953 -182 l 944 -210 l 932 -210 m 992 -182 l 1013 -186 l 1006 -211 q 988 -207 994 -207 q 982 -208 982 -207 q 987 -212 982 -211 q 998 -217 992 -214 q 1009 -225 1004 -219 q 1014 -240 1014 -231 q 982 -268 1014 -268 q 969 -266 975 -268 q 956 -261 964 -264 l 961 -236 q 982 -243 972 -243 q 988 -240 988 -243 q 982 -235 988 -237 q 970 -231 976 -233 q 958 -224 964 -229 q 953 -210 953 -219 q 961 -191 953 -199 q 981 -183 969 -183 q 985 -184 983 -183 q 990 -185 988 -185 l 992 -182 m 1033 -240 q 1046 -254 1046 -240 q 1033 -268 1046 -268 q 1019 -254 1019 -268 q 1033 -240 1019 -240 m 1099 -182 l 1119 -190 l 1107 -215 q 1098 -210 1100 -212 q 1092 -208 1096 -208 q 1075 -225 1075 -208 q 1092 -242 1075 -242 q 1108 -235 1100 -242 l 1119 -257 q 1090 -268 1106 -268 q 1062 -256 1075 -268 q 1049 -225 1049 -244 q 1061 -196 1049 -208 q 1090 -183 1074 -183 q 1097 -185 1093 -183 l 1099 -182 m 1165 -183 q 1196 -196 1185 -183 q 1207 -226 1207 -208 q 1196 -256 1207 -243 q 1165 -268 1185 -268 q 1135 -255 1146 -268 q 1124 -225 1124 -242 q 1135 -196 1124 -208 q 1165 -183 1147 -183 m 1182 -226 q 1165 -210 1182 -210 q 1149 -226 1149 -210 q 1165 -242 1149 -242 q 1182 -226 1182 -242 m 1242 -224 l 1242 -267 l 1217 -267 l 1217 -210 l 1211 -210 l 1217 -185 l 1242 -185 l 1256 -203 l 1269 -185 l 1296 -185 l 1296 -267 l 1271 -267 l 1271 -224 l 1256 -240 l 1242 -224 z "},"2":{"ha":1515,"x_min":151,"x_max":1296,"o":"m 1235 532 q 1234 521 1235 529 q 1233 503 1233 513 q 1231 486 1232 494 q 1229 474 1229 478 q 1224 449 1228 461 q 1218 424 1221 436 q 1147 269 1194 339 q 1033 148 1099 199 q 888 69 968 97 q 718 40 807 40 q 513 83 608 40 q 348 197 417 125 q 240 367 279 269 q 204 574 201 464 q 207 578 207 574 q 226 703 208 643 q 279 818 244 763 q 308 862 290 838 q 347 909 325 886 q 390 951 368 932 q 433 981 413 971 l 435 985 l 439 985 l 442 988 q 448 991 444 990 q 454 994 451 992 q 467 1002 461 999 q 478 1010 472 1006 q 508 1024 492 1018 q 540 1038 525 1031 q 628 1062 583 1054 q 718 1069 672 1069 q 912 1033 818 1069 q 1078 925 1006 996 q 1124 874 1103 900 q 1164 817 1146 847 q 1174 798 1169 808 q 1182 778 1178 788 q 1190 766 1186 771 q 1194 754 1193 761 q 1208 721 1203 738 q 1218 686 1213 704 q 1231 610 1228 646 q 1235 532 1235 575 m 990 785 q 917 783 954 782 q 843 783 881 783 l 815 783 q 793 708 803 746 q 771 632 783 669 q 783 631 776 631 q 796 632 789 632 q 810 629 806 632 l 810 292 l 961 292 l 961 457 l 1076 457 q 1096 526 1085 492 q 1115 594 1107 560 l 961 594 q 962 606 963 600 q 961 617 961 611 q 961 624 961 619 q 964 629 961 628 l 1092 629 q 1115 712 1101 671 q 1138 794 1128 753 l 993 794 q 990 785 989 792 m 344 778 q 324 705 335 742 q 304 632 313 668 q 316 631 310 631 q 329 632 322 632 q 335 632 332 632 q 342 629 339 632 l 342 292 l 493 292 l 493 422 q 493 444 493 433 q 496 467 493 456 q 524 466 510 465 q 554 467 539 467 q 571 467 563 467 q 589 465 579 467 l 589 294 q 619 292 604 292 q 647 292 633 292 q 694 292 671 292 q 740 292 717 293 l 740 783 q 694 783 717 782 q 647 783 671 783 q 589 781 618 783 l 589 622 l 493 622 q 494 671 493 646 q 494 721 494 696 q 492 783 494 751 l 349 783 q 346 781 346 783 q 344 778 346 779 m 361 -125 l 335 -125 l 335 -68 l 329 -68 l 336 -43 l 365 -43 l 367 -40 l 390 -40 l 383 -69 l 361 -69 l 361 -75 l 388 -75 l 379 -99 l 361 -99 l 361 -125 m 400 -68 l 393 -68 l 400 -43 l 425 -43 l 425 -87 q 433 -101 425 -101 q 442 -87 442 -101 l 442 -43 l 467 -43 l 467 -90 q 433 -126 467 -126 q 400 -90 400 -126 l 400 -68 m 504 -100 l 521 -100 l 513 -125 l 479 -125 l 479 -68 l 471 -68 l 479 -43 l 504 -43 l 504 -100 m 554 -100 l 571 -100 l 563 -125 l 529 -125 l 529 -68 l 522 -68 l 529 -43 l 554 -43 l 554 -100 m 678 -43 l 651 -125 l 628 -125 l 599 -43 l 626 -43 l 639 -82 l 651 -43 l 678 -43 m 729 -125 l 682 -125 l 682 -68 l 676 -68 l 683 -43 l 713 -43 l 714 -40 l 738 -40 l 731 -69 l 708 -69 l 708 -74 l 736 -74 l 731 -94 l 708 -94 l 708 -99 l 738 -99 l 729 -125 m 772 -107 l 772 -125 l 747 -125 l 747 -68 l 740 -68 l 747 -43 l 772 -43 q 789 -44 783 -43 q 801 -50 794 -46 q 811 -74 811 -60 q 797 -100 811 -90 l 814 -125 l 783 -125 l 772 -107 m 776 -68 l 772 -68 l 772 -82 l 776 -82 q 785 -75 785 -82 q 776 -68 785 -68 m 858 -40 l 881 -44 l 872 -69 q 854 -65 861 -65 q 849 -68 849 -65 q 853 -72 849 -71 q 865 -76 858 -74 q 876 -83 871 -78 q 882 -99 882 -89 q 873 -119 882 -112 q 849 -126 864 -126 q 822 -119 836 -126 l 828 -94 q 840 -100 833 -97 q 849 -103 846 -103 q 856 -99 856 -103 q 850 -94 856 -96 q 838 -90 844 -92 q 826 -83 832 -87 q 821 -68 821 -78 q 828 -50 821 -57 q 847 -43 836 -43 q 857 -44 853 -43 l 858 -40 m 917 -43 l 917 -125 l 892 -125 l 892 -68 l 885 -68 l 892 -43 l 917 -43 m 967 -43 q 997 -56 985 -43 q 1008 -85 1008 -68 q 997 -114 1008 -101 q 967 -126 985 -126 q 936 -114 947 -126 q 925 -85 925 -101 q 937 -56 925 -68 q 967 -43 949 -43 m 982 -85 q 978 -73 982 -78 q 967 -68 974 -68 q 954 -73 958 -68 q 950 -85 950 -78 q 954 -97 950 -92 q 967 -101 958 -101 q 978 -97 974 -101 q 982 -85 982 -92 m 1043 -89 l 1043 -125 l 1018 -125 l 1018 -68 l 1011 -68 l 1018 -43 l 1043 -43 l 1061 -74 l 1061 -43 l 1088 -43 l 1088 -125 l 1065 -125 l 1043 -89 m 193 -183 q 223 -196 211 -183 q 235 -226 235 -208 q 223 -256 235 -243 q 193 -268 211 -268 q 163 -255 174 -268 q 151 -225 151 -242 q 163 -196 151 -208 q 193 -183 175 -183 m 208 -226 q 193 -210 208 -210 q 176 -226 176 -210 q 193 -242 176 -242 q 208 -226 208 -242 m 269 -231 l 269 -267 l 244 -267 l 244 -210 l 238 -210 l 246 -185 l 269 -185 l 288 -215 l 288 -185 l 314 -185 l 314 -267 l 292 -267 l 269 -231 m 379 -185 l 379 -211 l 396 -211 l 396 -185 l 421 -185 l 421 -267 l 396 -267 l 396 -237 l 379 -237 l 379 -267 l 354 -267 l 354 -210 l 349 -210 l 356 -185 l 379 -185 m 481 -267 l 433 -267 l 433 -210 l 428 -210 l 435 -185 l 464 -185 l 464 -182 l 489 -182 l 481 -210 l 458 -210 l 458 -215 l 488 -215 l 482 -235 l 458 -235 l 458 -240 l 488 -240 l 481 -267 m 525 -247 l 525 -267 l 499 -267 l 499 -210 l 492 -210 l 500 -185 l 525 -185 q 551 -192 544 -185 q 563 -215 563 -200 q 550 -242 563 -233 l 564 -267 l 535 -267 l 525 -247 m 529 -210 l 525 -210 l 525 -224 l 528 -224 q 538 -217 538 -224 q 529 -210 538 -210 m 614 -183 q 644 -196 632 -183 q 656 -226 656 -208 q 644 -256 656 -243 q 614 -268 632 -268 q 583 -255 594 -268 q 571 -225 571 -242 q 583 -196 571 -208 q 614 -183 594 -183 m 631 -226 q 626 -215 631 -219 q 614 -210 621 -210 q 597 -226 597 -210 q 614 -242 597 -242 q 626 -237 621 -242 q 631 -226 631 -233 m 689 -267 l 664 -267 l 664 -210 l 658 -210 l 665 -185 l 694 -185 l 696 -182 l 719 -182 l 711 -210 l 689 -210 l 689 -215 l 715 -215 l 710 -239 l 689 -239 l 689 -267 m 768 -183 q 797 -196 785 -183 q 810 -226 810 -208 q 797 -256 810 -243 q 768 -268 785 -268 q 737 -255 749 -268 q 725 -225 725 -242 q 737 -196 725 -208 q 768 -183 749 -183 m 783 -226 q 768 -210 783 -210 q 751 -226 751 -210 q 768 -242 751 -242 q 783 -226 783 -242 m 843 -231 l 843 -267 l 818 -267 l 818 -210 l 811 -210 l 818 -185 l 843 -185 l 863 -215 l 863 -185 l 888 -185 l 888 -267 l 865 -267 l 843 -231 m 932 -210 l 932 -267 l 906 -267 l 906 -210 l 893 -210 l 901 -185 l 928 -185 l 929 -182 l 953 -182 l 944 -210 l 932 -210 m 992 -182 l 1013 -186 l 1006 -211 q 988 -207 994 -207 q 982 -208 982 -207 q 987 -212 982 -211 q 998 -217 992 -214 q 1009 -225 1004 -219 q 1014 -240 1014 -231 q 982 -268 1014 -268 q 969 -266 975 -268 q 956 -261 964 -264 l 961 -236 q 982 -243 972 -243 q 988 -240 988 -243 q 982 -235 988 -237 q 970 -231 976 -233 q 958 -224 964 -229 q 953 -210 953 -219 q 961 -191 953 -199 q 981 -183 969 -183 q 985 -184 983 -183 q 990 -185 988 -185 l 992 -182 m 1033 -240 q 1046 -254 1046 -240 q 1033 -268 1046 -268 q 1019 -254 1019 -268 q 1033 -240 1019 -240 m 1099 -182 l 1119 -190 l 1107 -215 q 1098 -210 1100 -212 q 1092 -208 1096 -208 q 1075 -225 1075 -208 q 1092 -242 1075 -242 q 1108 -235 1100 -242 l 1119 -257 q 1090 -268 1106 -268 q 1062 -256 1075 -268 q 1049 -225 1049 -244 q 1061 -196 1049 -208 q 1090 -183 1074 -183 q 1097 -185 1093 -183 l 1099 -182 m 1165 -183 q 1196 -196 1185 -183 q 1207 -226 1207 -208 q 1196 -256 1207 -243 q 1165 -268 1185 -268 q 1135 -255 1146 -268 q 1124 -225 1124 -242 q 1135 -196 1124 -208 q 1165 -183 1147 -183 m 1182 -226 q 1165 -210 1182 -210 q 1149 -226 1149 -210 q 1165 -242 1149 -242 q 1182 -226 1182 -242 m 1242 -224 l 1242 -267 l 1217 -267 l 1217 -210 l 1211 -210 l 1217 -185 l 1242 -185 l 1256 -203 l 1269 -185 l 1296 -185 l 1296 -267 l 1271 -267 l 1271 -224 l 1256 -240 l 1242 -224 z "},"3":{"ha":1515,"x_min":151,"x_max":1296,"o":"m 1235 532 q 1234 521 1235 529 q 1233 503 1233 513 q 1231 486 1232 494 q 1229 474 1229 478 q 1224 449 1228 461 q 1218 424 1221 436 q 1147 269 1194 339 q 1033 148 1099 199 q 888 69 968 97 q 718 40 807 40 q 513 83 608 40 q 348 197 417 125 q 240 367 279 269 q 204 574 201 464 q 207 578 207 574 q 226 703 208 643 q 279 818 244 763 q 308 862 290 838 q 347 909 325 886 q 390 951 368 932 q 433 981 413 971 l 435 985 l 439 985 l 442 988 q 448 991 444 990 q 454 994 451 992 q 467 1002 461 999 q 478 1010 472 1006 q 508 1024 492 1018 q 540 1038 525 1031 q 628 1062 583 1054 q 718 1069 672 1069 q 912 1033 818 1069 q 1078 925 1006 996 q 1124 874 1103 900 q 1164 817 1146 847 q 1174 798 1169 808 q 1182 778 1178 788 q 1190 766 1186 771 q 1194 754 1193 761 q 1208 721 1203 738 q 1218 686 1213 704 q 1231 610 1228 646 q 1235 532 1235 575 m 990 785 q 917 783 954 782 q 843 783 881 783 l 815 783 q 793 708 803 746 q 771 632 783 669 q 783 631 776 631 q 796 632 789 632 q 810 629 806 632 l 810 292 l 961 292 l 961 457 l 1076 457 q 1096 526 1085 492 q 1115 594 1107 560 l 961 594 q 962 606 963 600 q 961 617 961 611 q 961 624 961 619 q 964 629 961 628 l 1092 629 q 1115 712 1101 671 q 1138 794 1128 753 l 993 794 q 990 785 989 792 m 344 778 q 324 705 335 742 q 304 632 313 668 q 316 631 310 631 q 329 632 322 632 q 335 632 332 632 q 342 629 339 632 l 342 292 l 493 292 l 493 422 q 493 444 493 433 q 496 467 493 456 q 524 466 510 465 q 554 467 539 467 q 571 467 563 467 q 589 465 579 467 l 589 294 q 619 292 604 292 q 647 292 633 292 q 694 292 671 292 q 740 292 717 293 l 740 783 q 694 783 717 782 q 647 783 671 783 q 589 781 618 783 l 589 622 l 493 622 q 494 671 493 646 q 494 721 494 696 q 492 783 494 751 l 349 783 q 346 781 346 783 q 344 778 346 779 m 361 -125 l 335 -125 l 335 -68 l 329 -68 l 336 -43 l 365 -43 l 367 -40 l 390 -40 l 383 -69 l 361 -69 l 361 -75 l 388 -75 l 379 -99 l 361 -99 l 361 -125 m 400 -68 l 393 -68 l 400 -43 l 425 -43 l 425 -87 q 433 -101 425 -101 q 442 -87 442 -101 l 442 -43 l 467 -43 l 467 -90 q 433 -126 467 -126 q 400 -90 400 -126 l 400 -68 m 504 -100 l 521 -100 l 513 -125 l 479 -125 l 479 -68 l 471 -68 l 479 -43 l 504 -43 l 504 -100 m 554 -100 l 571 -100 l 563 -125 l 529 -125 l 529 -68 l 522 -68 l 529 -43 l 554 -43 l 554 -100 m 678 -43 l 651 -125 l 628 -125 l 599 -43 l 626 -43 l 639 -82 l 651 -43 l 678 -43 m 729 -125 l 682 -125 l 682 -68 l 676 -68 l 683 -43 l 713 -43 l 714 -40 l 738 -40 l 731 -69 l 708 -69 l 708 -74 l 736 -74 l 731 -94 l 708 -94 l 708 -99 l 738 -99 l 729 -125 m 772 -107 l 772 -125 l 747 -125 l 747 -68 l 740 -68 l 747 -43 l 772 -43 q 789 -44 783 -43 q 801 -50 794 -46 q 811 -74 811 -60 q 797 -100 811 -90 l 814 -125 l 783 -125 l 772 -107 m 776 -68 l 772 -68 l 772 -82 l 776 -82 q 785 -75 785 -82 q 776 -68 785 -68 m 858 -40 l 881 -44 l 872 -69 q 854 -65 861 -65 q 849 -68 849 -65 q 853 -72 849 -71 q 865 -76 858 -74 q 876 -83 871 -78 q 882 -99 882 -89 q 873 -119 882 -112 q 849 -126 864 -126 q 822 -119 836 -126 l 828 -94 q 840 -100 833 -97 q 849 -103 846 -103 q 856 -99 856 -103 q 850 -94 856 -96 q 838 -90 844 -92 q 826 -83 832 -87 q 821 -68 821 -78 q 828 -50 821 -57 q 847 -43 836 -43 q 857 -44 853 -43 l 858 -40 m 917 -43 l 917 -125 l 892 -125 l 892 -68 l 885 -68 l 892 -43 l 917 -43 m 967 -43 q 997 -56 985 -43 q 1008 -85 1008 -68 q 997 -114 1008 -101 q 967 -126 985 -126 q 936 -114 947 -126 q 925 -85 925 -101 q 937 -56 925 -68 q 967 -43 949 -43 m 982 -85 q 978 -73 982 -78 q 967 -68 974 -68 q 954 -73 958 -68 q 950 -85 950 -78 q 954 -97 950 -92 q 967 -101 958 -101 q 978 -97 974 -101 q 982 -85 982 -92 m 1043 -89 l 1043 -125 l 1018 -125 l 1018 -68 l 1011 -68 l 1018 -43 l 1043 -43 l 1061 -74 l 1061 -43 l 1088 -43 l 1088 -125 l 1065 -125 l 1043 -89 m 193 -183 q 223 -196 211 -183 q 235 -226 235 -208 q 223 -256 235 -243 q 193 -268 211 -268 q 163 -255 174 -268 q 151 -225 151 -242 q 163 -196 151 -208 q 193 -183 175 -183 m 208 -226 q 193 -210 208 -210 q 176 -226 176 -210 q 193 -242 176 -242 q 208 -226 208 -242 m 269 -231 l 269 -267 l 244 -267 l 244 -210 l 238 -210 l 246 -185 l 269 -185 l 288 -215 l 288 -185 l 314 -185 l 314 -267 l 292 -267 l 269 -231 m 379 -185 l 379 -211 l 396 -211 l 396 -185 l 421 -185 l 421 -267 l 396 -267 l 396 -237 l 379 -237 l 379 -267 l 354 -267 l 354 -210 l 349 -210 l 356 -185 l 379 -185 m 481 -267 l 433 -267 l 433 -210 l 428 -210 l 435 -185 l 464 -185 l 464 -182 l 489 -182 l 481 -210 l 458 -210 l 458 -215 l 488 -215 l 482 -235 l 458 -235 l 458 -240 l 488 -240 l 481 -267 m 525 -247 l 525 -267 l 499 -267 l 499 -210 l 492 -210 l 500 -185 l 525 -185 q 551 -192 544 -185 q 563 -215 563 -200 q 550 -242 563 -233 l 564 -267 l 535 -267 l 525 -247 m 529 -210 l 525 -210 l 525 -224 l 528 -224 q 538 -217 538 -224 q 529 -210 538 -210 m 614 -183 q 644 -196 632 -183 q 656 -226 656 -208 q 644 -256 656 -243 q 614 -268 632 -268 q 583 -255 594 -268 q 571 -225 571 -242 q 583 -196 571 -208 q 614 -183 594 -183 m 631 -226 q 626 -215 631 -219 q 614 -210 621 -210 q 597 -226 597 -210 q 614 -242 597 -242 q 626 -237 621 -242 q 631 -226 631 -233 m 689 -267 l 664 -267 l 664 -210 l 658 -210 l 665 -185 l 694 -185 l 696 -182 l 719 -182 l 711 -210 l 689 -210 l 689 -215 l 715 -215 l 710 -239 l 689 -239 l 689 -267 m 768 -183 q 797 -196 785 -183 q 810 -226 810 -208 q 797 -256 810 -243 q 768 -268 785 -268 q 737 -255 749 -268 q 725 -225 725 -242 q 737 -196 725 -208 q 768 -183 749 -183 m 783 -226 q 768 -210 783 -210 q 751 -226 751 -210 q 768 -242 751 -242 q 783 -226 783 -242 m 843 -231 l 843 -267 l 818 -267 l 818 -210 l 811 -210 l 818 -185 l 843 -185 l 863 -215 l 863 -185 l 888 -185 l 888 -267 l 865 -267 l 843 -231 m 932 -210 l 932 -267 l 906 -267 l 906 -210 l 893 -210 l 901 -185 l 928 -185 l 929 -182 l 953 -182 l 944 -210 l 932 -210 m 992 -182 l 1013 -186 l 1006 -211 q 988 -207 994 -207 q 982 -208 982 -207 q 987 -212 982 -211 q 998 -217 992 -214 q 1009 -225 1004 -219 q 1014 -240 1014 -231 q 982 -268 1014 -268 q 969 -266 975 -268 q 956 -261 964 -264 l 961 -236 q 982 -243 972 -243 q 988 -240 988 -243 q 982 -235 988 -237 q 970 -231 976 -233 q 958 -224 964 -229 q 953 -210 953 -219 q 961 -191 953 -199 q 981 -183 969 -183 q 985 -184 983 -183 q 990 -185 988 -185 l 992 -182 m 1033 -240 q 1046 -254 1046 -240 q 1033 -268 1046 -268 q 1019 -254 1019 -268 q 1033 -240 1019 -240 m 1099 -182 l 1119 -190 l 1107 -215 q 1098 -210 1100 -212 q 1092 -208 1096 -208 q 1075 -225 1075 -208 q 1092 -242 1075 -242 q 1108 -235 1100 -242 l 1119 -257 q 1090 -268 1106 -268 q 1062 -256 1075 -268 q 1049 -225 1049 -244 q 1061 -196 1049 -208 q 1090 -183 1074 -183 q 1097 -185 1093 -183 l 1099 -182 m 1165 -183 q 1196 -196 1185 -183 q 1207 -226 1207 -208 q 1196 -256 1207 -243 q 1165 -268 1185 -268 q 1135 -255 1146 -268 q 1124 -225 1124 -242 q 1135 -196 1124 -208 q 1165 -183 1147 -183 m 1182 -226 q 1165 -210 1182 -210 q 1149 -226 1149 -210 q 1165 -242 1149 -242 q 1182 -226 1182 -242 m 1242 -224 l 1242 -267 l 1217 -267 l 1217 -210 l 1211 -210 l 1217 -185 l 1242 -185 l 1256 -203 l 1269 -185 l 1296 -185 l 1296 -267 l 1271 -267 l 1271 -224 l 1256 -240 l 1242 -224 z "},"4":{"ha":1515,"x_min":151,"x_max":1296,"o":"m 1235 532 q 1234 521 1235 529 q 1233 503 1233 513 q 1231 486 1232 494 q 1229 474 1229 478 q 1224 449 1228 461 q 1218 424 1221 436 q 1147 269 1194 339 q 1033 148 1099 199 q 888 69 968 97 q 718 40 807 40 q 513 83 608 40 q 348 197 417 125 q 240 367 279 269 q 204 574 201 464 q 207 578 207 574 q 226 703 208 643 q 279 818 244 763 q 308 862 290 838 q 347 909 325 886 q 390 951 368 932 q 433 981 413 971 l 435 985 l 439 985 l 442 988 q 448 991 444 990 q 454 994 451 992 q 467 1002 461 999 q 478 1010 472 1006 q 508 1024 492 1018 q 540 1038 525 1031 q 628 1062 583 1054 q 718 1069 672 1069 q 912 1033 818 1069 q 1078 925 1006 996 q 1124 874 1103 900 q 1164 817 1146 847 q 1174 798 1169 808 q 1182 778 1178 788 q 1190 766 1186 771 q 1194 754 1193 761 q 1208 721 1203 738 q 1218 686 1213 704 q 1231 610 1228 646 q 1235 532 1235 575 m 990 785 q 917 783 954 782 q 843 783 881 783 l 815 783 q 793 708 803 746 q 771 632 783 669 q 783 631 776 631 q 796 632 789 632 q 810 629 806 632 l 810 292 l 961 292 l 961 457 l 1076 457 q 1096 526 1085 492 q 1115 594 1107 560 l 961 594 q 962 606 963 600 q 961 617 961 611 q 961 624 961 619 q 964 629 961 628 l 1092 629 q 1115 712 1101 671 q 1138 794 1128 753 l 993 794 q 990 785 989 792 m 344 778 q 324 705 335 742 q 304 632 313 668 q 316 631 310 631 q 329 632 322 632 q 335 632 332 632 q 342 629 339 632 l 342 292 l 493 292 l 493 422 q 493 444 493 433 q 496 467 493 456 q 524 466 510 465 q 554 467 539 467 q 571 467 563 467 q 589 465 579 467 l 589 294 q 619 292 604 292 q 647 292 633 292 q 694 292 671 292 q 740 292 717 293 l 740 783 q 694 783 717 782 q 647 783 671 783 q 589 781 618 783 l 589 622 l 493 622 q 494 671 493 646 q 494 721 494 696 q 492 783 494 751 l 349 783 q 346 781 346 783 q 344 778 346 779 m 361 -125 l 335 -125 l 335 -68 l 329 -68 l 336 -43 l 365 -43 l 367 -40 l 390 -40 l 383 -69 l 361 -69 l 361 -75 l 388 -75 l 379 -99 l 361 -99 l 361 -125 m 400 -68 l 393 -68 l 400 -43 l 425 -43 l 425 -87 q 433 -101 425 -101 q 442 -87 442 -101 l 442 -43 l 467 -43 l 467 -90 q 433 -126 467 -126 q 400 -90 400 -126 l 400 -68 m 504 -100 l 521 -100 l 513 -125 l 479 -125 l 479 -68 l 471 -68 l 479 -43 l 504 -43 l 504 -100 m 554 -100 l 571 -100 l 563 -125 l 529 -125 l 529 -68 l 522 -68 l 529 -43 l 554 -43 l 554 -100 m 678 -43 l 651 -125 l 628 -125 l 599 -43 l 626 -43 l 639 -82 l 651 -43 l 678 -43 m 729 -125 l 682 -125 l 682 -68 l 676 -68 l 683 -43 l 713 -43 l 714 -40 l 738 -40 l 731 -69 l 708 -69 l 708 -74 l 736 -74 l 731 -94 l 708 -94 l 708 -99 l 738 -99 l 729 -125 m 772 -107 l 772 -125 l 747 -125 l 747 -68 l 740 -68 l 747 -43 l 772 -43 q 789 -44 783 -43 q 801 -50 794 -46 q 811 -74 811 -60 q 797 -100 811 -90 l 814 -125 l 783 -125 l 772 -107 m 776 -68 l 772 -68 l 772 -82 l 776 -82 q 785 -75 785 -82 q 776 -68 785 -68 m 858 -40 l 881 -44 l 872 -69 q 854 -65 861 -65 q 849 -68 849 -65 q 853 -72 849 -71 q 865 -76 858 -74 q 876 -83 871 -78 q 882 -99 882 -89 q 873 -119 882 -112 q 849 -126 864 -126 q 822 -119 836 -126 l 828 -94 q 840 -100 833 -97 q 849 -103 846 -103 q 856 -99 856 -103 q 850 -94 856 -96 q 838 -90 844 -92 q 826 -83 832 -87 q 821 -68 821 -78 q 828 -50 821 -57 q 847 -43 836 -43 q 857 -44 853 -43 l 858 -40 m 917 -43 l 917 -125 l 892 -125 l 892 -68 l 885 -68 l 892 -43 l 917 -43 m 967 -43 q 997 -56 985 -43 q 1008 -85 1008 -68 q 997 -114 1008 -101 q 967 -126 985 -126 q 936 -114 947 -126 q 925 -85 925 -101 q 937 -56 925 -68 q 967 -43 949 -43 m 982 -85 q 978 -73 982 -78 q 967 -68 974 -68 q 954 -73 958 -68 q 950 -85 950 -78 q 954 -97 950 -92 q 967 -101 958 -101 q 978 -97 974 -101 q 982 -85 982 -92 m 1043 -89 l 1043 -125 l 1018 -125 l 1018 -68 l 1011 -68 l 1018 -43 l 1043 -43 l 1061 -74 l 1061 -43 l 1088 -43 l 1088 -125 l 1065 -125 l 1043 -89 m 193 -183 q 223 -196 211 -183 q 235 -226 235 -208 q 223 -256 235 -243 q 193 -268 211 -268 q 163 -255 174 -268 q 151 -225 151 -242 q 163 -196 151 -208 q 193 -183 175 -183 m 208 -226 q 193 -210 208 -210 q 176 -226 176 -210 q 193 -242 176 -242 q 208 -226 208 -242 m 269 -231 l 269 -267 l 244 -267 l 244 -210 l 238 -210 l 246 -185 l 269 -185 l 288 -215 l 288 -185 l 314 -185 l 314 -267 l 292 -267 l 269 -231 m 379 -185 l 379 -211 l 396 -211 l 396 -185 l 421 -185 l 421 -267 l 396 -267 l 396 -237 l 379 -237 l 379 -267 l 354 -267 l 354 -210 l 349 -210 l 356 -185 l 379 -185 m 481 -267 l 433 -267 l 433 -210 l 428 -210 l 435 -185 l 464 -185 l 464 -182 l 489 -182 l 481 -210 l 458 -210 l 458 -215 l 488 -215 l 482 -235 l 458 -235 l 458 -240 l 488 -240 l 481 -267 m 525 -247 l 525 -267 l 499 -267 l 499 -210 l 492 -210 l 500 -185 l 525 -185 q 551 -192 544 -185 q 563 -215 563 -200 q 550 -242 563 -233 l 564 -267 l 535 -267 l 525 -247 m 529 -210 l 525 -210 l 525 -224 l 528 -224 q 538 -217 538 -224 q 529 -210 538 -210 m 614 -183 q 644 -196 632 -183 q 656 -226 656 -208 q 644 -256 656 -243 q 614 -268 632 -268 q 583 -255 594 -268 q 571 -225 571 -242 q 583 -196 571 -208 q 614 -183 594 -183 m 631 -226 q 626 -215 631 -219 q 614 -210 621 -210 q 597 -226 597 -210 q 614 -242 597 -242 q 626 -237 621 -242 q 631 -226 631 -233 m 689 -267 l 664 -267 l 664 -210 l 658 -210 l 665 -185 l 694 -185 l 696 -182 l 719 -182 l 711 -210 l 689 -210 l 689 -215 l 715 -215 l 710 -239 l 689 -239 l 689 -267 m 768 -183 q 797 -196 785 -183 q 810 -226 810 -208 q 797 -256 810 -243 q 768 -268 785 -268 q 737 -255 749 -268 q 725 -225 725 -242 q 737 -196 725 -208 q 768 -183 749 -183 m 783 -226 q 768 -210 783 -210 q 751 -226 751 -210 q 768 -242 751 -242 q 783 -226 783 -242 m 843 -231 l 843 -267 l 818 -267 l 818 -210 l 811 -210 l 818 -185 l 843 -185 l 863 -215 l 863 -185 l 888 -185 l 888 -267 l 865 -267 l 843 -231 m 932 -210 l 932 -267 l 906 -267 l 906 -210 l 893 -210 l 901 -185 l 928 -185 l 929 -182 l 953 -182 l 944 -210 l 932 -210 m 992 -182 l 1013 -186 l 1006 -211 q 988 -207 994 -207 q 982 -208 982 -207 q 987 -212 982 -211 q 998 -217 992 -214 q 1009 -225 1004 -219 q 1014 -240 1014 -231 q 982 -268 1014 -268 q 969 -266 975 -268 q 956 -261 964 -264 l 961 -236 q 982 -243 972 -243 q 988 -240 988 -243 q 982 -235 988 -237 q 970 -231 976 -233 q 958 -224 964 -229 q 953 -210 953 -219 q 961 -191 953 -199 q 981 -183 969 -183 q 985 -184 983 -183 q 990 -185 988 -185 l 992 -182 m 1033 -240 q 1046 -254 1046 -240 q 1033 -268 1046 -268 q 1019 -254 1019 -268 q 1033 -240 1019 -240 m 1099 -182 l 1119 -190 l 1107 -215 q 1098 -210 1100 -212 q 1092 -208 1096 -208 q 1075 -225 1075 -208 q 1092 -242 1075 -242 q 1108 -235 1100 -242 l 1119 -257 q 1090 -268 1106 -268 q 1062 -256 1075 -268 q 1049 -225 1049 -244 q 1061 -196 1049 -208 q 1090 -183 1074 -183 q 1097 -185 1093 -183 l 1099 -182 m 1165 -183 q 1196 -196 1185 -183 q 1207 -226 1207 -208 q 1196 -256 1207 -243 q 1165 -268 1185 -268 q 1135 -255 1146 -268 q 1124 -225 1124 -242 q 1135 -196 1124 -208 q 1165 -183 1147 -183 m 1182 -226 q 1165 -210 1182 -210 q 1149 -226 1149 -210 q 1165 -242 1149 -242 q 1182 -226 1182 -242 m 1242 -224 l 1242 -267 l 1217 -267 l 1217 -210 l 1211 -210 l 1217 -185 l 1242 -185 l 1256 -203 l 1269 -185 l 1296 -185 l 1296 -267 l 1271 -267 l 1271 -224 l 1256 -240 l 1242 -224 z "},"5":{"ha":1515,"x_min":151,"x_max":1296,"o":"m 1235 532 q 1234 521 1235 529 q 1233 503 1233 513 q 1231 486 1232 494 q 1229 474 1229 478 q 1224 449 1228 461 q 1218 424 1221 436 q 1147 269 1194 339 q 1033 148 1099 199 q 888 69 968 97 q 718 40 807 40 q 513 83 608 40 q 348 197 417 125 q 240 367 279 269 q 204 574 201 464 q 207 578 207 574 q 226 703 208 643 q 279 818 244 763 q 308 862 290 838 q 347 909 325 886 q 390 951 368 932 q 433 981 413 971 l 435 985 l 439 985 l 442 988 q 448 991 444 990 q 454 994 451 992 q 467 1002 461 999 q 478 1010 472 1006 q 508 1024 492 1018 q 540 1038 525 1031 q 628 1062 583 1054 q 718 1069 672 1069 q 912 1033 818 1069 q 1078 925 1006 996 q 1124 874 1103 900 q 1164 817 1146 847 q 1174 798 1169 808 q 1182 778 1178 788 q 1190 766 1186 771 q 1194 754 1193 761 q 1208 721 1203 738 q 1218 686 1213 704 q 1231 610 1228 646 q 1235 532 1235 575 m 990 785 q 917 783 954 782 q 843 783 881 783 l 815 783 q 793 708 803 746 q 771 632 783 669 q 783 631 776 631 q 796 632 789 632 q 810 629 806 632 l 810 292 l 961 292 l 961 457 l 1076 457 q 1096 526 1085 492 q 1115 594 1107 560 l 961 594 q 962 606 963 600 q 961 617 961 611 q 961 624 961 619 q 964 629 961 628 l 1092 629 q 1115 712 1101 671 q 1138 794 1128 753 l 993 794 q 990 785 989 792 m 344 778 q 324 705 335 742 q 304 632 313 668 q 316 631 310 631 q 329 632 322 632 q 335 632 332 632 q 342 629 339 632 l 342 292 l 493 292 l 493 422 q 493 444 493 433 q 496 467 493 456 q 524 466 510 465 q 554 467 539 467 q 571 467 563 467 q 589 465 579 467 l 589 294 q 619 292 604 292 q 647 292 633 292 q 694 292 671 292 q 740 292 717 293 l 740 783 q 694 783 717 782 q 647 783 671 783 q 589 781 618 783 l 589 622 l 493 622 q 494 671 493 646 q 494 721 494 696 q 492 783 494 751 l 349 783 q 346 781 346 783 q 344 778 346 779 m 361 -125 l 335 -125 l 335 -68 l 329 -68 l 336 -43 l 365 -43 l 367 -40 l 390 -40 l 383 -69 l 361 -69 l 361 -75 l 388 -75 l 379 -99 l 361 -99 l 361 -125 m 400 -68 l 393 -68 l 400 -43 l 425 -43 l 425 -87 q 433 -101 425 -101 q 442 -87 442 -101 l 442 -43 l 467 -43 l 467 -90 q 433 -126 467 -126 q 400 -90 400 -126 l 400 -68 m 504 -100 l 521 -100 l 513 -125 l 479 -125 l 479 -68 l 471 -68 l 479 -43 l 504 -43 l 504 -100 m 554 -100 l 571 -100 l 563 -125 l 529 -125 l 529 -68 l 522 -68 l 529 -43 l 554 -43 l 554 -100 m 678 -43 l 651 -125 l 628 -125 l 599 -43 l 626 -43 l 639 -82 l 651 -43 l 678 -43 m 729 -125 l 682 -125 l 682 -68 l 676 -68 l 683 -43 l 713 -43 l 714 -40 l 738 -40 l 731 -69 l 708 -69 l 708 -74 l 736 -74 l 731 -94 l 708 -94 l 708 -99 l 738 -99 l 729 -125 m 772 -107 l 772 -125 l 747 -125 l 747 -68 l 740 -68 l 747 -43 l 772 -43 q 789 -44 783 -43 q 801 -50 794 -46 q 811 -74 811 -60 q 797 -100 811 -90 l 814 -125 l 783 -125 l 772 -107 m 776 -68 l 772 -68 l 772 -82 l 776 -82 q 785 -75 785 -82 q 776 -68 785 -68 m 858 -40 l 881 -44 l 872 -69 q 854 -65 861 -65 q 849 -68 849 -65 q 853 -72 849 -71 q 865 -76 858 -74 q 876 -83 871 -78 q 882 -99 882 -89 q 873 -119 882 -112 q 849 -126 864 -126 q 822 -119 836 -126 l 828 -94 q 840 -100 833 -97 q 849 -103 846 -103 q 856 -99 856 -103 q 850 -94 856 -96 q 838 -90 844 -92 q 826 -83 832 -87 q 821 -68 821 -78 q 828 -50 821 -57 q 847 -43 836 -43 q 857 -44 853 -43 l 858 -40 m 917 -43 l 917 -125 l 892 -125 l 892 -68 l 885 -68 l 892 -43 l 917 -43 m 967 -43 q 997 -56 985 -43 q 1008 -85 1008 -68 q 997 -114 1008 -101 q 967 -126 985 -126 q 936 -114 947 -126 q 925 -85 925 -101 q 937 -56 925 -68 q 967 -43 949 -43 m 982 -85 q 978 -73 982 -78 q 967 -68 974 -68 q 954 -73 958 -68 q 950 -85 950 -78 q 954 -97 950 -92 q 967 -101 958 -101 q 978 -97 974 -101 q 982 -85 982 -92 m 1043 -89 l 1043 -125 l 1018 -125 l 1018 -68 l 1011 -68 l 1018 -43 l 1043 -43 l 1061 -74 l 1061 -43 l 1088 -43 l 1088 -125 l 1065 -125 l 1043 -89 m 193 -183 q 223 -196 211 -183 q 235 -226 235 -208 q 223 -256 235 -243 q 193 -268 211 -268 q 163 -255 174 -268 q 151 -225 151 -242 q 163 -196 151 -208 q 193 -183 175 -183 m 208 -226 q 193 -210 208 -210 q 176 -226 176 -210 q 193 -242 176 -242 q 208 -226 208 -242 m 269 -231 l 269 -267 l 244 -267 l 244 -210 l 238 -210 l 246 -185 l 269 -185 l 288 -215 l 288 -185 l 314 -185 l 314 -267 l 292 -267 l 269 -231 m 379 -185 l 379 -211 l 396 -211 l 396 -185 l 421 -185 l 421 -267 l 396 -267 l 396 -237 l 379 -237 l 379 -267 l 354 -267 l 354 -210 l 349 -210 l 356 -185 l 379 -185 m 481 -267 l 433 -267 l 433 -210 l 428 -210 l 435 -185 l 464 -185 l 464 -182 l 489 -182 l 481 -210 l 458 -210 l 458 -215 l 488 -215 l 482 -235 l 458 -235 l 458 -240 l 488 -240 l 481 -267 m 525 -247 l 525 -267 l 499 -267 l 499 -210 l 492 -210 l 500 -185 l 525 -185 q 551 -192 544 -185 q 563 -215 563 -200 q 550 -242 563 -233 l 564 -267 l 535 -267 l 525 -247 m 529 -210 l 525 -210 l 525 -224 l 528 -224 q 538 -217 538 -224 q 529 -210 538 -210 m 614 -183 q 644 -196 632 -183 q 656 -226 656 -208 q 644 -256 656 -243 q 614 -268 632 -268 q 583 -255 594 -268 q 571 -225 571 -242 q 583 -196 571 -208 q 614 -183 594 -183 m 631 -226 q 626 -215 631 -219 q 614 -210 621 -210 q 597 -226 597 -210 q 614 -242 597 -242 q 626 -237 621 -242 q 631 -226 631 -233 m 689 -267 l 664 -267 l 664 -210 l 658 -210 l 665 -185 l 694 -185 l 696 -182 l 719 -182 l 711 -210 l 689 -210 l 689 -215 l 715 -215 l 710 -239 l 689 -239 l 689 -267 m 768 -183 q 797 -196 785 -183 q 810 -226 810 -208 q 797 -256 810 -243 q 768 -268 785 -268 q 737 -255 749 -268 q 725 -225 725 -242 q 737 -196 725 -208 q 768 -183 749 -183 m 783 -226 q 768 -210 783 -210 q 751 -226 751 -210 q 768 -242 751 -242 q 783 -226 783 -242 m 843 -231 l 843 -267 l 818 -267 l 818 -210 l 811 -210 l 818 -185 l 843 -185 l 863 -215 l 863 -185 l 888 -185 l 888 -267 l 865 -267 l 843 -231 m 932 -210 l 932 -267 l 906 -267 l 906 -210 l 893 -210 l 901 -185 l 928 -185 l 929 -182 l 953 -182 l 944 -210 l 932 -210 m 992 -182 l 1013 -186 l 1006 -211 q 988 -207 994 -207 q 982 -208 982 -207 q 987 -212 982 -211 q 998 -217 992 -214 q 1009 -225 1004 -219 q 1014 -240 1014 -231 q 982 -268 1014 -268 q 969 -266 975 -268 q 956 -261 964 -264 l 961 -236 q 982 -243 972 -243 q 988 -240 988 -243 q 982 -235 988 -237 q 970 -231 976 -233 q 958 -224 964 -229 q 953 -210 953 -219 q 961 -191 953 -199 q 981 -183 969 -183 q 985 -184 983 -183 q 990 -185 988 -185 l 992 -182 m 1033 -240 q 1046 -254 1046 -240 q 1033 -268 1046 -268 q 1019 -254 1019 -268 q 1033 -240 1019 -240 m 1099 -182 l 1119 -190 l 1107 -215 q 1098 -210 1100 -212 q 1092 -208 1096 -208 q 1075 -225 1075 -208 q 1092 -242 1075 -242 q 1108 -235 1100 -242 l 1119 -257 q 1090 -268 1106 -268 q 1062 -256 1075 -268 q 1049 -225 1049 -244 q 1061 -196 1049 -208 q 1090 -183 1074 -183 q 1097 -185 1093 -183 l 1099 -182 m 1165 -183 q 1196 -196 1185 -183 q 1207 -226 1207 -208 q 1196 -256 1207 -243 q 1165 -268 1185 -268 q 1135 -255 1146 -268 q 1124 -225 1124 -242 q 1135 -196 1124 -208 q 1165 -183 1147 -183 m 1182 -226 q 1165 -210 1182 -210 q 1149 -226 1149 -210 q 1165 -242 1149 -242 q 1182 -226 1182 -242 m 1242 -224 l 1242 -267 l 1217 -267 l 1217 -210 l 1211 -210 l 1217 -185 l 1242 -185 l 1256 -203 l 1269 -185 l 1296 -185 l 1296 -267 l 1271 -267 l 1271 -224 l 1256 -240 l 1242 -224 z "},"6":{"ha":1515,"x_min":151,"x_max":1296,"o":"m 1235 532 q 1234 521 1235 529 q 1233 503 1233 513 q 1231 486 1232 494 q 1229 474 1229 478 q 1224 449 1228 461 q 1218 424 1221 436 q 1147 269 1194 339 q 1033 148 1099 199 q 888 69 968 97 q 718 40 807 40 q 513 83 608 40 q 348 197 417 125 q 240 367 279 269 q 204 574 201 464 q 207 578 207 574 q 226 703 208 643 q 279 818 244 763 q 308 862 290 838 q 347 909 325 886 q 390 951 368 932 q 433 981 413 971 l 435 985 l 439 985 l 442 988 q 448 991 444 990 q 454 994 451 992 q 467 1002 461 999 q 478 1010 472 1006 q 508 1024 492 1018 q 540 1038 525 1031 q 628 1062 583 1054 q 718 1069 672 1069 q 912 1033 818 1069 q 1078 925 1006 996 q 1124 874 1103 900 q 1164 817 1146 847 q 1174 798 1169 808 q 1182 778 1178 788 q 1190 766 1186 771 q 1194 754 1193 761 q 1208 721 1203 738 q 1218 686 1213 704 q 1231 610 1228 646 q 1235 532 1235 575 m 990 785 q 917 783 954 782 q 843 783 881 783 l 815 783 q 793 708 803 746 q 771 632 783 669 q 783 631 776 631 q 796 632 789 632 q 810 629 806 632 l 810 292 l 961 292 l 961 457 l 1076 457 q 1096 526 1085 492 q 1115 594 1107 560 l 961 594 q 962 606 963 600 q 961 617 961 611 q 961 624 961 619 q 964 629 961 628 l 1092 629 q 1115 712 1101 671 q 1138 794 1128 753 l 993 794 q 990 785 989 792 m 344 778 q 324 705 335 742 q 304 632 313 668 q 316 631 310 631 q 329 632 322 632 q 335 632 332 632 q 342 629 339 632 l 342 292 l 493 292 l 493 422 q 493 444 493 433 q 496 467 493 456 q 524 466 510 465 q 554 467 539 467 q 571 467 563 467 q 589 465 579 467 l 589 294 q 619 292 604 292 q 647 292 633 292 q 694 292 671 292 q 740 292 717 293 l 740 783 q 694 783 717 782 q 647 783 671 783 q 589 781 618 783 l 589 622 l 493 622 q 494 671 493 646 q 494 721 494 696 q 492 783 494 751 l 349 783 q 346 781 346 783 q 344 778 346 779 m 361 -125 l 335 -125 l 335 -68 l 329 -68 l 336 -43 l 365 -43 l 367 -40 l 390 -40 l 383 -69 l 361 -69 l 361 -75 l 388 -75 l 379 -99 l 361 -99 l 361 -125 m 400 -68 l 393 -68 l 400 -43 l 425 -43 l 425 -87 q 433 -101 425 -101 q 442 -87 442 -101 l 442 -43 l 467 -43 l 467 -90 q 433 -126 467 -126 q 400 -90 400 -126 l 400 -68 m 504 -100 l 521 -100 l 513 -125 l 479 -125 l 479 -68 l 471 -68 l 479 -43 l 504 -43 l 504 -100 m 554 -100 l 571 -100 l 563 -125 l 529 -125 l 529 -68 l 522 -68 l 529 -43 l 554 -43 l 554 -100 m 678 -43 l 651 -125 l 628 -125 l 599 -43 l 626 -43 l 639 -82 l 651 -43 l 678 -43 m 729 -125 l 682 -125 l 682 -68 l 676 -68 l 683 -43 l 713 -43 l 714 -40 l 738 -40 l 731 -69 l 708 -69 l 708 -74 l 736 -74 l 731 -94 l 708 -94 l 708 -99 l 738 -99 l 729 -125 m 772 -107 l 772 -125 l 747 -125 l 747 -68 l 740 -68 l 747 -43 l 772 -43 q 789 -44 783 -43 q 801 -50 794 -46 q 811 -74 811 -60 q 797 -100 811 -90 l 814 -125 l 783 -125 l 772 -107 m 776 -68 l 772 -68 l 772 -82 l 776 -82 q 785 -75 785 -82 q 776 -68 785 -68 m 858 -40 l 881 -44 l 872 -69 q 854 -65 861 -65 q 849 -68 849 -65 q 853 -72 849 -71 q 865 -76 858 -74 q 876 -83 871 -78 q 882 -99 882 -89 q 873 -119 882 -112 q 849 -126 864 -126 q 822 -119 836 -126 l 828 -94 q 840 -100 833 -97 q 849 -103 846 -103 q 856 -99 856 -103 q 850 -94 856 -96 q 838 -90 844 -92 q 826 -83 832 -87 q 821 -68 821 -78 q 828 -50 821 -57 q 847 -43 836 -43 q 857 -44 853 -43 l 858 -40 m 917 -43 l 917 -125 l 892 -125 l 892 -68 l 885 -68 l 892 -43 l 917 -43 m 967 -43 q 997 -56 985 -43 q 1008 -85 1008 -68 q 997 -114 1008 -101 q 967 -126 985 -126 q 936 -114 947 -126 q 925 -85 925 -101 q 937 -56 925 -68 q 967 -43 949 -43 m 982 -85 q 978 -73 982 -78 q 967 -68 974 -68 q 954 -73 958 -68 q 950 -85 950 -78 q 954 -97 950 -92 q 967 -101 958 -101 q 978 -97 974 -101 q 982 -85 982 -92 m 1043 -89 l 1043 -125 l 1018 -125 l 1018 -68 l 1011 -68 l 1018 -43 l 1043 -43 l 1061 -74 l 1061 -43 l 1088 -43 l 1088 -125 l 1065 -125 l 1043 -89 m 193 -183 q 223 -196 211 -183 q 235 -226 235 -208 q 223 -256 235 -243 q 193 -268 211 -268 q 163 -255 174 -268 q 151 -225 151 -242 q 163 -196 151 -208 q 193 -183 175 -183 m 208 -226 q 193 -210 208 -210 q 176 -226 176 -210 q 193 -242 176 -242 q 208 -226 208 -242 m 269 -231 l 269 -267 l 244 -267 l 244 -210 l 238 -210 l 246 -185 l 269 -185 l 288 -215 l 288 -185 l 314 -185 l 314 -267 l 292 -267 l 269 -231 m 379 -185 l 379 -211 l 396 -211 l 396 -185 l 421 -185 l 421 -267 l 396 -267 l 396 -237 l 379 -237 l 379 -267 l 354 -267 l 354 -210 l 349 -210 l 356 -185 l 379 -185 m 481 -267 l 433 -267 l 433 -210 l 428 -210 l 435 -185 l 464 -185 l 464 -182 l 489 -182 l 481 -210 l 458 -210 l 458 -215 l 488 -215 l 482 -235 l 458 -235 l 458 -240 l 488 -240 l 481 -267 m 525 -247 l 525 -267 l 499 -267 l 499 -210 l 492 -210 l 500 -185 l 525 -185 q 551 -192 544 -185 q 563 -215 563 -200 q 550 -242 563 -233 l 564 -267 l 535 -267 l 525 -247 m 529 -210 l 525 -210 l 525 -224 l 528 -224 q 538 -217 538 -224 q 529 -210 538 -210 m 614 -183 q 644 -196 632 -183 q 656 -226 656 -208 q 644 -256 656 -243 q 614 -268 632 -268 q 583 -255 594 -268 q 571 -225 571 -242 q 583 -196 571 -208 q 614 -183 594 -183 m 631 -226 q 626 -215 631 -219 q 614 -210 621 -210 q 597 -226 597 -210 q 614 -242 597 -242 q 626 -237 621 -242 q 631 -226 631 -233 m 689 -267 l 664 -267 l 664 -210 l 658 -210 l 665 -185 l 694 -185 l 696 -182 l 719 -182 l 711 -210 l 689 -210 l 689 -215 l 715 -215 l 710 -239 l 689 -239 l 689 -267 m 768 -183 q 797 -196 785 -183 q 810 -226 810 -208 q 797 -256 810 -243 q 768 -268 785 -268 q 737 -255 749 -268 q 725 -225 725 -242 q 737 -196 725 -208 q 768 -183 749 -183 m 783 -226 q 768 -210 783 -210 q 751 -226 751 -210 q 768 -242 751 -242 q 783 -226 783 -242 m 843 -231 l 843 -267 l 818 -267 l 818 -210 l 811 -210 l 818 -185 l 843 -185 l 863 -215 l 863 -185 l 888 -185 l 888 -267 l 865 -267 l 843 -231 m 932 -210 l 932 -267 l 906 -267 l 906 -210 l 893 -210 l 901 -185 l 928 -185 l 929 -182 l 953 -182 l 944 -210 l 932 -210 m 992 -182 l 1013 -186 l 1006 -211 q 988 -207 994 -207 q 982 -208 982 -207 q 987 -212 982 -211 q 998 -217 992 -214 q 1009 -225 1004 -219 q 1014 -240 1014 -231 q 982 -268 1014 -268 q 969 -266 975 -268 q 956 -261 964 -264 l 961 -236 q 982 -243 972 -243 q 988 -240 988 -243 q 982 -235 988 -237 q 970 -231 976 -233 q 958 -224 964 -229 q 953 -210 953 -219 q 961 -191 953 -199 q 981 -183 969 -183 q 985 -184 983 -183 q 990 -185 988 -185 l 992 -182 m 1033 -240 q 1046 -254 1046 -240 q 1033 -268 1046 -268 q 1019 -254 1019 -268 q 1033 -240 1019 -240 m 1099 -182 l 1119 -190 l 1107 -215 q 1098 -210 1100 -212 q 1092 -208 1096 -208 q 1075 -225 1075 -208 q 1092 -242 1075 -242 q 1108 -235 1100 -242 l 1119 -257 q 1090 -268 1106 -268 q 1062 -256 1075 -268 q 1049 -225 1049 -244 q 1061 -196 1049 -208 q 1090 -183 1074 -183 q 1097 -185 1093 -183 l 1099 -182 m 1165 -183 q 1196 -196 1185 -183 q 1207 -226 1207 -208 q 1196 -256 1207 -243 q 1165 -268 1185 -268 q 1135 -255 1146 -268 q 1124 -225 1124 -242 q 1135 -196 1124 -208 q 1165 -183 1147 -183 m 1182 -226 q 1165 -210 1182 -210 q 1149 -226 1149 -210 q 1165 -242 1149 -242 q 1182 -226 1182 -242 m 1242 -224 l 1242 -267 l 1217 -267 l 1217 -210 l 1211 -210 l 1217 -185 l 1242 -185 l 1256 -203 l 1269 -185 l 1296 -185 l 1296 -267 l 1271 -267 l 1271 -224 l 1256 -240 l 1242 -224 z "},"7":{"ha":1515,"x_min":151,"x_max":1296,"o":"m 1235 532 q 1234 521 1235 529 q 1233 503 1233 513 q 1231 486 1232 494 q 1229 474 1229 478 q 1224 449 1228 461 q 1218 424 1221 436 q 1147 269 1194 339 q 1033 148 1099 199 q 888 69 968 97 q 718 40 807 40 q 513 83 608 40 q 348 197 417 125 q 240 367 279 269 q 204 574 201 464 q 207 578 207 574 q 226 703 208 643 q 279 818 244 763 q 308 862 290 838 q 347 909 325 886 q 390 951 368 932 q 433 981 413 971 l 435 985 l 439 985 l 442 988 q 448 991 444 990 q 454 994 451 992 q 467 1002 461 999 q 478 1010 472 1006 q 508 1024 492 1018 q 540 1038 525 1031 q 628 1062 583 1054 q 718 1069 672 1069 q 912 1033 818 1069 q 1078 925 1006 996 q 1124 874 1103 900 q 1164 817 1146 847 q 1174 798 1169 808 q 1182 778 1178 788 q 1190 766 1186 771 q 1194 754 1193 761 q 1208 721 1203 738 q 1218 686 1213 704 q 1231 610 1228 646 q 1235 532 1235 575 m 990 785 q 917 783 954 782 q 843 783 881 783 l 815 783 q 793 708 803 746 q 771 632 783 669 q 783 631 776 631 q 796 632 789 632 q 810 629 806 632 l 810 292 l 961 292 l 961 457 l 1076 457 q 1096 526 1085 492 q 1115 594 1107 560 l 961 594 q 962 606 963 600 q 961 617 961 611 q 961 624 961 619 q 964 629 961 628 l 1092 629 q 1115 712 1101 671 q 1138 794 1128 753 l 993 794 q 990 785 989 792 m 344 778 q 324 705 335 742 q 304 632 313 668 q 316 631 310 631 q 329 632 322 632 q 335 632 332 632 q 342 629 339 632 l 342 292 l 493 292 l 493 422 q 493 444 493 433 q 496 467 493 456 q 524 466 510 465 q 554 467 539 467 q 571 467 563 467 q 589 465 579 467 l 589 294 q 619 292 604 292 q 647 292 633 292 q 694 292 671 292 q 740 292 717 293 l 740 783 q 694 783 717 782 q 647 783 671 783 q 589 781 618 783 l 589 622 l 493 622 q 494 671 493 646 q 494 721 494 696 q 492 783 494 751 l 349 783 q 346 781 346 783 q 344 778 346 779 m 361 -125 l 335 -125 l 335 -68 l 329 -68 l 336 -43 l 365 -43 l 367 -40 l 390 -40 l 383 -69 l 361 -69 l 361 -75 l 388 -75 l 379 -99 l 361 -99 l 361 -125 m 400 -68 l 393 -68 l 400 -43 l 425 -43 l 425 -87 q 433 -101 425 -101 q 442 -87 442 -101 l 442 -43 l 467 -43 l 467 -90 q 433 -126 467 -126 q 400 -90 400 -126 l 400 -68 m 504 -100 l 521 -100 l 513 -125 l 479 -125 l 479 -68 l 471 -68 l 479 -43 l 504 -43 l 504 -100 m 554 -100 l 571 -100 l 563 -125 l 529 -125 l 529 -68 l 522 -68 l 529 -43 l 554 -43 l 554 -100 m 678 -43 l 651 -125 l 628 -125 l 599 -43 l 626 -43 l 639 -82 l 651 -43 l 678 -43 m 729 -125 l 682 -125 l 682 -68 l 676 -68 l 683 -43 l 713 -43 l 714 -40 l 738 -40 l 731 -69 l 708 -69 l 708 -74 l 736 -74 l 731 -94 l 708 -94 l 708 -99 l 738 -99 l 729 -125 m 772 -107 l 772 -125 l 747 -125 l 747 -68 l 740 -68 l 747 -43 l 772 -43 q 789 -44 783 -43 q 801 -50 794 -46 q 811 -74 811 -60 q 797 -100 811 -90 l 814 -125 l 783 -125 l 772 -107 m 776 -68 l 772 -68 l 772 -82 l 776 -82 q 785 -75 785 -82 q 776 -68 785 -68 m 858 -40 l 881 -44 l 872 -69 q 854 -65 861 -65 q 849 -68 849 -65 q 853 -72 849 -71 q 865 -76 858 -74 q 876 -83 871 -78 q 882 -99 882 -89 q 873 -119 882 -112 q 849 -126 864 -126 q 822 -119 836 -126 l 828 -94 q 840 -100 833 -97 q 849 -103 846 -103 q 856 -99 856 -103 q 850 -94 856 -96 q 838 -90 844 -92 q 826 -83 832 -87 q 821 -68 821 -78 q 828 -50 821 -57 q 847 -43 836 -43 q 857 -44 853 -43 l 858 -40 m 917 -43 l 917 -125 l 892 -125 l 892 -68 l 885 -68 l 892 -43 l 917 -43 m 967 -43 q 997 -56 985 -43 q 1008 -85 1008 -68 q 997 -114 1008 -101 q 967 -126 985 -126 q 936 -114 947 -126 q 925 -85 925 -101 q 937 -56 925 -68 q 967 -43 949 -43 m 982 -85 q 978 -73 982 -78 q 967 -68 974 -68 q 954 -73 958 -68 q 950 -85 950 -78 q 954 -97 950 -92 q 967 -101 958 -101 q 978 -97 974 -101 q 982 -85 982 -92 m 1043 -89 l 1043 -125 l 1018 -125 l 1018 -68 l 1011 -68 l 1018 -43 l 1043 -43 l 1061 -74 l 1061 -43 l 1088 -43 l 1088 -125 l 1065 -125 l 1043 -89 m 193 -183 q 223 -196 211 -183 q 235 -226 235 -208 q 223 -256 235 -243 q 193 -268 211 -268 q 163 -255 174 -268 q 151 -225 151 -242 q 163 -196 151 -208 q 193 -183 175 -183 m 208 -226 q 193 -210 208 -210 q 176 -226 176 -210 q 193 -242 176 -242 q 208 -226 208 -242 m 269 -231 l 269 -267 l 244 -267 l 244 -210 l 238 -210 l 246 -185 l 269 -185 l 288 -215 l 288 -185 l 314 -185 l 314 -267 l 292 -267 l 269 -231 m 379 -185 l 379 -211 l 396 -211 l 396 -185 l 421 -185 l 421 -267 l 396 -267 l 396 -237 l 379 -237 l 379 -267 l 354 -267 l 354 -210 l 349 -210 l 356 -185 l 379 -185 m 481 -267 l 433 -267 l 433 -210 l 428 -210 l 435 -185 l 464 -185 l 464 -182 l 489 -182 l 481 -210 l 458 -210 l 458 -215 l 488 -215 l 482 -235 l 458 -235 l 458 -240 l 488 -240 l 481 -267 m 525 -247 l 525 -267 l 499 -267 l 499 -210 l 492 -210 l 500 -185 l 525 -185 q 551 -192 544 -185 q 563 -215 563 -200 q 550 -242 563 -233 l 564 -267 l 535 -267 l 525 -247 m 529 -210 l 525 -210 l 525 -224 l 528 -224 q 538 -217 538 -224 q 529 -210 538 -210 m 614 -183 q 644 -196 632 -183 q 656 -226 656 -208 q 644 -256 656 -243 q 614 -268 632 -268 q 583 -255 594 -268 q 571 -225 571 -242 q 583 -196 571 -208 q 614 -183 594 -183 m 631 -226 q 626 -215 631 -219 q 614 -210 621 -210 q 597 -226 597 -210 q 614 -242 597 -242 q 626 -237 621 -242 q 631 -226 631 -233 m 689 -267 l 664 -267 l 664 -210 l 658 -210 l 665 -185 l 694 -185 l 696 -182 l 719 -182 l 711 -210 l 689 -210 l 689 -215 l 715 -215 l 710 -239 l 689 -239 l 689 -267 m 768 -183 q 797 -196 785 -183 q 810 -226 810 -208 q 797 -256 810 -243 q 768 -268 785 -268 q 737 -255 749 -268 q 725 -225 725 -242 q 737 -196 725 -208 q 768 -183 749 -183 m 783 -226 q 768 -210 783 -210 q 751 -226 751 -210 q 768 -242 751 -242 q 783 -226 783 -242 m 843 -231 l 843 -267 l 818 -267 l 818 -210 l 811 -210 l 818 -185 l 843 -185 l 863 -215 l 863 -185 l 888 -185 l 888 -267 l 865 -267 l 843 -231 m 932 -210 l 932 -267 l 906 -267 l 906 -210 l 893 -210 l 901 -185 l 928 -185 l 929 -182 l 953 -182 l 944 -210 l 932 -210 m 992 -182 l 1013 -186 l 1006 -211 q 988 -207 994 -207 q 982 -208 982 -207 q 987 -212 982 -211 q 998 -217 992 -214 q 1009 -225 1004 -219 q 1014 -240 1014 -231 q 982 -268 1014 -268 q 969 -266 975 -268 q 956 -261 964 -264 l 961 -236 q 982 -243 972 -243 q 988 -240 988 -243 q 982 -235 988 -237 q 970 -231 976 -233 q 958 -224 964 -229 q 953 -210 953 -219 q 961 -191 953 -199 q 981 -183 969 -183 q 985 -184 983 -183 q 990 -185 988 -185 l 992 -182 m 1033 -240 q 1046 -254 1046 -240 q 1033 -268 1046 -268 q 1019 -254 1019 -268 q 1033 -240 1019 -240 m 1099 -182 l 1119 -190 l 1107 -215 q 1098 -210 1100 -212 q 1092 -208 1096 -208 q 1075 -225 1075 -208 q 1092 -242 1075 -242 q 1108 -235 1100 -242 l 1119 -257 q 1090 -268 1106 -268 q 1062 -256 1075 -268 q 1049 -225 1049 -244 q 1061 -196 1049 -208 q 1090 -183 1074 -183 q 1097 -185 1093 -183 l 1099 -182 m 1165 -183 q 1196 -196 1185 -183 q 1207 -226 1207 -208 q 1196 -256 1207 -243 q 1165 -268 1185 -268 q 1135 -255 1146 -268 q 1124 -225 1124 -242 q 1135 -196 1124 -208 q 1165 -183 1147 -183 m 1182 -226 q 1165 -210 1182 -210 q 1149 -226 1149 -210 q 1165 -242 1149 -242 q 1182 -226 1182 -242 m 1242 -224 l 1242 -267 l 1217 -267 l 1217 -210 l 1211 -210 l 1217 -185 l 1242 -185 l 1256 -203 l 1269 -185 l 1296 -185 l 1296 -267 l 1271 -267 l 1271 -224 l 1256 -240 l 1242 -224 z "},"8":{"ha":1515,"x_min":151,"x_max":1296,"o":"m 1235 532 q 1234 521 1235 529 q 1233 503 1233 513 q 1231 486 1232 494 q 1229 474 1229 478 q 1224 449 1228 461 q 1218 424 1221 436 q 1147 269 1194 339 q 1033 148 1099 199 q 888 69 968 97 q 718 40 807 40 q 513 83 608 40 q 348 197 417 125 q 240 367 279 269 q 204 574 201 464 q 207 578 207 574 q 226 703 208 643 q 279 818 244 763 q 308 862 290 838 q 347 909 325 886 q 390 951 368 932 q 433 981 413 971 l 435 985 l 439 985 l 442 988 q 448 991 444 990 q 454 994 451 992 q 467 1002 461 999 q 478 1010 472 1006 q 508 1024 492 1018 q 540 1038 525 1031 q 628 1062 583 1054 q 718 1069 672 1069 q 912 1033 818 1069 q 1078 925 1006 996 q 1124 874 1103 900 q 1164 817 1146 847 q 1174 798 1169 808 q 1182 778 1178 788 q 1190 766 1186 771 q 1194 754 1193 761 q 1208 721 1203 738 q 1218 686 1213 704 q 1231 610 1228 646 q 1235 532 1235 575 m 990 785 q 917 783 954 782 q 843 783 881 783 l 815 783 q 793 708 803 746 q 771 632 783 669 q 783 631 776 631 q 796 632 789 632 q 810 629 806 632 l 810 292 l 961 292 l 961 457 l 1076 457 q 1096 526 1085 492 q 1115 594 1107 560 l 961 594 q 962 606 963 600 q 961 617 961 611 q 961 624 961 619 q 964 629 961 628 l 1092 629 q 1115 712 1101 671 q 1138 794 1128 753 l 993 794 q 990 785 989 792 m 344 778 q 324 705 335 742 q 304 632 313 668 q 316 631 310 631 q 329 632 322 632 q 335 632 332 632 q 342 629 339 632 l 342 292 l 493 292 l 493 422 q 493 444 493 433 q 496 467 493 456 q 524 466 510 465 q 554 467 539 467 q 571 467 563 467 q 589 465 579 467 l 589 294 q 619 292 604 292 q 647 292 633 292 q 694 292 671 292 q 740 292 717 293 l 740 783 q 694 783 717 782 q 647 783 671 783 q 589 781 618 783 l 589 622 l 493 622 q 494 671 493 646 q 494 721 494 696 q 492 783 494 751 l 349 783 q 346 781 346 783 q 344 778 346 779 m 361 -125 l 335 -125 l 335 -68 l 329 -68 l 336 -43 l 365 -43 l 367 -40 l 390 -40 l 383 -69 l 361 -69 l 361 -75 l 388 -75 l 379 -99 l 361 -99 l 361 -125 m 400 -68 l 393 -68 l 400 -43 l 425 -43 l 425 -87 q 433 -101 425 -101 q 442 -87 442 -101 l 442 -43 l 467 -43 l 467 -90 q 433 -126 467 -126 q 400 -90 400 -126 l 400 -68 m 504 -100 l 521 -100 l 513 -125 l 479 -125 l 479 -68 l 471 -68 l 479 -43 l 504 -43 l 504 -100 m 554 -100 l 571 -100 l 563 -125 l 529 -125 l 529 -68 l 522 -68 l 529 -43 l 554 -43 l 554 -100 m 678 -43 l 651 -125 l 628 -125 l 599 -43 l 626 -43 l 639 -82 l 651 -43 l 678 -43 m 729 -125 l 682 -125 l 682 -68 l 676 -68 l 683 -43 l 713 -43 l 714 -40 l 738 -40 l 731 -69 l 708 -69 l 708 -74 l 736 -74 l 731 -94 l 708 -94 l 708 -99 l 738 -99 l 729 -125 m 772 -107 l 772 -125 l 747 -125 l 747 -68 l 740 -68 l 747 -43 l 772 -43 q 789 -44 783 -43 q 801 -50 794 -46 q 811 -74 811 -60 q 797 -100 811 -90 l 814 -125 l 783 -125 l 772 -107 m 776 -68 l 772 -68 l 772 -82 l 776 -82 q 785 -75 785 -82 q 776 -68 785 -68 m 858 -40 l 881 -44 l 872 -69 q 854 -65 861 -65 q 849 -68 849 -65 q 853 -72 849 -71 q 865 -76 858 -74 q 876 -83 871 -78 q 882 -99 882 -89 q 873 -119 882 -112 q 849 -126 864 -126 q 822 -119 836 -126 l 828 -94 q 840 -100 833 -97 q 849 -103 846 -103 q 856 -99 856 -103 q 850 -94 856 -96 q 838 -90 844 -92 q 826 -83 832 -87 q 821 -68 821 -78 q 828 -50 821 -57 q 847 -43 836 -43 q 857 -44 853 -43 l 858 -40 m 917 -43 l 917 -125 l 892 -125 l 892 -68 l 885 -68 l 892 -43 l 917 -43 m 967 -43 q 997 -56 985 -43 q 1008 -85 1008 -68 q 997 -114 1008 -101 q 967 -126 985 -126 q 936 -114 947 -126 q 925 -85 925 -101 q 937 -56 925 -68 q 967 -43 949 -43 m 982 -85 q 978 -73 982 -78 q 967 -68 974 -68 q 954 -73 958 -68 q 950 -85 950 -78 q 954 -97 950 -92 q 967 -101 958 -101 q 978 -97 974 -101 q 982 -85 982 -92 m 1043 -89 l 1043 -125 l 1018 -125 l 1018 -68 l 1011 -68 l 1018 -43 l 1043 -43 l 1061 -74 l 1061 -43 l 1088 -43 l 1088 -125 l 1065 -125 l 1043 -89 m 193 -183 q 223 -196 211 -183 q 235 -226 235 -208 q 223 -256 235 -243 q 193 -268 211 -268 q 163 -255 174 -268 q 151 -225 151 -242 q 163 -196 151 -208 q 193 -183 175 -183 m 208 -226 q 193 -210 208 -210 q 176 -226 176 -210 q 193 -242 176 -242 q 208 -226 208 -242 m 269 -231 l 269 -267 l 244 -267 l 244 -210 l 238 -210 l 246 -185 l 269 -185 l 288 -215 l 288 -185 l 314 -185 l 314 -267 l 292 -267 l 269 -231 m 379 -185 l 379 -211 l 396 -211 l 396 -185 l 421 -185 l 421 -267 l 396 -267 l 396 -237 l 379 -237 l 379 -267 l 354 -267 l 354 -210 l 349 -210 l 356 -185 l 379 -185 m 481 -267 l 433 -267 l 433 -210 l 428 -210 l 435 -185 l 464 -185 l 464 -182 l 489 -182 l 481 -210 l 458 -210 l 458 -215 l 488 -215 l 482 -235 l 458 -235 l 458 -240 l 488 -240 l 481 -267 m 525 -247 l 525 -267 l 499 -267 l 499 -210 l 492 -210 l 500 -185 l 525 -185 q 551 -192 544 -185 q 563 -215 563 -200 q 550 -242 563 -233 l 564 -267 l 535 -267 l 525 -247 m 529 -210 l 525 -210 l 525 -224 l 528 -224 q 538 -217 538 -224 q 529 -210 538 -210 m 614 -183 q 644 -196 632 -183 q 656 -226 656 -208 q 644 -256 656 -243 q 614 -268 632 -268 q 583 -255 594 -268 q 571 -225 571 -242 q 583 -196 571 -208 q 614 -183 594 -183 m 631 -226 q 626 -215 631 -219 q 614 -210 621 -210 q 597 -226 597 -210 q 614 -242 597 -242 q 626 -237 621 -242 q 631 -226 631 -233 m 689 -267 l 664 -267 l 664 -210 l 658 -210 l 665 -185 l 694 -185 l 696 -182 l 719 -182 l 711 -210 l 689 -210 l 689 -215 l 715 -215 l 710 -239 l 689 -239 l 689 -267 m 768 -183 q 797 -196 785 -183 q 810 -226 810 -208 q 797 -256 810 -243 q 768 -268 785 -268 q 737 -255 749 -268 q 725 -225 725 -242 q 737 -196 725 -208 q 768 -183 749 -183 m 783 -226 q 768 -210 783 -210 q 751 -226 751 -210 q 768 -242 751 -242 q 783 -226 783 -242 m 843 -231 l 843 -267 l 818 -267 l 818 -210 l 811 -210 l 818 -185 l 843 -185 l 863 -215 l 863 -185 l 888 -185 l 888 -267 l 865 -267 l 843 -231 m 932 -210 l 932 -267 l 906 -267 l 906 -210 l 893 -210 l 901 -185 l 928 -185 l 929 -182 l 953 -182 l 944 -210 l 932 -210 m 992 -182 l 1013 -186 l 1006 -211 q 988 -207 994 -207 q 982 -208 982 -207 q 987 -212 982 -211 q 998 -217 992 -214 q 1009 -225 1004 -219 q 1014 -240 1014 -231 q 982 -268 1014 -268 q 969 -266 975 -268 q 956 -261 964 -264 l 961 -236 q 982 -243 972 -243 q 988 -240 988 -243 q 982 -235 988 -237 q 970 -231 976 -233 q 958 -224 964 -229 q 953 -210 953 -219 q 961 -191 953 -199 q 981 -183 969 -183 q 985 -184 983 -183 q 990 -185 988 -185 l 992 -182 m 1033 -240 q 1046 -254 1046 -240 q 1033 -268 1046 -268 q 1019 -254 1019 -268 q 1033 -240 1019 -240 m 1099 -182 l 1119 -190 l 1107 -215 q 1098 -210 1100 -212 q 1092 -208 1096 -208 q 1075 -225 1075 -208 q 1092 -242 1075 -242 q 1108 -235 1100 -242 l 1119 -257 q 1090 -268 1106 -268 q 1062 -256 1075 -268 q 1049 -225 1049 -244 q 1061 -196 1049 -208 q 1090 -183 1074 -183 q 1097 -185 1093 -183 l 1099 -182 m 1165 -183 q 1196 -196 1185 -183 q 1207 -226 1207 -208 q 1196 -256 1207 -243 q 1165 -268 1185 -268 q 1135 -255 1146 -268 q 1124 -225 1124 -242 q 1135 -196 1124 -208 q 1165 -183 1147 -183 m 1182 -226 q 1165 -210 1182 -210 q 1149 -226 1149 -210 q 1165 -242 1149 -242 q 1182 -226 1182 -242 m 1242 -224 l 1242 -267 l 1217 -267 l 1217 -210 l 1211 -210 l 1217 -185 l 1242 -185 l 1256 -203 l 1269 -185 l 1296 -185 l 1296 -267 l 1271 -267 l 1271 -224 l 1256 -240 l 1242 -224 z "},"9":{"ha":1515,"x_min":151,"x_max":1296,"o":"m 1235 532 q 1234 521 1235 529 q 1233 503 1233 513 q 1231 486 1232 494 q 1229 474 1229 478 q 1224 449 1228 461 q 1218 424 1221 436 q 1147 269 1194 339 q 1033 148 1099 199 q 888 69 968 97 q 718 40 807 40 q 513 83 608 40 q 348 197 417 125 q 240 367 279 269 q 204 574 201 464 q 207 578 207 574 q 226 703 208 643 q 279 818 244 763 q 308 862 290 838 q 347 909 325 886 q 390 951 368 932 q 433 981 413 971 l 435 985 l 439 985 l 442 988 q 448 991 444 990 q 454 994 451 992 q 467 1002 461 999 q 478 1010 472 1006 q 508 1024 492 1018 q 540 1038 525 1031 q 628 1062 583 1054 q 718 1069 672 1069 q 912 1033 818 1069 q 1078 925 1006 996 q 1124 874 1103 900 q 1164 817 1146 847 q 1174 798 1169 808 q 1182 778 1178 788 q 1190 766 1186 771 q 1194 754 1193 761 q 1208 721 1203 738 q 1218 686 1213 704 q 1231 610 1228 646 q 1235 532 1235 575 m 990 785 q 917 783 954 782 q 843 783 881 783 l 815 783 q 793 708 803 746 q 771 632 783 669 q 783 631 776 631 q 796 632 789 632 q 810 629 806 632 l 810 292 l 961 292 l 961 457 l 1076 457 q 1096 526 1085 492 q 1115 594 1107 560 l 961 594 q 962 606 963 600 q 961 617 961 611 q 961 624 961 619 q 964 629 961 628 l 1092 629 q 1115 712 1101 671 q 1138 794 1128 753 l 993 794 q 990 785 989 792 m 344 778 q 324 705 335 742 q 304 632 313 668 q 316 631 310 631 q 329 632 322 632 q 335 632 332 632 q 342 629 339 632 l 342 292 l 493 292 l 493 422 q 493 444 493 433 q 496 467 493 456 q 524 466 510 465 q 554 467 539 467 q 571 467 563 467 q 589 465 579 467 l 589 294 q 619 292 604 292 q 647 292 633 292 q 694 292 671 292 q 740 292 717 293 l 740 783 q 694 783 717 782 q 647 783 671 783 q 589 781 618 783 l 589 622 l 493 622 q 494 671 493 646 q 494 721 494 696 q 492 783 494 751 l 349 783 q 346 781 346 783 q 344 778 346 779 m 361 -125 l 335 -125 l 335 -68 l 329 -68 l 336 -43 l 365 -43 l 367 -40 l 390 -40 l 383 -69 l 361 -69 l 361 -75 l 388 -75 l 379 -99 l 361 -99 l 361 -125 m 400 -68 l 393 -68 l 400 -43 l 425 -43 l 425 -87 q 433 -101 425 -101 q 442 -87 442 -101 l 442 -43 l 467 -43 l 467 -90 q 433 -126 467 -126 q 400 -90 400 -126 l 400 -68 m 504 -100 l 521 -100 l 513 -125 l 479 -125 l 479 -68 l 471 -68 l 479 -43 l 504 -43 l 504 -100 m 554 -100 l 571 -100 l 563 -125 l 529 -125 l 529 -68 l 522 -68 l 529 -43 l 554 -43 l 554 -100 m 678 -43 l 651 -125 l 628 -125 l 599 -43 l 626 -43 l 639 -82 l 651 -43 l 678 -43 m 729 -125 l 682 -125 l 682 -68 l 676 -68 l 683 -43 l 713 -43 l 714 -40 l 738 -40 l 731 -69 l 708 -69 l 708 -74 l 736 -74 l 731 -94 l 708 -94 l 708 -99 l 738 -99 l 729 -125 m 772 -107 l 772 -125 l 747 -125 l 747 -68 l 740 -68 l 747 -43 l 772 -43 q 789 -44 783 -43 q 801 -50 794 -46 q 811 -74 811 -60 q 797 -100 811 -90 l 814 -125 l 783 -125 l 772 -107 m 776 -68 l 772 -68 l 772 -82 l 776 -82 q 785 -75 785 -82 q 776 -68 785 -68 m 858 -40 l 881 -44 l 872 -69 q 854 -65 861 -65 q 849 -68 849 -65 q 853 -72 849 -71 q 865 -76 858 -74 q 876 -83 871 -78 q 882 -99 882 -89 q 873 -119 882 -112 q 849 -126 864 -126 q 822 -119 836 -126 l 828 -94 q 840 -100 833 -97 q 849 -103 846 -103 q 856 -99 856 -103 q 850 -94 856 -96 q 838 -90 844 -92 q 826 -83 832 -87 q 821 -68 821 -78 q 828 -50 821 -57 q 847 -43 836 -43 q 857 -44 853 -43 l 858 -40 m 917 -43 l 917 -125 l 892 -125 l 892 -68 l 885 -68 l 892 -43 l 917 -43 m 967 -43 q 997 -56 985 -43 q 1008 -85 1008 -68 q 997 -114 1008 -101 q 967 -126 985 -126 q 936 -114 947 -126 q 925 -85 925 -101 q 937 -56 925 -68 q 967 -43 949 -43 m 982 -85 q 978 -73 982 -78 q 967 -68 974 -68 q 954 -73 958 -68 q 950 -85 950 -78 q 954 -97 950 -92 q 967 -101 958 -101 q 978 -97 974 -101 q 982 -85 982 -92 m 1043 -89 l 1043 -125 l 1018 -125 l 1018 -68 l 1011 -68 l 1018 -43 l 1043 -43 l 1061 -74 l 1061 -43 l 1088 -43 l 1088 -125 l 1065 -125 l 1043 -89 m 193 -183 q 223 -196 211 -183 q 235 -226 235 -208 q 223 -256 235 -243 q 193 -268 211 -268 q 163 -255 174 -268 q 151 -225 151 -242 q 163 -196 151 -208 q 193 -183 175 -183 m 208 -226 q 193 -210 208 -210 q 176 -226 176 -210 q 193 -242 176 -242 q 208 -226 208 -242 m 269 -231 l 269 -267 l 244 -267 l 244 -210 l 238 -210 l 246 -185 l 269 -185 l 288 -215 l 288 -185 l 314 -185 l 314 -267 l 292 -267 l 269 -231 m 379 -185 l 379 -211 l 396 -211 l 396 -185 l 421 -185 l 421 -267 l 396 -267 l 396 -237 l 379 -237 l 379 -267 l 354 -267 l 354 -210 l 349 -210 l 356 -185 l 379 -185 m 481 -267 l 433 -267 l 433 -210 l 428 -210 l 435 -185 l 464 -185 l 464 -182 l 489 -182 l 481 -210 l 458 -210 l 458 -215 l 488 -215 l 482 -235 l 458 -235 l 458 -240 l 488 -240 l 481 -267 m 525 -247 l 525 -267 l 499 -267 l 499 -210 l 492 -210 l 500 -185 l 525 -185 q 551 -192 544 -185 q 563 -215 563 -200 q 550 -242 563 -233 l 564 -267 l 535 -267 l 525 -247 m 529 -210 l 525 -210 l 525 -224 l 528 -224 q 538 -217 538 -224 q 529 -210 538 -210 m 614 -183 q 644 -196 632 -183 q 656 -226 656 -208 q 644 -256 656 -243 q 614 -268 632 -268 q 583 -255 594 -268 q 571 -225 571 -242 q 583 -196 571 -208 q 614 -183 594 -183 m 631 -226 q 626 -215 631 -219 q 614 -210 621 -210 q 597 -226 597 -210 q 614 -242 597 -242 q 626 -237 621 -242 q 631 -226 631 -233 m 689 -267 l 664 -267 l 664 -210 l 658 -210 l 665 -185 l 694 -185 l 696 -182 l 719 -182 l 711 -210 l 689 -210 l 689 -215 l 715 -215 l 710 -239 l 689 -239 l 689 -267 m 768 -183 q 797 -196 785 -183 q 810 -226 810 -208 q 797 -256 810 -243 q 768 -268 785 -268 q 737 -255 749 -268 q 725 -225 725 -242 q 737 -196 725 -208 q 768 -183 749 -183 m 783 -226 q 768 -210 783 -210 q 751 -226 751 -210 q 768 -242 751 -242 q 783 -226 783 -242 m 843 -231 l 843 -267 l 818 -267 l 818 -210 l 811 -210 l 818 -185 l 843 -185 l 863 -215 l 863 -185 l 888 -185 l 888 -267 l 865 -267 l 843 -231 m 932 -210 l 932 -267 l 906 -267 l 906 -210 l 893 -210 l 901 -185 l 928 -185 l 929 -182 l 953 -182 l 944 -210 l 932 -210 m 992 -182 l 1013 -186 l 1006 -211 q 988 -207 994 -207 q 982 -208 982 -207 q 987 -212 982 -211 q 998 -217 992 -214 q 1009 -225 1004 -219 q 1014 -240 1014 -231 q 982 -268 1014 -268 q 969 -266 975 -268 q 956 -261 964 -264 l 961 -236 q 982 -243 972 -243 q 988 -240 988 -243 q 982 -235 988 -237 q 970 -231 976 -233 q 958 -224 964 -229 q 953 -210 953 -219 q 961 -191 953 -199 q 981 -183 969 -183 q 985 -184 983 -183 q 990 -185 988 -185 l 992 -182 m 1033 -240 q 1046 -254 1046 -240 q 1033 -268 1046 -268 q 1019 -254 1019 -268 q 1033 -240 1019 -240 m 1099 -182 l 1119 -190 l 1107 -215 q 1098 -210 1100 -212 q 1092 -208 1096 -208 q 1075 -225 1075 -208 q 1092 -242 1075 -242 q 1108 -235 1100 -242 l 1119 -257 q 1090 -268 1106 -268 q 1062 -256 1075 -268 q 1049 -225 1049 -244 q 1061 -196 1049 -208 q 1090 -183 1074 -183 q 1097 -185 1093 -183 l 1099 -182 m 1165 -183 q 1196 -196 1185 -183 q 1207 -226 1207 -208 q 1196 -256 1207 -243 q 1165 -268 1185 -268 q 1135 -255 1146 -268 q 1124 -225 1124 -242 q 1135 -196 1124 -208 q 1165 -183 1147 -183 m 1182 -226 q 1165 -210 1182 -210 q 1149 -226 1149 -210 q 1165 -242 1149 -242 q 1182 -226 1182 -242 m 1242 -224 l 1242 -267 l 1217 -267 l 1217 -210 l 1211 -210 l 1217 -185 l 1242 -185 l 1256 -203 l 1269 -185 l 1296 -185 l 1296 -267 l 1271 -267 l 1271 -224 l 1256 -240 l 1242 -224 z "},"\u0000":{"ha":0,"x_min":0,"x_max":0,"o":""},"\r":{"ha":347,"x_min":0,"x_max":0,"o":""}," ":{"ha":347,"x_min":0,"x_max":0,"o":""},"E":{"ha":436,"x_min":-33,"x_max":546,"o":"m 456 638 q 471 639 461 639 q 522 623 499 639 q 538 578 546 607 q 535 569 536 574 q 529 558 533 564 q 503 519 521 542 q 467 481 486 496 q 426 448 450 467 q 382 429 401 429 q 356 435 374 429 q 343 451 339 440 q 363 474 344 460 q 380 490 368 478 q 403 515 392 501 q 425 541 415 529 q 436 557 435 553 q 378 531 433 557 q 281 476 319 503 q 203 411 242 449 q 163 360 169 379 q 190 332 157 338 q 203 331 197 331 q 214 331 208 331 q 247 338 232 331 q 324 353 297 353 q 367 335 356 353 q 369 325 369 331 q 350 308 367 318 q 288 279 333 299 q 210 242 250 261 q 137 201 171 222 q 78 154 103 179 q 46 100 54 129 q 48 55 40 76 q 83 33 56 33 q 136 46 106 33 q 199 76 167 58 q 261 114 232 93 q 311 151 290 135 q 338 172 328 164 q 353 185 347 181 q 364 192 360 190 q 371 196 368 194 q 379 197 374 197 q 398 190 390 197 q 401 171 406 182 q 388 156 397 165 q 364 134 378 146 q 334 110 350 122 q 303 88 318 97 q 200 31 253 54 q 108 0 147 7 q 94 -1 101 -1 q 74 -1 88 -1 q 28 7 50 -1 q -8 31 7 15 q -28 69 -22 47 q -26 117 -33 90 q -2 162 -21 136 q 40 213 17 188 q 89 258 64 238 q 133 289 114 279 l 160 304 l 149 313 q 117 352 129 328 q 113 406 104 376 q 122 428 115 419 q 141 453 129 439 q 167 481 153 467 q 194 510 181 496 q 221 532 208 524 q 281 570 247 551 q 356 607 314 589 q 402 624 376 617 q 456 638 428 632 m 465 571 l 449 549 q 438 533 442 540 q 433 525 433 526 q 438 529 433 524 q 448 542 442 535 q 459 556 454 549 q 465 565 464 563 l 465 571 m 471 543 q 482 557 478 550 q 488 567 486 564 q 467 546 488 571 q 458 535 464 543 q 450 521 451 526 q 450 518 447 518 l 471 543 m 496 529 q 501 539 499 535 q 506 544 504 543 q 502 542 506 546 q 494 532 499 539 q 488 524 492 529 q 485 517 485 518 q 488 519 486 517 q 491 524 489 521 q 496 529 493 526 m 226 513 q 244 526 238 519 q 249 532 251 532 q 238 525 247 532 q 217 509 229 518 q 193 490 206 500 q 174 471 181 479 q 154 448 163 457 q 147 439 146 439 q 156 447 149 439 q 175 465 164 454 q 201 490 186 476 q 226 513 215 504 m 260 514 q 276 528 279 528 l 275 526 q 274 526 274 526 q 272 525 274 525 q 244 508 261 519 q 215 483 226 496 q 190 458 190 458 q 210 474 193 458 l 260 514 m 240 461 q 258 476 251 469 q 267 483 265 482 q 262 479 268 483 q 247 469 256 475 q 232 457 239 463 q 224 447 225 451 q 240 461 226 447 m 67 217 q 79 231 81 231 q 63 217 76 231 q 24 179 43 200 q 0 146 4 158 q 3 150 0 147 q 6 154 4 153 q 11 158 8 156 q 67 217 40 196 m 81 208 q 101 229 101 225 q 86 218 101 231 q 58 192 71 206 q 35 167 46 181 q 24 150 24 154 l 43 169 q 60 189 50 178 q 81 208 71 200 z "},"F":{"ha":394,"x_min":18,"x_max":531,"o":"m 497 638 q 508 642 501 642 q 526 632 519 642 q 531 618 531 625 q 523 596 529 607 q 504 575 517 585 q 440 544 482 556 q 354 532 399 532 q 340 532 347 532 q 326 533 333 532 q 306 535 315 535 q 293 538 296 536 l 288 538 q 282 529 283 538 q 279 513 282 525 q 272 488 276 501 q 264 462 268 474 q 257 444 260 450 q 234 393 242 411 q 222 367 226 375 l 217 356 q 224 354 217 354 l 263 360 q 368 393 336 368 q 386 406 381 406 q 404 395 397 406 q 414 374 411 385 q 395 328 408 346 q 361 300 382 311 q 314 283 340 289 q 254 269 288 276 q 233 267 247 268 q 204 267 218 267 q 182 267 192 267 q 172 265 172 267 q 149 219 161 246 q 125 163 136 193 q 106 101 114 133 q 96 40 97 69 q 96 24 96 32 q 97 8 96 15 q 74 -1 93 -1 q 65 -1 69 -1 q 56 1 61 0 q 26 25 38 8 q 21 99 18 60 q 42 202 24 151 q 86 301 61 253 q 139 398 111 350 q 189 494 167 446 q 204 543 197 514 q 214 592 211 572 q 221 617 214 613 l 224 622 l 229 611 l 229 617 q 233 624 229 624 q 238 622 236 624 q 240 621 240 619 q 244 624 240 624 q 261 617 250 624 q 299 606 275 610 q 350 603 322 603 q 404 606 378 603 q 453 617 431 610 q 482 628 471 622 q 497 638 493 633 m 468 611 q 471 614 474 614 q 463 612 469 614 q 451 607 457 610 q 440 602 444 604 q 436 600 435 600 q 451 604 439 600 q 468 611 464 608 m 225 567 q 227 583 226 575 q 228 597 228 592 l 228 603 q 226 599 226 601 q 226 593 226 596 q 225 588 225 590 q 221 567 222 581 q 217 543 219 553 q 214 533 214 538 q 213 525 214 528 q 211 518 211 521 q 217 534 213 517 q 225 567 221 551 m 471 600 q 443 591 456 596 q 433 586 431 586 q 453 592 438 586 q 471 600 468 597 m 240 565 q 241 572 240 569 q 242 578 242 575 l 242 583 q 240 581 242 582 q 238 572 238 578 q 235 558 238 568 q 230 536 232 547 q 225 516 228 525 q 222 503 222 507 q 224 504 224 503 q 225 507 224 504 q 233 533 229 517 q 240 565 238 549 m 251 343 l 244 343 q 263 345 244 343 q 303 350 281 347 q 344 358 325 353 q 363 372 363 364 q 354 368 360 372 q 314 353 343 361 q 257 343 285 346 l 251 343 m 338 339 q 328 338 329 339 q 315 333 324 336 q 293 328 306 331 q 267 324 281 326 q 244 319 254 321 l 224 317 l 239 317 q 258 317 247 317 q 279 319 268 317 q 315 329 294 322 q 338 339 336 336 m 322 297 q 329 301 331 301 q 311 297 325 301 l 271 288 q 268 287 269 288 q 265 286 267 286 q 256 285 261 285 q 253 283 253 285 l 263 283 q 292 288 274 283 q 322 297 310 293 m 36 124 q 39 136 39 135 q 35 131 38 139 q 33 118 33 122 q 36 124 33 113 m 51 110 q 54 124 54 121 l 54 129 q 52 126 53 131 q 50 115 51 121 q 47 99 47 108 q 46 82 46 90 q 44 64 44 72 q 47 53 44 56 l 47 57 q 48 63 47 60 q 49 71 49 65 q 48 80 47 75 q 49 90 49 85 q 51 110 49 104 m 33 49 q 32 63 32 51 q 32 85 32 74 l 32 114 l 29 97 q 28 90 29 94 q 28 83 28 86 q 28 58 26 71 q 33 42 31 44 l 33 49 z "},"G":{"ha":426,"x_min":-25,"x_max":483,"o":"m 382 639 q 390 641 386 640 q 397 642 393 642 q 442 625 413 642 q 465 610 456 617 q 478 595 474 604 q 483 573 482 586 q 482 539 483 560 q 480 510 481 519 q 474 486 479 500 q 430 419 461 447 q 363 390 399 390 q 351 394 360 390 q 343 401 342 397 q 349 412 343 404 q 369 443 354 419 q 378 462 374 449 q 386 490 382 475 q 393 522 390 506 q 397 551 396 538 l 397 571 q 321 517 358 546 q 251 460 283 488 q 194 408 219 432 q 153 367 168 383 q 122 328 140 353 q 86 272 103 303 q 57 208 69 242 q 43 140 44 174 q 56 78 40 100 q 110 49 71 56 l 117 49 q 183 68 142 49 q 263 115 224 88 q 330 174 301 143 q 360 226 358 204 q 331 222 351 226 q 287 212 311 218 q 240 198 263 206 q 206 185 218 190 q 181 178 189 178 q 163 203 163 178 q 170 233 164 219 q 193 257 176 247 q 220 269 210 265 q 256 282 231 274 q 354 297 317 297 q 431 271 406 297 q 440 244 440 258 q 392 154 425 199 q 315 76 358 110 q 221 20 271 42 q 124 -1 171 -1 l 114 -1 q 58 15 83 0 q 13 53 32 29 q -15 109 -6 78 q -24 176 -25 140 q 26 327 -12 256 q 119 458 64 399 q 243 564 175 518 q 382 639 311 610 m 415 550 q 419 568 419 550 q 419 574 419 571 q 418 579 418 576 l 418 582 q 415 564 417 582 q 413 554 415 563 q 415 550 413 550 m 439 556 q 440 565 440 560 q 438 571 439 571 q 435 553 436 571 q 436 538 435 538 q 439 556 439 538 m 469 550 q 469 550 469 551 q 468 546 468 549 q 469 540 468 542 q 469 540 469 539 l 469 550 m 167 451 q 169 454 169 454 l 169 456 q 150 438 168 456 q 100 378 125 411 q 57 315 75 346 q 46 288 46 288 q 49 292 47 289 q 51 297 50 294 q 56 303 53 299 q 97 366 71 331 q 147 426 124 401 q 160 443 154 436 q 167 451 165 450 m 139 453 q 135 450 136 451 q 128 444 132 449 q 103 417 117 433 q 76 382 89 400 q 52 345 64 364 q 33 313 40 326 q 22 288 28 301 q 11 264 15 275 q 4 244 7 253 q 1 235 1 236 q 6 242 3 235 q 14 258 10 249 q 60 347 31 301 q 119 428 89 393 l 139 453 m 154 389 q 156 393 156 393 q 147 382 151 389 q 142 374 142 375 q 148 380 143 374 q 154 389 153 386 m 119 346 q 110 335 118 347 q 97 315 103 324 q 92 306 90 306 q 103 322 93 306 q 119 346 114 338 m 290 274 q 276 272 286 274 q 257 267 267 269 q 241 261 247 264 q 235 258 235 258 q 244 260 235 258 q 263 264 253 261 q 281 269 272 267 q 290 274 290 272 m 349 263 l 332 263 q 306 260 317 263 q 299 258 303 258 q 297 257 297 258 q 299 256 297 256 l 303 256 q 313 256 307 256 q 326 258 318 257 l 349 263 m 378 192 q 383 201 378 197 q 389 213 388 206 q 381 203 385 213 q 378 192 378 197 z "},"H":{"ha":526,"x_min":8,"x_max":592,"o":"m 196 635 q 211 636 200 636 q 228 635 219 636 q 243 632 238 635 q 268 618 254 626 q 285 604 282 610 q 292 586 289 599 q 296 565 296 574 q 285 525 294 551 q 260 467 275 499 l 224 394 q 217 381 221 389 q 211 367 214 374 q 204 350 207 358 q 213 351 207 350 q 225 353 218 351 q 331 368 278 368 q 390 361 363 368 q 400 360 394 360 q 406 364 403 360 q 422 394 408 368 q 450 450 435 419 q 478 507 465 481 q 493 540 490 533 q 500 558 496 546 q 507 583 504 569 q 513 608 510 596 q 517 626 515 619 q 529 640 519 640 q 544 639 538 640 q 558 634 554 636 q 572 622 561 632 q 581 612 578 618 q 588 601 585 606 q 590 574 592 589 q 540 431 569 501 q 481 292 510 361 q 431 151 453 222 q 404 6 408 79 q 390 1 401 3 q 368 -1 379 -1 l 360 -1 q 325 15 336 0 q 322 49 322 21 q 327 94 324 68 q 336 150 331 121 q 349 208 342 179 q 365 263 357 238 q 369 276 368 268 q 371 285 371 283 q 360 288 368 288 q 350 287 356 288 q 335 286 344 286 q 297 283 314 285 q 262 278 279 281 q 224 272 244 276 q 175 263 203 268 q 173 262 174 263 q 171 261 172 261 q 151 248 156 257 q 140 224 146 239 l 136 214 q 105 129 115 165 q 90 53 94 93 q 89 28 90 39 q 86 14 88 17 q 53 -1 81 -1 q 31 1 40 -1 q 18 11 21 4 q 31 158 8 85 q 86 303 53 232 q 155 446 119 375 q 206 583 190 517 q 205 604 206 599 q 200 617 204 610 q 193 632 193 631 q 196 635 193 635 m 231 554 q 234 565 233 558 q 235 574 235 571 q 229 563 233 574 q 228 553 228 560 q 226 547 228 550 q 231 554 226 547 m 250 550 q 250 557 250 557 q 249 556 250 556 q 246 553 246 553 q 242 542 244 550 q 236 528 239 535 q 232 515 233 521 q 231 508 231 508 q 234 513 231 508 q 240 526 238 518 q 247 540 243 533 q 250 550 250 547 m 528 517 q 532 531 529 519 q 533 540 533 536 q 528 533 532 540 q 518 506 525 525 q 505 478 513 496 q 489 444 497 460 q 476 415 482 426 q 471 403 471 404 q 480 418 472 403 q 497 453 488 433 q 516 491 507 472 q 528 517 525 510 m 488 482 q 490 488 489 485 q 492 493 492 492 q 488 486 488 493 l 481 475 q 479 471 479 472 l 479 469 q 481 474 479 471 q 483 478 482 476 q 488 482 485 479 m 365 49 q 366 62 365 56 q 367 74 367 68 l 367 83 q 360 53 364 83 l 360 46 q 360 35 360 40 q 361 25 361 31 l 365 11 l 365 49 m 53 56 q 52 68 51 63 q 53 76 53 74 l 53 82 q 51 81 51 82 q 50 75 50 79 q 49 60 49 71 q 48 38 47 49 q 50 25 49 26 q 53 31 50 22 q 52 38 53 33 q 51 50 51 43 l 53 56 m 344 54 l 343 81 l 339 47 q 340 32 339 35 l 344 28 l 344 54 m 31 51 l 31 57 q 29 60 31 58 l 29 54 q 31 50 25 50 l 31 51 z "},"I":{"ha":357,"x_min":-32,"x_max":438,"o":"m 69 506 q 105 574 71 547 q 184 616 139 601 q 277 636 229 631 q 357 642 325 642 l 365 642 q 391 641 378 642 q 415 636 404 640 q 431 624 425 632 q 436 599 438 615 q 418 508 435 565 q 374 383 401 450 q 308 249 346 317 q 229 125 271 181 q 142 35 188 69 q 51 0 96 0 q 7 10 28 0 q -32 35 -14 19 q -23 40 -31 38 q -5 43 -15 42 q 16 46 6 44 q 32 50 26 47 q 90 97 58 61 q 156 183 122 133 q 223 289 190 232 q 283 400 256 346 q 328 501 310 454 q 353 575 347 547 q 294 567 331 572 q 221 550 257 561 q 158 521 185 539 q 131 475 132 503 q 140 442 131 458 l 136 439 q 113 445 125 439 q 91 461 101 451 q 74 483 81 471 q 69 506 68 494 m 89 525 q 94 532 92 525 q 99 540 97 539 l 107 556 q 99 547 104 556 q 92 535 93 538 q 90 530 92 532 q 89 525 89 528 m 128 546 q 119 540 121 546 q 115 529 118 533 q 122 536 115 529 q 126 541 124 538 q 128 546 128 544 m 190 194 q 209 222 196 200 q 238 274 222 243 q 271 339 254 304 q 302 404 288 374 q 326 458 317 435 q 336 489 335 481 q 325 461 329 474 q 260 326 299 393 q 190 194 222 260 m 203 169 q 231 213 215 183 q 263 274 247 242 q 294 338 279 307 q 318 389 308 369 q 295 349 314 383 q 256 276 276 315 q 219 203 236 236 q 203 169 203 171 m 250 183 q 253 185 250 183 q 254 188 254 186 q 272 217 264 201 q 288 247 279 232 q 296 264 292 256 q 303 281 300 272 q 274 233 286 260 q 250 183 263 207 z "},"K":{"ha":539,"x_min":18,"x_max":601,"o":"m 147 640 q 150 641 149 640 q 153 642 151 642 q 187 633 171 642 q 215 612 203 625 q 233 581 226 599 q 239 547 240 564 q 219 461 236 499 q 183 379 203 424 l 194 376 q 208 371 201 374 q 222 365 215 368 q 276 438 243 392 q 347 528 308 483 q 426 606 385 574 q 504 639 467 639 q 545 628 526 639 q 576 599 564 617 q 595 559 589 581 q 600 517 601 538 q 585 463 599 499 q 550 392 571 428 q 506 328 529 356 q 461 301 482 301 q 444 305 454 301 q 425 314 435 308 q 408 326 415 319 q 401 340 401 333 q 422 369 401 347 q 465 421 442 392 q 509 483 489 450 q 531 547 529 517 q 526 577 532 558 q 506 596 521 596 q 461 581 485 596 q 413 540 438 565 q 363 485 388 515 q 318 424 339 454 q 281 369 297 394 q 254 328 264 343 q 283 266 269 299 q 314 206 297 233 q 349 142 328 182 q 401 67 369 101 q 426 47 413 56 q 457 36 440 38 q 467 35 460 36 q 474 31 474 35 q 465 17 474 22 q 446 8 457 11 q 424 3 435 4 q 408 1 414 1 q 340 29 371 1 q 284 96 310 57 q 238 176 258 135 q 203 244 218 218 q 138 138 165 190 q 124 108 132 126 q 107 69 115 89 q 92 33 99 49 q 83 13 86 17 q 60 -1 76 -1 q 33 13 42 -1 q 21 48 24 28 q 19 89 18 68 q 19 121 19 110 q 44 245 22 183 q 92 365 67 307 q 140 478 118 424 q 165 585 163 533 q 156 611 165 600 q 144 636 147 622 l 147 640 m 169 517 q 147 465 156 493 q 131 413 138 438 q 140 433 133 418 q 152 463 146 447 q 164 492 158 478 q 169 510 169 506 l 169 517 m 126 356 l 139 381 q 157 417 147 397 q 172 456 167 436 q 174 469 174 463 q 178 482 175 475 q 169 462 178 482 q 151 418 161 442 q 133 375 142 394 q 125 354 125 356 l 126 356 m 188 418 q 190 423 189 421 q 192 428 192 425 l 189 425 l 188 418 m 485 417 q 495 428 490 422 q 503 440 500 433 q 493 429 497 435 q 485 417 489 424 m 460 360 q 467 365 461 360 q 481 378 474 371 q 493 392 488 385 q 499 401 499 399 q 478 382 488 392 q 460 360 468 372 m 178 293 q 172 311 178 303 q 163 326 167 319 q 142 283 154 308 q 119 231 131 258 q 100 178 108 204 q 90 132 92 151 q 108 164 94 139 q 138 217 122 189 q 165 267 153 244 q 178 293 178 290 m 340 50 q 302 106 318 81 q 273 155 286 131 q 247 205 260 179 q 215 261 233 231 q 233 216 217 246 q 269 153 249 186 q 309 92 289 121 q 340 50 329 63 z "},"J":{"ha":360,"x_min":-140,"x_max":471,"o":"m 126 517 q 139 529 133 517 q 143 542 142 535 q 132 531 138 542 q 126 517 126 519 m 161 529 q 151 524 154 529 q 147 517 147 518 q 156 522 150 517 q 161 529 158 525 m 200 176 q 226 228 211 197 q 254 293 240 260 q 278 357 268 326 q 290 407 288 388 q 285 396 288 401 q 281 383 283 390 q 266 341 274 363 q 250 297 258 319 q 225 237 239 267 q 200 176 211 207 m 194 126 q 210 149 199 128 q 234 197 222 171 q 256 248 246 224 q 267 281 265 272 l 249 242 q 221 184 236 213 q 194 126 206 156 m 258 182 q 273 203 267 186 q 281 229 279 221 l 276 219 q 261 189 265 204 q 260 185 261 186 q 258 182 258 185 m 190 158 q 196 165 193 158 q 197 174 197 169 q 192 169 194 174 q 190 163 190 165 q 190 158 190 158 m 243 153 q 247 157 246 156 q 249 160 247 158 q 244 157 246 160 q 244 155 244 156 q 243 153 243 154 m 185 149 q 185 151 185 150 q 186 153 186 151 l 186 154 q 185 151 185 153 l 185 149 m 353 714 q 361 747 354 732 q 376 778 368 763 q 392 810 385 794 q 400 846 400 826 q 403 861 401 854 q 415 868 404 868 q 435 860 425 868 q 453 842 444 853 q 466 819 461 832 q 471 799 471 807 q 463 766 469 782 q 448 735 456 750 q 433 703 440 719 q 426 671 426 688 q 427 656 425 664 q 429 642 429 649 q 424 628 429 636 q 419 626 422 628 q 415 625 417 625 q 390 634 401 625 q 369 657 378 643 q 357 686 361 671 q 353 714 353 701 m 371 719 q 395 765 381 740 q 411 813 410 789 q 407 804 407 808 q 398 786 403 794 q 388 768 393 778 q 378 744 382 757 q 371 719 375 732 m 396 728 q 402 737 397 728 q 412 756 407 746 q 420 776 417 767 q 424 789 424 786 q 417 781 421 789 q 408 762 413 772 q 399 742 403 751 q 396 728 396 732 m 422 715 q 435 734 429 721 q 443 756 440 747 q 435 742 440 756 q 428 725 429 728 q 425 721 426 724 q 422 715 424 718 m 99 -74 q 58 -102 78 -93 q 15 -114 38 -111 q -33 -113 -10 -117 q -81 -94 -56 -110 q -132 -47 -117 -76 q -140 -32 -139 -36 q -136 -22 -140 -28 q -119 -28 -126 -12 q -74 -69 -106 -51 q -58 -77 -67 -74 q -46 -81 -50 -81 q -22 -78 -35 -81 q 3 -69 -8 -76 q 40 -40 19 -61 q 102 41 71 -8 q 162 147 133 90 q 215 263 190 203 q 261 377 240 322 q 297 476 282 432 q 321 547 313 521 q 265 536 290 540 q 219 522 239 532 q 185 494 199 513 q 164 440 171 475 q 126 461 144 443 q 108 500 107 479 q 136 556 110 535 q 198 588 163 576 q 271 603 233 600 q 333 607 308 607 q 358 606 344 607 q 381 600 371 604 q 398 588 392 596 q 404 565 404 579 q 390 482 403 532 q 354 373 376 432 q 303 250 332 314 q 240 126 274 186 q 171 13 207 65 q 99 -74 135 -39 z "},"L":{"ha":554,"x_min":-31,"x_max":571,"o":"m 86 169 q 129 204 108 169 q 173 292 150 239 q 223 405 196 344 q 285 518 250 465 q 367 606 321 571 q 474 640 413 640 q 544 613 518 640 q 568 540 571 585 q 556 485 567 513 q 528 434 546 457 q 485 397 510 411 q 429 383 460 383 q 419 384 426 383 q 405 386 413 385 q 392 390 397 388 q 386 396 386 392 q 392 400 386 400 q 436 428 417 408 q 469 471 456 447 q 491 522 483 494 q 500 574 499 549 q 499 586 500 581 q 493 592 499 592 q 408 558 446 592 q 342 476 371 524 q 294 376 314 428 q 264 292 275 325 q 249 258 261 282 q 225 210 238 235 q 203 167 213 186 q 193 149 193 149 q 301 89 242 113 q 424 65 360 65 q 470 72 449 65 q 511 96 492 79 q 515 99 514 97 q 521 99 515 100 q 525 94 521 99 q 526 92 526 93 q 509 51 525 68 q 469 22 493 33 q 419 6 446 11 q 372 0 393 0 q 309 10 339 0 q 251 34 279 19 q 196 65 224 49 q 139 94 168 82 q 81 59 117 75 q 17 43 46 43 q -17 55 -3 43 q -29 88 -31 67 q -17 126 -28 110 q 10 151 -7 142 q 47 165 26 161 q 86 169 67 169 m 158 219 q 206 324 186 272 q 251 429 226 376 q 274 470 263 453 q 296 503 285 488 q 319 534 307 518 q 347 571 332 550 q 268 468 297 518 q 215 349 239 418 q 188 283 203 315 q 158 219 172 251 m 276 450 q 313 498 296 474 q 349 543 329 522 q 361 556 356 550 q 372 569 367 563 q 358 558 365 563 q 344 547 351 553 q 333 536 340 544 q 319 518 326 528 q 306 499 313 508 q 297 486 300 490 l 279 456 q 278 453 279 453 q 278 451 278 453 l 276 450 m 515 554 q 516 560 515 556 q 514 564 517 564 l 510 547 l 510 539 q 504 519 510 525 q 513 535 510 521 q 515 554 515 549 m 531 539 q 531 544 531 540 q 529 549 531 549 q 524 532 526 542 q 521 515 521 522 q 522 512 521 513 q 522 510 522 511 q 527 524 524 514 q 531 539 531 535 m 357 517 q 360 522 360 519 l 356 517 l 349 508 l 357 517 m 553 517 q 554 518 553 517 l 554 521 q 555 523 554 522 q 556 525 556 524 q 554 526 556 525 q 553 522 553 525 l 553 517 m 175 207 q 189 229 181 213 q 206 265 197 246 q 221 300 214 283 q 228 324 228 317 q 200 267 214 296 q 175 207 186 239 m 215 214 q 223 226 218 218 q 232 244 228 235 q 240 263 236 254 q 243 276 243 272 q 237 267 240 275 q 232 256 233 258 q 222 236 228 246 q 215 214 215 226 m 63 119 q 58 121 63 121 q 32 116 47 121 q 15 96 17 111 q 22 92 15 92 q 31 95 24 92 q 44 103 38 99 q 57 113 51 108 q 63 119 63 117 m 422 51 q 403 53 413 51 q 383 54 393 54 q 376 53 381 54 q 369 53 372 53 q 375 51 372 51 l 382 51 q 399 50 390 50 q 418 50 408 50 q 424 50 419 50 q 428 51 428 50 l 422 51 m 400 36 q 344 43 372 43 q 353 40 346 42 q 368 38 360 39 q 383 35 376 36 q 393 35 390 35 q 397 35 394 35 q 400 36 400 35 m 358 14 q 356 13 357 14 l 354 13 q 358 14 357 13 m 368 13 q 367 11 367 11 l 368 13 z "},"M":{"ha":839,"x_min":-65,"x_max":896,"o":"m 390 626 q 399 638 392 636 q 413 640 406 640 q 456 617 440 640 q 478 558 471 594 q 486 479 485 522 q 487 397 488 436 q 486 325 486 357 q 490 281 486 293 q 526 341 504 306 q 575 414 547 376 q 635 488 603 451 q 701 553 667 525 q 769 600 735 582 q 839 618 804 618 q 854 617 844 618 q 874 614 864 617 q 890 606 883 611 q 896 593 896 601 q 885 569 894 582 q 869 550 876 557 q 758 343 800 460 q 710 115 715 226 q 709 92 710 107 q 711 63 708 78 q 719 36 714 47 q 738 25 725 25 q 760 34 749 25 q 786 43 772 43 q 793 42 790 43 l 797 38 q 787 24 796 31 q 767 11 778 17 q 744 2 756 6 q 726 -1 732 -1 q 672 12 692 -1 q 643 46 653 25 q 631 94 633 67 q 631 149 629 121 q 639 220 632 182 q 657 298 646 258 q 682 375 668 338 q 711 442 696 413 q 740 489 724 465 q 767 538 756 513 q 681 461 722 510 q 603 356 640 413 q 535 240 567 299 q 476 131 503 181 q 429 49 450 82 q 394 10 408 15 q 365 4 382 4 q 351 6 360 4 q 343 14 343 7 q 350 40 343 21 q 365 81 357 58 q 382 128 374 104 q 393 169 390 151 q 400 225 397 197 q 404 281 403 253 q 404 410 408 344 q 398 403 403 410 q 388 387 393 396 q 377 370 382 378 q 371 361 372 363 q 310 267 347 324 q 228 158 272 211 q 136 62 183 104 q 46 8 89 19 q 7 4 26 4 q -10 6 1 4 q -35 10 -22 7 q -56 19 -47 14 q -65 32 -65 25 q -56 38 -65 36 q -35 40 -47 39 q -10 44 -22 42 q 7 49 1 46 q 62 88 39 64 q 110 135 85 111 q 216 257 165 193 q 311 388 267 321 q 331 417 317 396 q 359 460 344 438 q 385 503 374 483 q 396 529 396 522 q 394 578 399 553 q 390 626 389 603 m 665 97 q 668 111 668 104 q 668 125 668 118 q 680 215 671 171 q 701 303 689 258 q 740 410 718 356 q 794 513 761 465 q 801 523 797 518 q 808 535 806 528 q 753 447 779 496 q 708 346 728 399 q 677 240 689 293 q 663 139 665 186 q 665 97 661 121 m 649 83 q 647 107 646 97 q 648 125 647 115 q 650 142 649 135 q 663 238 653 188 q 690 337 674 288 q 728 432 706 386 q 775 518 750 478 l 781 529 q 775 521 778 526 q 769 513 772 515 q 722 428 744 474 q 683 333 700 382 q 656 235 667 285 q 644 142 646 186 q 644 128 644 138 q 643 110 643 119 q 644 93 643 101 q 649 83 646 85 m 811 485 q 817 494 814 489 q 824 504 821 499 q 817 495 821 503 q 811 485 813 488 m 260 292 q 288 328 268 300 q 331 391 308 357 q 371 455 353 425 q 393 494 389 485 q 339 406 365 451 q 281 321 313 361 q 264 299 269 310 q 263 294 263 296 q 260 292 263 292 m 750 361 q 757 376 751 363 q 764 393 763 390 q 785 438 774 417 q 808 481 797 458 q 794 462 804 478 q 776 425 785 446 q 759 385 767 404 q 750 361 751 367 m 424 271 q 425 357 426 315 q 422 442 424 399 l 422 432 q 421 353 419 392 q 419 275 422 315 l 418 250 l 418 246 q 421 242 418 242 q 422 256 422 249 q 424 271 422 264 m 243 242 q 269 274 251 251 q 305 322 286 297 q 338 370 324 347 q 356 404 353 393 q 300 322 329 363 q 243 242 271 282 m 444 297 q 445 324 444 310 q 446 349 446 338 q 445 369 446 361 q 443 376 444 376 q 441 329 440 353 q 440 282 442 306 l 439 242 l 439 231 l 439 228 q 440 231 439 228 l 442 244 l 444 297 m 694 122 q 698 130 697 125 q 699 138 699 135 q 710 211 704 175 q 728 283 717 247 q 737 311 732 297 q 743 339 742 325 q 729 305 738 333 q 714 242 721 276 q 701 175 707 207 q 694 132 696 143 l 694 122 z "},"N":{"ha":522,"x_min":18,"x_max":604,"o":"m 506 633 q 515 640 507 640 q 543 633 528 640 q 572 616 558 626 q 595 592 586 606 q 604 565 604 579 q 589 515 603 544 q 557 452 575 485 q 520 388 539 419 q 492 332 501 356 q 444 220 467 276 q 407 106 421 164 q 402 72 404 90 q 396 38 400 53 q 383 12 392 22 q 358 1 375 1 q 340 4 351 1 q 319 38 329 8 q 299 112 308 68 q 281 207 289 156 q 265 306 272 258 q 253 391 258 354 q 244 442 247 428 q 204 358 229 407 q 156 256 179 308 q 114 152 132 203 q 94 67 96 101 q 95 44 94 56 q 94 22 96 32 q 87 6 93 13 q 65 0 81 0 q 36 7 46 0 q 22 26 26 14 q 18 52 18 38 q 19 82 18 67 q 48 210 22 146 q 103 335 74 274 q 157 452 132 396 q 185 557 182 508 q 182 581 185 574 q 175 593 179 589 q 166 600 171 597 q 158 611 161 603 q 163 615 160 614 q 168 615 165 615 q 222 607 196 615 q 267 579 247 599 q 297 523 285 563 q 319 438 310 483 q 333 349 328 392 q 340 281 338 306 q 345 242 343 261 q 350 203 347 222 q 353 190 351 200 q 357 181 354 181 q 378 251 365 214 q 408 326 392 289 q 440 400 424 364 q 474 465 457 436 q 503 525 489 492 q 519 589 517 558 q 515 613 521 606 q 506 633 510 619 m 538 540 q 546 567 546 553 q 541 553 543 560 q 538 540 539 547 m 397 207 q 402 216 399 208 q 409 233 406 224 q 416 249 413 242 q 419 258 419 257 q 470 376 443 319 q 531 489 497 432 q 545 513 539 501 q 556 540 551 525 q 466 378 508 461 q 397 207 424 296 m 181 469 q 185 476 182 469 q 192 492 189 483 q 198 508 196 500 q 200 519 200 517 l 200 524 q 196 516 199 524 q 190 499 193 508 q 185 481 188 490 q 181 469 182 472 m 190 439 q 205 469 196 450 q 214 499 214 489 q 214 501 214 501 q 213 500 213 501 q 208 490 211 499 q 201 472 206 482 q 194 451 197 461 q 190 439 192 442 m 557 481 q 563 490 560 482 q 568 500 567 497 q 561 491 565 497 q 557 481 557 485 m 290 375 q 287 417 292 394 q 278 460 282 440 q 275 473 275 467 q 272 486 275 479 q 269 489 269 489 l 269 488 q 271 461 268 476 q 276 435 274 446 q 281 410 279 422 q 286 385 283 397 l 289 375 q 290 372 289 372 l 290 375 m 229 443 q 239 471 238 457 q 233 457 236 464 q 229 443 231 450 m 267 413 q 256 471 267 442 q 257 460 256 468 q 260 442 258 451 q 264 423 263 432 q 267 413 265 414 m 468 419 q 474 428 469 419 q 478 440 478 438 q 472 430 475 435 q 468 419 469 425 m 450 383 q 458 396 453 386 q 464 411 463 406 q 456 397 461 404 q 450 383 451 390 m 447 375 q 449 379 449 376 l 446 378 l 444 372 l 447 375 m 426 324 q 432 336 429 325 q 435 350 435 347 q 426 324 429 338 m 394 244 q 396 251 394 247 q 399 260 399 257 q 396 253 397 257 q 394 244 394 249 m 389 228 q 392 234 392 231 q 393 240 392 238 q 389 228 389 238 m 61 31 q 53 74 60 53 q 53 65 53 72 q 54 50 53 58 q 56 35 56 42 q 60 29 57 29 l 61 31 z "},"O":{"ha":397,"x_min":-17,"x_max":443,"o":"m -15 164 q 13 282 -12 215 q 77 415 39 349 q 160 537 115 481 q 246 626 204 593 l 244 626 l 250 631 q 267 640 260 636 q 288 644 274 644 q 306 642 294 644 q 328 633 318 639 q 347 619 339 628 q 354 601 354 611 q 339 574 354 588 q 311 551 324 561 l 299 543 l 300 543 q 218 463 258 511 q 144 358 178 414 q 90 242 111 301 q 65 132 68 183 q 65 101 65 118 q 69 70 65 85 q 83 46 74 56 q 110 36 92 36 q 168 63 138 36 q 226 127 199 90 q 276 201 254 164 q 308 261 297 239 q 361 451 356 354 q 361 499 363 475 q 354 549 360 522 q 365 559 354 553 q 382 565 376 565 q 413 551 401 565 q 432 517 425 536 q 441 476 439 497 q 442 442 443 456 q 437 389 440 417 q 426 338 433 361 q 401 270 418 307 q 359 196 383 233 q 305 122 335 158 q 241 59 275 86 q 172 15 207 32 q 101 -1 136 -1 q 43 13 67 -1 q 6 51 19 28 q -12 105 -7 75 q -15 164 -17 135 m 210 524 q 221 538 224 538 q 210 528 218 538 q 190 506 201 519 q 168 478 179 493 q 149 453 157 464 q 113 401 129 428 q 99 372 97 375 q 103 379 100 372 q 114 397 107 386 q 159 462 133 428 q 210 524 185 496 m 69 324 q 75 342 75 335 q 69 332 75 343 q 58 306 64 321 q 46 276 51 290 q 40 260 40 263 q 50 283 40 257 q 62 306 57 294 q 69 324 67 318 m 367 247 q 368 251 368 251 q 367 250 368 250 q 364 247 364 247 q 363 243 363 246 l 363 242 q 367 247 364 242 z "},"P":{"ha":475,"x_min":-22,"x_max":575,"o":"m 200 636 q 207 640 200 639 q 215 640 214 640 q 271 615 250 640 q 289 556 292 589 q 285 528 289 542 q 278 501 281 515 q 324 542 299 519 q 376 585 349 565 q 433 619 404 606 q 492 633 463 633 q 551 608 528 633 q 572 547 575 583 q 531 428 563 489 q 451 321 499 367 q 344 253 403 275 q 222 253 285 232 q 201 265 217 256 q 186 283 186 275 q 205 293 189 290 q 228 297 221 296 q 317 336 272 307 q 399 403 361 365 q 463 487 436 442 q 503 575 490 532 q 499 587 504 582 q 488 592 494 592 q 437 569 468 592 q 374 518 406 547 q 313 461 342 489 q 271 421 285 433 l 188 346 q 144 269 167 307 q 101 194 121 232 q 67 115 82 156 q 50 32 53 75 q 43 8 47 15 q 21 1 39 1 q -16 17 -10 1 q -21 54 -22 32 q 6 198 -22 129 q 74 333 35 267 q 153 466 113 400 q 215 600 193 532 q 208 624 217 618 q 200 636 199 629 m 151 410 q 161 424 157 418 q 168 438 165 431 q 192 481 179 458 q 214 525 206 503 q 222 547 219 536 q 228 569 225 558 q 220 555 224 563 q 214 540 217 547 q 199 508 207 522 q 182 476 192 493 q 165 444 175 461 q 151 410 156 428 m 106 265 q 108 269 108 268 q 138 331 118 296 q 178 402 158 365 q 215 472 199 439 q 233 528 231 506 q 206 474 226 515 q 163 389 185 433 q 123 308 140 344 q 106 265 106 271 m 436 421 q 451 435 442 424 q 467 459 460 446 q 481 485 475 472 q 489 506 488 499 l 475 483 q 454 452 465 468 q 436 421 443 436 m 243 463 q 251 476 246 463 q 257 492 256 489 q 249 477 254 486 q 243 463 243 468 m 449 393 q 458 401 450 393 q 474 421 465 410 q 490 443 482 432 q 497 458 497 454 q 488 449 494 458 q 473 429 481 440 q 458 408 465 418 q 449 393 450 397 m 488 390 q 501 403 497 397 q 508 421 506 410 l 488 390 m 13 38 l 18 82 q 22 114 21 99 q 25 132 24 129 q 33 168 29 150 q 39 203 36 186 l 36 193 q 29 173 32 182 q 24 153 26 164 q 17 118 18 136 q 14 82 15 100 l 13 54 l 13 38 m -6 43 q 4 110 -1 79 q 11 159 8 136 q 17 189 14 182 q 7 161 11 179 q 0 122 3 143 q -5 82 -3 101 q -7 51 -7 63 q -6 43 -7 46 z "},"Q":{"ha":489,"x_min":19,"x_max":489,"o":"m 317 638 q 338 642 326 642 q 369 632 356 642 q 385 607 383 622 q 372 585 385 599 q 326 540 360 571 q 248 460 286 504 q 178 369 210 417 q 128 271 147 321 q 106 174 108 221 q 109 144 106 161 q 120 113 113 128 q 138 90 128 99 q 161 82 149 81 q 199 97 178 83 q 240 126 221 110 q 272 157 258 142 q 285 179 285 172 q 275 199 285 185 q 258 219 265 213 q 241 230 250 226 q 201 240 232 233 q 185 247 185 243 q 194 261 185 256 q 217 270 204 267 q 243 274 231 274 q 263 275 256 275 q 324 257 297 275 q 342 250 335 250 q 349 258 343 250 q 362 280 354 267 q 377 309 369 293 q 393 340 385 325 q 418 400 408 368 q 431 464 428 432 q 426 517 432 492 q 400 558 419 542 q 389 572 397 561 q 390 586 381 582 q 397 589 393 588 q 404 590 400 590 q 447 576 431 590 q 472 542 463 563 q 485 496 482 521 q 489 447 489 471 q 467 346 486 394 q 436 284 451 310 q 407 239 421 258 q 376 201 392 217 q 384 172 382 186 q 388 131 386 158 q 392 85 390 101 q 396 59 393 69 q 405 40 399 49 q 424 18 411 32 q 439 4 439 7 q 426 0 439 0 q 338 37 379 6 q 290 117 297 68 q 263 92 279 104 q 229 68 247 79 q 192 50 211 57 q 154 43 172 43 q 102 53 126 43 q 59 81 78 63 q 30 128 40 100 q 22 190 19 156 q 49 319 25 254 q 113 442 74 383 q 206 551 153 500 q 317 638 258 601 m 79 269 q 84 289 82 281 q 86 299 86 297 q 78 284 85 300 q 68 257 72 268 q 62 225 65 244 q 58 194 58 206 q 60 186 58 186 q 63 195 61 186 q 67 215 64 204 q 72 241 68 225 q 79 269 75 257 m 57 276 q 58 280 57 279 q 58 282 58 281 l 58 283 q 53 274 57 283 q 46 251 47 258 q 42 228 44 243 q 39 209 40 217 q 38 194 38 201 q 39 179 38 181 q 43 199 40 175 q 49 238 46 214 q 57 276 53 263 z "},"R":{"ha":551,"x_min":15,"x_max":614,"o":"m 218 638 q 273 609 253 638 q 290 547 293 581 q 274 483 288 513 q 251 419 260 453 q 261 429 257 424 q 269 440 265 435 q 322 499 292 465 q 386 562 353 532 q 453 613 419 592 q 517 633 488 633 q 557 624 539 633 q 588 600 575 615 q 607 565 600 585 q 613 525 614 546 q 579 433 610 476 q 505 352 549 389 q 412 289 461 315 q 321 250 363 263 q 334 197 325 232 q 358 126 343 161 q 392 64 372 90 q 438 38 413 38 q 447 40 443 38 q 458 42 451 42 q 417 10 438 18 q 367 1 397 1 q 310 33 335 1 q 268 108 285 65 q 244 196 251 151 q 238 265 236 240 q 247 293 239 285 q 274 307 256 301 q 347 347 301 315 q 434 417 392 378 q 508 499 476 457 q 542 571 540 540 q 539 585 543 583 q 524 588 535 588 q 490 581 507 588 q 458 563 472 574 q 319 438 385 504 q 203 301 253 372 q 122 155 153 229 q 88 8 92 81 q 81 0 88 3 q 64 -3 74 -3 q 38 3 51 -3 q 15 19 25 8 l 18 63 q 36 167 21 113 q 73 277 51 222 q 119 383 94 332 q 164 478 143 435 q 199 553 185 521 q 214 604 213 586 q 213 618 215 611 q 210 632 210 625 q 213 638 210 635 l 218 638 m 317 96 q 314 106 317 100 q 295 164 304 135 q 279 225 286 193 q 276 242 278 228 q 269 257 274 257 q 274 228 269 249 q 284 185 278 208 q 297 142 290 163 q 307 114 303 122 q 312 103 310 111 q 317 96 314 94 m 317 51 q 311 64 317 56 q 280 138 292 100 q 261 217 268 176 q 254 238 257 226 q 251 250 253 243 q 257 208 251 238 q 272 145 263 178 q 294 85 282 113 q 317 51 306 58 m 53 28 q 54 38 54 28 q 54 50 54 47 q 62 102 57 76 q 69 154 67 128 q 63 138 65 151 q 58 106 60 124 q 53 72 56 88 q 51 51 51 56 l 51 39 q 53 28 51 31 m 339 135 q 338 140 338 136 q 335 145 335 143 q 332 150 335 147 q 333 148 332 149 q 333 146 333 147 q 335 140 335 143 q 339 135 336 136 m 40 121 q 44 131 43 128 q 46 140 44 133 l 46 147 q 43 139 44 144 q 40 129 42 133 l 40 121 m 219 550 q 221 556 221 553 q 222 561 221 558 q 224 565 222 564 q 219 557 222 567 q 200 517 215 547 q 183 483 192 500 q 172 458 175 467 q 150 413 161 438 q 125 357 139 389 q 107 316 110 325 q 107 310 104 307 q 115 324 108 313 q 129 353 121 336 q 149 397 136 371 q 172 444 161 424 q 204 513 193 489 q 219 550 215 536 m 219 485 q 226 506 229 508 q 207 475 222 503 q 182 422 192 443 q 165 386 172 401 q 153 358 158 371 q 140 331 147 346 q 122 285 125 294 q 125 288 118 276 q 142 322 128 293 q 172 383 156 350 q 201 447 188 417 q 219 485 215 476 m 514 469 q 521 481 519 478 q 522 485 522 483 q 516 480 522 486 q 503 463 510 474 q 487 441 496 453 q 471 422 478 429 q 457 403 457 406 q 465 408 458 401 q 481 424 472 414 q 498 447 489 435 q 514 469 507 460 m 231 418 q 247 453 240 439 q 251 469 253 468 l 249 464 q 246 458 247 461 q 243 451 244 454 l 213 390 q 197 356 204 371 q 190 339 190 342 q 192 339 189 335 q 201 355 196 343 q 215 383 207 367 q 231 418 222 399 m 513 426 q 514 429 514 428 q 508 424 514 429 q 494 411 501 418 q 481 398 488 404 q 475 390 475 392 q 476 388 475 388 q 483 392 478 388 q 492 401 488 396 q 502 413 497 407 q 508 422 507 419 l 513 426 m 525 383 q 526 386 526 385 q 528 389 526 388 q 529 390 528 390 q 522 384 528 390 q 515 375 515 378 q 525 383 515 371 z "},"S":{"ha":372,"x_min":-31,"x_max":436,"o":"m 165 442 q 185 509 167 474 q 231 574 203 544 q 294 622 260 603 q 361 640 328 640 q 399 631 383 640 q 422 606 414 621 q 433 571 431 590 q 435 533 436 551 q 428 498 433 517 q 413 465 422 479 q 390 440 403 450 q 361 431 376 431 q 335 435 351 431 q 318 447 318 440 q 323 465 318 453 q 333 493 328 478 q 342 525 338 508 q 349 557 347 542 l 349 572 q 315 555 333 572 q 279 515 296 538 q 250 467 263 492 q 238 428 238 442 q 248 378 236 401 q 275 332 260 356 q 302 280 290 308 q 313 213 314 251 q 290 134 310 172 q 240 66 271 96 q 171 17 210 36 q 92 -1 132 -1 q 6 26 43 -1 q -28 107 -31 54 q -19 128 -28 119 q 2 141 -10 136 q 26 148 14 146 q 49 150 39 150 q 72 138 68 150 q 75 108 75 125 l 74 86 q 78 51 72 67 q 111 35 83 35 q 153 60 133 35 q 186 120 172 86 q 208 189 200 154 q 218 242 217 224 q 211 306 219 278 q 192 356 203 333 q 173 400 182 379 q 165 442 164 421 m 197 496 q 202 501 200 497 q 206 507 204 504 q 236 550 219 531 q 271 590 253 569 q 227 547 251 575 q 197 496 203 519 m 228 513 q 233 518 231 514 q 238 525 235 522 q 268 558 251 543 q 299 590 285 572 q 259 556 279 575 q 228 513 239 536 m 365 528 q 368 549 368 542 q 365 569 368 563 q 363 550 365 564 q 365 528 363 539 m 390 540 q 389 551 390 547 l 383 528 l 385 522 l 389 529 l 390 540 m 286 538 q 279 533 283 538 q 274 526 275 529 l 286 538 m 242 232 l 240 238 q 235 208 238 222 q 229 179 232 194 q 237 193 233 185 q 240 208 240 201 l 242 232 m 260 211 q 252 190 257 201 q 247 168 247 179 q 255 182 250 168 q 260 199 260 196 l 260 211 m 290 183 l 288 181 q 286 174 286 179 l 286 168 q 288 171 286 168 l 290 183 z "},"T":{"ha":267,"x_min":14,"x_max":560,"o":"m 113 590 q 195 599 154 590 q 278 616 236 607 q 361 633 319 625 q 444 642 403 642 q 486 638 465 642 q 524 623 507 633 q 550 596 540 613 q 557 554 560 579 q 542 521 557 536 q 535 526 538 521 q 531 537 533 531 q 525 549 529 543 q 511 560 521 556 q 490 563 507 563 q 467 563 472 563 q 440 563 458 563 q 403 561 422 563 q 366 558 383 560 q 342 554 349 557 q 329 537 340 554 q 306 499 318 519 q 283 460 293 478 q 271 438 272 442 q 217 348 246 397 q 163 246 189 299 q 117 140 136 193 q 93 43 99 88 q 92 24 92 33 q 92 4 92 14 l 86 0 l 69 -1 q 21 22 28 -1 q 19 83 14 46 q 49 195 25 135 q 107 317 74 256 q 177 435 140 378 q 244 538 214 492 l 233 538 q 194 534 214 538 q 154 531 174 531 q 87 555 115 531 q 63 621 58 579 q 85 601 75 613 q 113 590 94 590 m 236 465 q 247 480 238 467 q 265 507 256 493 q 283 533 275 521 q 289 544 290 544 q 280 533 288 544 q 263 509 272 522 q 246 483 254 496 q 236 465 238 469 m 243 508 q 255 523 247 510 q 265 540 263 536 q 253 526 261 539 q 243 508 244 514 m 290 494 q 306 518 301 506 q 290 494 296 507 m 203 415 q 219 438 207 422 q 232 458 231 454 q 226 453 231 458 q 217 440 222 447 q 208 425 213 432 q 203 415 204 418 m 35 44 q 38 78 36 61 q 40 113 40 96 q 35 96 38 104 q 31 79 33 88 q 35 44 31 58 m 51 44 q 57 74 57 56 q 60 96 60 85 q 61 113 61 107 q 56 93 57 101 q 51 76 54 85 l 51 44 z "},"U":{"ha":568,"x_min":15,"x_max":624,"o":"m 578 635 q 612 616 600 635 q 622 578 624 597 q 585 476 619 538 q 510 344 551 415 q 433 200 468 274 q 394 60 397 126 q 395 46 394 57 q 400 35 396 35 q 424 44 408 35 q 450 56 439 53 q 460 53 454 57 q 467 44 467 50 q 458 26 467 35 q 438 12 450 18 q 415 2 426 6 q 394 -1 403 -1 q 328 23 346 -1 q 313 93 310 47 q 332 188 315 142 q 364 282 349 235 q 328 246 350 271 q 282 190 307 221 q 230 125 257 158 q 177 65 203 92 q 128 19 151 38 q 89 1 106 1 q 18 74 15 1 q 51 208 22 142 q 113 335 79 274 q 174 456 146 397 q 206 571 203 515 q 204 592 206 585 q 199 606 203 600 q 190 616 196 611 q 175 629 183 621 q 188 638 182 635 q 203 640 194 640 q 246 631 225 640 q 282 606 267 622 q 306 569 297 590 q 313 526 314 549 q 294 450 311 492 q 255 363 278 408 q 205 272 232 318 q 154 182 178 225 q 115 101 131 139 q 97 35 99 64 q 128 64 101 35 q 194 137 156 93 q 278 233 233 181 q 362 334 322 286 q 431 418 401 382 q 468 467 460 454 q 516 550 496 507 q 561 633 536 593 l 578 635 m 565 549 l 531 483 l 535 485 q 541 496 536 488 q 551 513 546 504 q 561 530 557 522 q 565 540 565 538 l 565 549 m 194 438 q 213 474 201 453 q 225 510 224 494 l 225 513 q 221 506 224 513 q 218 499 218 500 q 213 485 217 494 q 206 466 210 476 q 198 447 201 456 q 194 438 194 439 m 554 450 q 572 477 563 463 q 585 507 582 492 q 579 499 583 507 q 569 481 575 490 q 560 462 564 471 q 554 450 556 453 m 168 336 q 185 365 174 346 q 209 406 197 385 q 230 445 221 426 q 239 475 239 464 l 239 476 q 236 474 236 476 l 218 438 q 192 387 206 413 q 168 336 179 361 m 226 346 q 237 363 231 351 q 250 389 243 375 q 263 415 257 403 q 268 432 268 426 q 268 435 268 435 q 267 433 267 435 q 265 429 267 431 l 243 388 q 233 367 240 383 q 226 346 226 351 m 160 378 q 175 404 168 388 q 167 392 172 400 q 160 378 161 383 m 147 356 l 139 343 l 139 340 l 146 347 l 147 356 m 351 60 q 358 106 357 82 q 363 153 358 129 q 355 122 360 138 q 349 92 350 107 q 349 76 349 83 q 351 60 349 68 m 331 51 q 333 66 332 56 q 334 89 333 76 q 334 113 335 101 q 333 128 333 124 q 327 90 326 110 q 331 51 328 69 m 33 53 q 39 78 39 60 q 40 104 39 96 q 44 122 44 113 q 43 125 44 125 l 40 115 q 35 84 36 100 q 33 53 35 68 m 54 54 q 57 63 56 56 q 60 81 58 71 q 64 101 63 92 q 65 113 65 110 l 65 114 q 62 108 64 114 q 58 94 60 101 q 56 81 57 88 q 54 74 54 74 l 54 54 m 385 68 q 382 74 385 74 l 382 61 l 385 68 z "},"V":{"ha":442,"x_min":19,"x_max":506,"o":"m 399 639 q 474 603 443 636 q 503 525 506 569 q 482 438 501 490 q 431 328 463 386 q 360 211 400 269 q 276 106 319 153 q 190 29 233 58 q 108 0 146 0 q 63 13 81 0 q 35 47 46 26 q 22 91 25 67 q 21 138 19 115 q 40 245 24 192 q 74 351 56 299 q 109 457 93 404 q 128 563 125 510 q 127 589 129 581 q 121 603 125 597 q 111 614 117 608 q 97 631 106 619 q 105 637 99 636 q 114 638 111 638 q 185 610 161 638 q 207 536 210 582 q 187 429 204 482 q 149 324 169 376 q 113 217 129 271 q 93 110 96 164 q 92 76 92 93 q 103 46 93 58 q 165 92 131 57 q 236 174 200 126 q 306 276 272 221 q 366 385 339 332 q 410 485 393 439 q 428 560 426 531 q 426 590 429 579 q 411 617 422 601 q 402 626 408 619 q 399 639 396 633 m 110 417 q 119 434 114 419 q 128 467 124 449 q 137 501 133 485 q 140 524 140 518 l 140 529 q 142 532 140 531 q 139 529 140 532 q 138 524 138 526 q 123 470 131 497 q 110 417 115 443 m 375 367 q 409 430 390 392 q 432 494 428 468 q 424 480 429 493 q 418 464 419 467 l 375 367 m 440 454 l 383 338 q 397 358 388 343 q 415 391 406 374 q 432 424 425 408 q 439 447 439 440 l 440 454 m 167 417 q 172 431 169 424 q 175 444 175 438 q 171 431 172 438 q 167 417 169 424 m 438 369 q 441 376 438 369 q 448 389 444 382 q 455 403 451 396 q 458 413 458 410 q 447 390 456 407 q 438 369 439 374 m 92 361 q 92 367 94 364 l 90 364 l 92 361 m 81 263 q 86 276 85 269 q 88 289 88 282 q 83 276 85 282 q 81 263 82 269 m 56 86 l 54 94 l 57 158 q 52 130 54 144 q 51 101 50 115 l 54 88 l 56 83 l 56 86 m 38 76 q 37 107 38 92 q 35 138 36 122 q 34 107 33 122 q 38 76 35 92 m 151 472 q 154 485 154 481 l 154 489 q 151 485 153 490 q 140 451 149 479 q 131 421 138 439 q 119 389 125 403 q 100 331 108 360 q 93 300 92 301 q 94 306 93 301 q 100 319 97 314 q 109 351 101 328 q 126 397 117 374 q 143 443 136 421 q 151 472 150 465 z "},"W":{"ha":731,"x_min":14,"x_max":793,"o":"m 83 632 q 100 638 90 638 q 156 617 135 638 q 188 568 176 597 q 201 506 199 539 q 203 446 204 472 q 175 274 199 356 q 122 106 151 192 q 282 289 214 185 q 406 497 350 393 q 406 622 407 560 q 435 632 419 632 q 470 619 457 632 q 491 587 483 606 q 501 547 499 568 q 503 507 503 525 q 488 395 500 450 q 460 286 475 340 q 434 180 446 232 q 419 78 422 128 q 419 65 419 74 q 421 53 418 57 q 524 155 472 97 q 617 277 575 213 q 685 411 658 342 q 715 551 711 481 q 713 596 717 574 q 711 639 710 618 l 711 640 q 778 589 764 622 q 790 503 793 556 q 772 412 789 464 q 726 304 754 360 q 660 194 697 249 q 581 97 622 139 q 494 28 539 54 q 408 1 450 1 q 373 14 385 1 q 356 44 361 26 q 349 84 350 63 q 350 122 349 106 q 369 244 353 185 q 392 365 385 303 q 351 312 376 346 q 295 237 326 278 q 229 154 264 196 q 161 78 194 113 q 98 22 128 43 q 46 0 68 0 q 25 4 36 0 q 14 19 14 8 q 24 70 15 43 q 42 125 32 97 q 63 180 53 153 q 78 232 72 207 q 101 353 90 293 q 115 476 113 414 q 110 557 118 524 q 83 632 101 590 m 117 332 q 124 358 121 342 q 129 391 126 374 q 133 425 132 408 q 136 453 135 442 l 135 471 q 135 475 135 475 q 133 472 133 475 l 129 444 q 122 388 126 417 q 117 332 118 360 m 135 319 q 147 370 142 344 q 153 421 151 396 l 154 431 q 151 426 151 431 q 140 374 143 403 q 135 319 138 344 m 653 303 q 669 335 658 315 q 690 376 679 356 q 708 417 700 397 q 717 451 715 438 q 711 443 713 449 q 708 435 710 438 q 681 369 696 401 q 653 303 665 336 m 438 419 q 435 385 436 401 q 431 350 433 368 l 432 346 l 444 417 l 438 419 m 474 386 q 476 397 475 392 q 478 408 478 403 q 478 417 478 411 q 478 422 479 422 q 476 417 476 422 q 475 411 475 413 l 472 392 l 472 389 q 474 386 472 386 m 178 356 q 181 365 179 356 q 183 378 183 375 l 186 403 q 178 361 179 382 l 178 356 m 411 365 q 417 381 414 372 q 417 399 419 390 q 411 365 411 383 m 689 322 q 711 366 700 340 q 725 411 722 392 q 714 388 722 407 q 695 349 706 369 q 676 310 685 328 q 668 290 668 293 l 689 322 m 732 340 q 742 356 739 347 q 747 374 744 365 l 732 340 z "},"X":{"ha":561,"x_min":17,"x_max":576,"o":"m 196 621 q 201 628 196 625 q 212 631 206 631 q 225 632 218 632 q 235 632 232 632 q 282 619 265 632 q 306 588 299 607 q 316 544 314 568 q 319 494 318 519 q 322 447 319 469 q 336 410 325 425 q 388 447 357 424 q 450 497 419 469 q 502 552 481 524 q 525 608 524 581 q 524 624 526 617 q 519 640 521 632 q 565 615 553 639 q 575 561 576 592 q 544 490 572 525 q 479 422 517 454 q 403 362 442 390 q 342 310 364 333 q 377 172 357 233 q 442 47 397 110 q 448 37 444 44 q 450 25 451 29 q 439 8 450 15 q 421 0 428 0 q 369 31 393 0 q 326 102 344 61 q 294 183 307 143 q 275 243 281 224 q 274 247 275 244 q 268 253 271 253 q 235 234 258 253 q 188 190 213 215 q 140 141 163 165 q 111 107 118 117 q 97 81 104 97 q 83 47 89 64 q 72 17 76 31 q 65 3 67 4 q 58 0 63 1 q 51 -1 54 -1 q 24 17 32 -1 q 17 50 17 35 q 37 118 18 83 q 81 185 56 153 q 137 245 107 217 q 192 295 167 274 q 235 331 218 317 q 253 347 253 344 q 241 465 246 406 q 221 581 236 525 q 206 600 218 592 q 196 621 194 608 m 260 450 q 249 550 260 499 q 244 569 249 561 l 243 571 q 244 547 243 564 q 249 509 246 529 q 256 472 253 489 q 260 450 258 456 m 478 503 q 499 524 489 514 q 515 549 508 533 q 498 525 508 536 q 478 503 488 514 m 307 519 l 306 517 l 306 513 q 307 514 307 513 l 307 519 m 313 461 q 312 474 313 468 q 310 488 311 481 l 308 510 l 308 490 l 310 465 q 311 461 311 463 q 313 458 311 458 l 313 461 m 517 517 q 508 511 514 517 q 500 503 503 506 q 475 479 489 492 q 451 454 461 467 q 465 463 456 454 q 484 481 474 471 q 504 502 494 492 q 517 517 514 513 m 515 475 q 509 470 513 475 q 504 463 506 465 q 515 475 507 467 m 264 407 q 263 403 263 407 q 264 400 263 400 l 264 407 m 44 56 q 49 68 46 56 q 54 85 53 81 q 48 71 51 78 q 44 57 44 64 l 44 56 m 385 65 q 378 76 383 68 q 369 83 372 83 l 369 82 q 376 71 369 81 q 386 58 383 61 l 385 65 m 31 63 l 31 67 l 29 64 l 29 63 q 31 61 29 61 l 31 63 m 371 56 l 372 50 l 378 47 l 371 56 m 276 517 q 272 533 274 525 q 269 544 271 542 l 268 551 l 268 543 q 270 517 268 540 q 275 467 272 494 q 281 416 278 440 q 285 386 283 392 q 288 380 288 379 q 286 392 288 381 q 281 465 283 426 q 276 517 278 503 z "},"Y":{"ha":461,"x_min":-50,"x_max":581,"o":"m 8 10 q -14 20 -6 14 q -29 36 -22 26 q -46 86 -50 58 q -33 110 -47 97 q -7 124 -18 124 q 8 113 6 126 q 12 101 10 108 q 19 86 14 93 q 51 45 31 64 q 93 26 72 26 q 143 44 115 26 q 199 88 171 61 q 255 147 228 114 q 303 212 282 179 q 339 273 325 244 q 356 319 353 301 l 354 321 q 335 302 354 321 q 290 260 315 283 q 238 219 264 238 q 197 200 211 200 q 151 210 174 200 q 132 249 129 221 q 153 331 136 290 q 191 411 171 371 q 228 494 211 451 q 251 582 246 536 q 251 605 253 594 q 251 623 250 615 q 260 635 253 631 q 285 640 267 640 q 335 615 319 640 q 347 558 350 589 q 324 472 342 514 q 285 390 307 431 q 242 310 264 350 q 207 229 221 271 q 260 266 231 240 q 320 322 290 292 q 376 384 350 353 q 418 436 401 415 q 447 482 435 457 q 469 533 458 507 q 492 584 481 558 q 519 632 504 610 l 532 639 q 546 642 540 642 q 563 640 554 642 q 575 632 571 638 q 578 624 576 629 q 581 617 581 619 q 568 576 578 600 q 545 526 558 551 q 519 477 532 501 q 499 436 507 453 q 431 297 469 372 q 340 155 392 221 q 224 44 289 89 q 79 -1 158 -1 q 45 1 64 -1 q 8 10 26 3 m 268 538 q 274 572 272 557 q 272 578 275 588 q 269 563 272 575 q 261 536 265 551 q 228 446 246 488 q 183 351 211 404 q 176 338 181 347 q 167 316 172 328 q 158 293 163 304 q 151 276 153 282 q 145 253 146 263 q 147 240 144 243 q 149 247 149 239 q 167 303 151 264 q 207 392 182 343 q 245 473 232 440 q 268 538 258 506 m 292 553 l 289 547 q 285 533 286 539 q 258 460 275 503 q 221 376 240 417 q 183 300 197 332 q 167 257 169 268 q 165 242 163 242 q 171 258 168 243 q 190 306 176 276 q 225 379 204 336 q 269 471 254 436 q 290 533 283 506 l 292 553 m 322 518 l 322 521 q 319 517 319 521 q 313 496 319 513 q 298 458 307 479 q 278 413 289 436 q 260 374 268 390 q 254 362 257 367 q 250 354 251 357 q 247 347 247 350 q 252 356 247 347 q 264 378 257 365 q 278 408 271 392 q 293 438 286 424 q 312 483 304 465 q 322 513 319 501 l 322 518 m 463 456 q 447 421 456 438 q 431 386 439 404 l 432 388 q 449 419 440 403 q 464 451 457 435 l 463 456 m 514 586 q 524 603 521 594 q 532 622 526 613 q 514 586 518 607 m 471 510 q 478 525 472 510 q 486 546 483 540 q 476 528 482 539 q 471 510 471 517 m 194 232 q 201 245 197 233 q 204 260 204 257 l 206 261 q 200 249 204 261 q 194 232 196 236 m -32 75 l -33 83 l -33 82 q -33 72 -35 79 q -29 64 -31 64 q -32 74 -29 63 l -32 75 m -15 86 q -16 90 -15 89 q -17 88 -17 90 l -17 82 l -15 86 q -17 90 -15 90 l -17 88 l -17 82 q -15 83 -17 79 l -15 86 m 547 624 q 549 626 549 624 q 550 631 550 629 l 549 631 q 548 628 549 629 q 547 625 547 626 l 547 624 z "},"Z":{"ha":504,"x_min":-33,"x_max":563,"o":"m 424 642 q 466 640 442 642 q 512 630 490 638 q 548 607 533 622 q 561 567 563 592 q 542 517 560 544 q 499 463 524 490 q 449 412 474 436 q 408 372 424 388 q 452 368 431 372 q 491 354 474 364 q 518 327 508 344 q 526 283 528 310 q 526 274 526 279 q 519 265 525 268 q 506 275 511 268 q 465 291 483 289 q 422 293 447 293 l 415 293 q 365 292 390 293 q 314 290 340 292 q 190 195 251 244 q 71 93 128 146 l 68 86 q 257 103 160 103 q 322 101 289 103 q 382 89 354 99 q 431 59 410 79 q 461 4 451 39 l 456 3 q 417 13 440 3 q 374 24 393 22 q 315 28 344 26 q 257 29 286 29 q 141 22 199 29 q 25 15 83 15 q -13 22 7 15 q -32 53 -33 29 q -15 91 -31 68 q 26 140 1 114 q 78 192 50 165 q 129 240 106 218 q 169 275 153 261 q 185 290 185 289 q 183 293 188 293 q 157 301 171 299 q 131 307 143 303 q 82 382 79 326 q 83 394 82 390 q 148 374 115 376 q 217 371 181 371 l 286 371 q 335 410 301 381 q 406 471 369 439 q 472 533 442 503 q 507 575 501 563 q 432 579 469 579 q 367 574 410 579 q 279 569 324 569 q 231 572 254 569 q 191 582 208 575 q 164 601 174 589 q 156 631 154 613 q 160 635 156 635 q 291 638 225 635 q 424 642 357 642 m 439 483 q 433 479 438 483 q 425 470 429 475 q 417 461 421 465 q 414 457 414 457 l 439 483 m 317 372 q 364 411 340 392 q 408 454 388 431 q 364 417 385 439 q 319 379 343 396 l 317 372 m 214 288 q 100 195 156 243 q 0 86 44 147 q 103 190 53 142 q 214 288 154 239 m 247 290 q 191 247 229 278 q 113 183 153 217 q 41 117 74 149 q 1 69 8 86 q 12 78 7 72 q 19 88 17 83 q 130 194 71 146 q 247 290 189 242 m 293 289 q 272 276 290 289 q 227 242 253 263 q 171 196 201 221 q 114 148 140 171 q 68 107 88 125 q 44 83 49 89 q 66 99 49 85 q 108 133 83 113 q 162 178 133 154 q 217 225 190 203 q 264 265 243 247 q 293 289 285 282 z "},"a":{"ha":406,"x_min":-19,"x_max":439,"o":"m 40 281 q 77 340 53 307 q 133 403 101 374 q 199 453 164 433 q 268 474 235 474 q 317 459 293 475 q 361 407 342 443 l 364 408 q 365 415 364 414 l 371 436 q 374 446 374 439 q 378 462 376 454 q 386 469 379 469 q 418 458 401 469 q 438 432 435 447 q 434 398 439 419 q 419 351 429 376 q 395 296 408 325 q 368 239 382 267 q 340 179 354 210 q 316 121 326 149 q 299 69 306 93 q 296 29 293 46 q 307 18 293 18 q 324 24 315 18 q 333 28 328 26 q 342 31 339 31 q 343 29 342 29 q 344 28 344 29 q 346 28 344 28 q 327 9 343 17 q 299 1 311 1 q 250 11 275 1 q 219 47 225 21 q 222 88 218 67 q 232 150 226 108 q 199 115 222 139 q 150 65 176 90 q 100 21 124 40 q 65 1 76 1 q 10 24 31 1 q -17 79 -11 47 q -15 128 -19 100 q -2 183 -11 156 q 18 237 7 211 q 40 281 29 263 m 324 392 q 316 417 324 401 q 293 432 308 432 q 249 410 274 432 q 199 352 225 388 q 151 274 174 317 q 110 188 128 231 q 84 109 93 146 q 79 50 75 72 q 100 60 81 43 q 148 108 119 76 q 208 180 176 139 q 266 261 239 221 q 310 336 293 301 q 324 392 326 371 m 364 386 q 370 394 367 386 q 376 413 374 403 q 381 434 379 424 q 382 449 382 444 q 378 444 379 449 q 378 438 378 439 q 371 411 375 424 q 364 386 367 399 m 372 361 q 388 390 379 376 q 397 422 396 404 l 394 422 q 383 392 390 407 q 372 361 376 376 m 399 342 q 406 356 401 347 q 415 376 411 365 q 422 396 419 386 q 425 411 425 406 l 424 411 l 419 401 q 409 372 414 386 q 399 342 404 357 m 0 60 q 1 69 1 61 q 0 79 0 78 q 2 110 -1 94 q 3 142 6 126 l 1 143 q 0 140 0 143 q 0 135 0 136 q -5 108 -3 122 q -4 79 -7 94 q 0 60 -4 69 m 17 64 q 19 76 18 65 q 22 101 21 88 q 24 127 24 115 q 25 142 25 139 q 17 108 21 125 q 15 72 13 90 l 17 64 m 233 42 q 235 65 235 46 q 235 90 235 83 l 229 50 l 233 42 m 49 58 l 47 71 l 47 56 l 46 54 l 49 58 m 251 43 q 255 48 254 43 q 254 54 256 53 l 254 67 l 254 69 q 251 57 251 69 q 251 43 251 44 m 285 40 l 285 38 l 288 35 l 285 40 m 93 324 q 101 330 96 324 q 106 338 107 336 q 128 361 115 350 q 147 383 140 372 l 147 386 q 143 384 146 386 q 140 381 140 382 q 119 363 129 372 q 101 340 108 354 q 98 333 100 338 q 93 324 96 329 m 115 317 q 124 324 117 317 q 142 341 132 332 q 159 358 151 350 q 169 368 167 367 q 141 348 156 358 q 117 324 126 338 l 115 317 m 138 292 l 143 301 l 135 290 l 135 289 l 138 292 z "},"b":{"ha":479,"x_min":-12,"x_max":618,"o":"m -12 28 q 15 149 -12 71 q 86 317 42 226 q 187 502 131 408 q 303 672 243 596 q 422 797 364 749 q 528 846 481 846 q 558 842 542 846 q 588 830 574 838 q 610 810 601 822 q 618 781 618 797 q 576 687 618 736 q 475 592 533 638 q 356 510 417 547 q 258 454 296 474 q 217 387 235 424 q 183 317 200 350 q 194 324 186 315 l 201 331 q 242 372 219 349 q 291 417 265 396 q 344 452 317 438 q 401 467 372 467 q 468 442 446 467 q 490 374 490 418 q 460 254 490 319 q 381 131 429 189 q 272 35 332 74 q 156 -3 213 -3 q 109 5 136 -3 q 71 29 82 13 q 90 37 75 33 q 125 44 106 40 q 163 51 144 47 q 190 60 181 56 q 260 117 221 72 q 335 215 300 161 q 393 324 369 269 q 417 411 417 378 q 416 427 417 418 q 404 436 415 436 q 353 417 383 436 q 291 367 324 397 q 225 299 258 336 q 163 224 192 261 q 113 156 135 188 q 83 107 92 125 q 61 56 71 82 q 39 6 51 31 q 2 8 17 3 q -12 28 -12 14 m 585 788 q 576 803 585 796 q 558 811 567 811 q 510 793 536 811 q 456 746 483 775 q 402 681 429 717 q 352 611 375 646 q 311 546 329 576 q 283 497 293 515 q 368 547 317 515 q 467 619 419 579 q 550 702 515 658 q 585 788 585 746 m 197 449 q 212 465 204 453 q 224 485 219 478 q 289 589 256 539 q 358 690 322 639 q 365 703 364 699 q 197 449 271 582 m 260 585 q 265 592 261 588 q 268 599 268 596 l 267 599 q 262 593 264 599 q 260 585 260 588 m 271 510 q 281 524 274 510 q 290 540 289 538 l 306 565 q 288 540 297 553 q 272 513 279 526 q 271 510 272 511 m 258 488 q 265 497 261 493 q 271 508 268 501 l 258 488 m 167 315 q 169 319 165 315 l 174 328 l 183 346 q 206 390 194 368 q 229 433 218 411 q 198 377 214 406 q 168 319 182 349 q 167 315 168 315 m 165 385 q 149 363 160 382 q 126 316 139 343 q 99 257 113 289 q 72 195 85 225 q 50 142 60 165 q 38 111 40 119 q 48 131 39 113 q 70 178 57 150 q 99 240 83 207 q 129 303 115 274 q 153 356 143 333 q 165 385 163 378 m 406 301 q 422 338 414 317 q 429 376 429 360 q 426 372 426 376 q 425 365 425 367 q 414 333 422 350 q 406 301 406 315 m 408 265 q 444 351 436 307 q 436 334 442 346 q 425 308 431 322 q 415 283 419 294 q 408 265 410 271 m 135 251 q 149 276 142 263 q 158 301 156 289 q 135 251 143 276 m 450 276 q 460 294 456 285 q 467 315 465 304 q 454 300 456 313 q 450 276 453 288 m 239 557 q 244 566 242 561 q 249 574 246 571 q 253 581 251 578 q 240 564 250 581 q 217 526 229 547 q 176 456 193 485 q 145 402 158 426 q 121 356 132 378 q 97 308 110 333 q 70 248 85 282 q 42 181 56 214 q 19 118 29 147 q 4 72 8 89 q 1 57 3 64 q 0 49 0 50 l 0 46 q 6 61 3 46 q 26 126 13 88 q 56 204 39 164 q 78 255 65 226 q 103 311 90 283 q 129 364 117 339 q 151 406 142 389 q 171 440 158 418 q 197 485 183 463 q 222 528 210 508 q 239 557 233 549 z "},"c":{"ha":325,"x_min":-26,"x_max":360,"o":"m -26 104 q 2 210 -26 147 q 74 333 31 274 q 169 434 118 392 q 268 476 221 476 q 331 453 303 476 q 360 393 360 429 q 351 360 360 379 q 331 322 343 340 q 302 290 318 303 q 272 276 286 276 q 252 281 261 276 q 233 292 243 285 q 262 347 247 315 q 276 404 276 379 q 275 407 276 407 q 232 388 257 407 q 181 338 207 368 q 128 269 154 307 q 83 194 103 231 q 50 126 63 157 q 38 76 38 94 q 46 40 38 57 q 78 24 54 24 q 118 35 94 24 q 167 63 142 47 q 215 96 192 79 q 254 121 239 113 q 279 111 274 128 l 279 110 q 253 74 279 93 q 194 38 228 54 q 126 11 160 22 q 75 0 92 0 q -2 28 22 0 q -26 104 -26 56 m 297 419 q 296 417 296 419 l 296 414 l 297 415 l 297 419 m 279 350 q 288 372 285 361 q 293 393 290 382 l 292 394 q 285 378 289 394 q 278 351 281 361 l 279 350 m 288 336 q 301 359 294 347 q 308 383 308 371 q 304 378 304 383 l 288 336 m 1 93 q 22 172 7 136 q 58 239 38 207 q 102 302 78 271 q 150 368 126 333 q 102 310 128 343 q 54 242 76 278 q 17 169 32 207 q 1 99 1 132 l 1 93 m 86 324 q 95 333 90 328 q 103 343 100 338 l 86 324 m 60 288 q 72 306 71 296 l 60 288 m -12 93 q 9 192 -14 142 q 57 283 32 243 q 8 195 32 240 q -15 99 -15 150 q -14 81 -15 85 q -12 74 -14 76 l -12 93 m 40 149 l 28 108 q 35 126 31 111 q 40 144 40 142 l 40 149 m 26 99 q 25 97 25 99 l 25 96 l 26 93 l 26 99 z "},"d":{"ha":460,"x_min":-6,"x_max":628,"o":"m 592 846 q 617 825 611 846 q 625 788 624 804 q 608 680 628 740 q 557 553 589 619 q 488 419 525 488 q 418 285 450 350 q 366 164 386 221 q 349 64 346 107 q 353 39 350 53 q 371 25 356 25 q 394 33 381 25 q 420 52 407 42 q 444 72 433 63 q 460 81 454 81 q 467 72 467 81 q 458 49 468 61 q 432 25 447 36 q 400 6 417 14 q 372 -1 383 -1 q 310 24 335 -1 q 282 85 285 49 q 285 126 279 106 q 289 164 290 146 l 288 165 q 258 139 282 165 q 203 81 233 113 q 144 24 174 50 q 99 -3 115 -3 q 65 3 82 -3 q 33 22 47 10 q 10 49 19 33 q 0 82 0 64 q 24 219 -6 150 q 103 342 53 288 q 219 431 154 397 q 350 465 283 465 q 374 464 363 465 q 399 461 386 463 q 422 485 406 460 q 456 550 438 511 q 495 636 475 589 q 533 726 515 683 q 562 802 550 769 q 575 844 574 835 l 592 846 m 314 247 q 327 282 317 256 q 349 337 338 308 q 371 389 361 365 q 381 414 381 413 l 381 417 q 276 371 331 410 q 176 278 221 332 q 104 161 132 224 q 81 47 76 99 l 81 43 q 82 38 81 39 l 83 38 q 105 51 88 38 q 145 86 122 65 q 194 133 168 107 q 245 181 221 158 q 288 222 269 204 q 314 247 307 240 m 339 272 q 362 316 343 279 q 405 403 381 353 q 456 513 429 454 q 507 622 483 571 q 547 711 531 674 q 565 757 563 749 q 571 772 567 764 q 575 786 575 779 q 519 656 550 719 q 457 530 489 593 q 394 403 425 467 q 338 274 363 340 l 335 272 l 339 272 m 374 304 q 395 342 378 310 q 435 418 413 374 q 482 513 457 463 q 528 606 507 563 q 563 680 549 650 q 576 714 576 710 q 558 681 574 710 q 522 612 543 653 q 478 522 501 571 q 433 428 454 472 q 395 351 411 385 q 374 304 379 317 m 457 390 q 473 418 461 396 q 500 469 485 440 q 531 533 515 499 q 562 596 547 567 q 586 647 576 625 q 597 675 596 669 q 585 653 596 674 q 560 603 575 633 q 527 538 544 574 q 494 470 510 501 q 469 417 479 439 q 457 390 458 394 m 438 349 q 433 345 435 349 q 433 340 432 342 q 435 343 436 340 q 438 349 435 346 m 424 324 q 428 329 425 325 q 431 336 431 333 q 426 330 428 333 q 424 324 424 326 m 415 301 l 419 313 q 417 307 419 311 q 415 301 414 303 m 375 207 q 376 210 375 208 q 379 213 379 213 l 393 246 q 401 265 399 256 q 407 286 404 275 q 399 270 404 282 q 389 246 394 258 q 379 222 383 233 q 375 207 375 211 m 13 133 q 34 192 24 163 q 56 253 44 222 q 26 197 38 233 q 13 133 15 160 m 38 154 q 60 198 50 175 q 81 243 69 221 q 53 201 63 224 q 38 154 44 179 m 315 126 q 319 139 317 128 q 324 153 322 150 q 328 168 325 156 q 336 194 332 181 q 344 218 340 207 q 347 231 347 229 l 347 232 q 339 218 344 232 q 328 186 333 204 q 319 151 322 168 q 315 126 315 133 m 292 107 q 294 114 293 107 q 296 122 296 121 q 305 160 300 142 q 313 199 310 179 q 304 184 308 196 q 297 158 300 172 q 292 130 294 143 q 290 111 290 117 l 292 107 m 349 126 q 362 162 357 142 q 372 199 367 182 l 349 126 m 74 147 q 78 157 75 147 q 82 169 82 167 q 88 181 85 176 q 92 193 90 186 q 81 171 89 186 q 72 149 72 156 l 74 147 z "},"e":{"ha":343,"x_min":-22,"x_max":357,"o":"m 232 468 q 243 471 238 471 q 256 471 249 471 q 297 463 276 471 q 333 440 318 456 q 356 379 357 411 q 318 292 353 339 q 275 237 300 265 q 238 197 250 208 q 205 176 222 186 q 161 156 188 167 q 140 149 146 150 q 117 147 133 147 q 96 148 101 147 q 83 151 90 149 q 72 156 75 156 q 63 131 72 153 q 55 108 56 115 q 53 85 54 100 q 57 48 51 61 q 75 28 63 35 q 105 24 83 24 q 140 28 126 24 q 180 45 156 32 q 222 71 204 58 q 260 94 250 90 q 279 90 271 97 q 268 65 286 82 q 206 26 246 44 q 131 1 167 8 q 90 -1 115 -1 q 53 6 65 0 q 8 31 26 15 q -12 61 -10 46 q -21 119 -22 93 q -7 182 -19 146 q -1 197 -4 190 q 1 204 1 203 q 6 215 1 206 q 16 235 10 224 q 30 258 22 246 q 43 279 38 271 q 65 310 53 294 q 88 342 76 326 q 94 350 90 344 q 104 363 99 356 q 122 382 108 368 q 151 411 136 396 q 197 451 181 439 q 232 468 214 464 m 179 413 q 153 390 192 429 q 39 242 90 331 q 15 194 24 218 q -1 147 6 171 q -6 120 -4 133 q -7 110 -8 107 q -4 115 -6 111 q -3 122 -3 118 q -1 131 -3 126 q 53 258 11 189 q 156 388 96 326 q 169 403 163 396 q 179 413 176 410 m 189 390 q 208 412 214 417 q 172 379 201 407 q 77 266 117 326 q 21 150 38 206 q 15 130 14 128 q 28 157 17 132 q 48 204 38 185 q 74 249 58 224 q 125 321 96 285 q 189 390 154 357 m 281 406 q 279 411 281 411 q 267 402 278 411 q 243 380 257 393 q 215 352 229 367 q 189 326 200 338 q 133 258 163 297 q 90 193 104 219 l 83 176 l 93 176 q 106 181 97 178 q 122 188 114 183 q 134 193 129 190 q 144 200 139 196 q 156 211 149 204 q 175 229 164 218 q 203 256 192 244 q 223 281 214 268 q 240 308 232 293 q 260 344 249 322 q 266 358 263 349 q 273 377 269 368 q 278 394 276 386 q 281 406 281 403 m 292 381 q 292 383 294 383 q 291 384 292 385 q 290 381 290 383 q 292 381 292 379 m 288 360 q 290 374 292 374 q 283 363 289 375 q 276 345 281 357 q 264 322 271 333 l 254 303 l 250 294 q 258 304 250 296 q 274 332 265 315 q 288 360 283 349 m 206 363 q 203 362 206 364 q 190 350 201 360 q 128 278 154 314 q 79 203 101 243 q 64 174 68 182 q 64 168 60 167 q 69 177 65 169 q 81 196 74 185 q 128 272 104 238 q 185 340 151 306 q 199 355 193 349 q 206 363 206 361 m 301 350 q 297 344 300 350 q 288 328 293 338 q 278 309 283 318 q 269 296 272 300 l 264 286 l 269 292 q 285 314 276 299 q 299 339 294 329 l 301 350 m 319 314 q 321 317 321 317 q 322 321 321 318 q 324 325 322 322 q 321 322 324 326 q 315 311 318 318 q 310 299 308 297 q 319 314 313 300 m 57 147 q 61 165 61 161 q 58 163 60 167 q 54 147 57 160 q 49 132 47 132 q 57 147 50 132 z "},"f":{"ha":365,"x_min":-293,"x_max":608,"o":"m 31 340 q 44 355 31 346 q 76 372 58 364 q 110 385 93 379 q 133 394 126 392 q 160 407 156 401 q 171 428 165 413 q 174 433 171 431 q 175 436 175 435 q 176 440 175 439 q 208 509 188 468 q 257 596 229 550 q 317 688 285 642 q 383 769 349 733 q 451 828 417 806 q 515 851 485 851 q 581 828 553 851 q 608 761 608 806 q 598 708 608 742 q 571 640 588 674 q 533 582 554 607 q 492 557 513 557 q 478 561 486 557 q 463 572 469 565 q 450 584 456 578 q 444 596 444 590 q 454 624 444 604 q 476 665 464 643 q 510 733 494 697 q 526 800 526 768 q 485 770 510 794 q 431 710 460 746 q 374 633 403 675 q 322 550 346 590 q 281 475 297 510 q 260 421 264 440 q 336 415 299 421 q 401 381 374 408 q 415 363 408 374 q 422 338 422 353 q 421 322 422 325 q 378 346 403 338 q 336 354 353 354 q 310 352 329 354 q 269 346 290 350 q 233 335 249 342 q 217 321 217 329 l 218 322 q 201 283 210 304 q 185 242 193 261 l 164 183 q 88 -7 129 92 q -6 -186 47 -106 q -51 -249 -25 -215 q -108 -313 -76 -283 q -174 -363 -139 -343 q -246 -383 -208 -383 q -273 -382 -260 -383 q -293 -372 -286 -381 q -274 -363 -286 -368 q -256 -356 -262 -358 q -251 -355 -258 -358 q -240 -349 -244 -351 q -220 -337 -229 -342 q -204 -328 -211 -332 q -175 -299 -194 -321 q -136 -252 -156 -278 q -101 -202 -117 -226 q -83 -165 -86 -178 l -83 -167 q -46 -97 -65 -135 q -9 -21 -26 -60 q 24 57 8 18 q 53 131 40 96 l 86 218 l 86 217 q 101 256 93 235 q 117 308 110 276 l 104 306 q 85 301 96 303 q 60 300 75 300 q 38 314 44 300 q 31 340 31 328 m 244 507 q 247 510 244 507 q 259 529 254 519 q 271 549 264 539 q 314 617 293 588 q 355 674 335 647 q 397 729 375 701 q 447 790 419 757 q 422 767 440 788 q 381 719 404 747 q 334 656 358 690 q 290 592 310 622 q 256 538 269 561 q 243 507 243 515 l 244 507 m 179 411 q 274 592 221 510 q 394 758 328 675 q 401 767 397 763 q 407 776 404 771 q 349 709 381 750 q 286 622 317 668 q 230 531 256 576 q 192 451 204 486 q 185 433 190 449 q 179 414 179 417 l 179 411 m 457 601 q 463 610 460 606 q 469 621 467 615 q 489 653 478 635 q 509 690 500 671 q 525 729 518 710 q 532 765 532 749 l 532 768 q 528 763 529 767 q 526 757 528 760 q 503 695 515 725 q 475 638 492 665 q 464 619 472 633 q 456 599 456 604 l 457 601 m 429 728 q 424 724 426 728 q 419 718 421 721 q 431 728 426 725 l 429 728 m 485 604 q 522 657 503 629 q 543 717 540 685 q 535 703 542 717 q 526 686 528 689 q 504 646 517 667 q 485 604 492 625 m 419 717 q 415 714 418 717 q 415 713 415 713 q 414 711 414 713 q 417 713 415 711 q 421 717 419 715 l 419 717 m 546 626 q 549 629 546 626 q 554 638 550 631 q 563 654 558 646 q 570 670 567 663 q 574 681 574 678 l 574 683 q 567 672 572 683 q 560 658 561 661 q 553 644 558 656 q 547 629 547 632 q 546 626 547 626 m -54 -143 q -10 -67 -35 -121 q 40 50 15 -12 q 85 172 64 113 q 119 263 107 231 q 129 285 122 267 q 136 308 136 303 q 133 306 136 308 q 129 294 133 304 q 119 272 125 283 q 110 249 114 260 q 106 238 106 239 q 35 52 69 146 q -47 -128 0 -42 q -52 -135 -50 -131 q -54 -143 -54 -139 m -54 -181 q -50 -174 -54 -181 q -41 -161 -46 -168 q -32 -147 -36 -154 q -26 -139 -28 -140 q 8 -76 -12 -117 q 48 9 28 -35 q 83 94 68 53 q 103 158 99 135 q 98 151 101 157 q 92 138 94 144 q 86 124 89 131 q 83 115 83 117 q 28 -19 57 49 q -36 -149 0 -86 q -47 -165 -39 -151 q -54 -181 -54 -178 m 19 -125 q 32 -103 22 -122 q 52 -63 42 -85 q 71 -22 63 -42 q 79 0 79 -3 q 70 -19 79 0 q 51 -60 61 -37 q 31 -101 40 -82 q 19 -125 21 -121 z "},"g":{"ha":486,"x_min":-236,"x_max":556,"o":"m 471 425 q 496 456 486 438 q 521 486 506 475 q 544 476 532 483 q 556 457 556 469 q 544 433 556 454 q 516 379 533 411 q 478 310 499 347 q 440 239 458 272 q 406 180 421 206 q 388 146 392 154 q 334 49 369 113 q 253 -90 299 -14 q 156 -247 208 -167 q 51 -392 103 -326 q -48 -500 0 -458 q -132 -542 -96 -542 q -206 -520 -176 -542 q -236 -451 -236 -499 q -206 -337 -236 -397 q -129 -222 -175 -278 q -31 -120 -83 -167 q 64 -46 21 -74 q 142 -2 100 -22 q 224 33 183 18 q 234 38 228 36 q 244 42 240 39 q 262 67 247 43 q 294 122 276 92 q 328 180 313 153 q 347 215 343 207 q 292 163 329 199 q 213 92 256 128 q 131 28 171 56 q 67 1 90 1 q 38 9 50 1 q 19 29 26 17 q 8 56 11 42 q 4 85 4 71 q 22 167 4 125 q 65 249 39 210 q 121 324 90 289 q 179 388 151 360 q 269 449 215 424 q 375 474 324 474 q 430 462 401 474 q 471 425 458 450 m 69 35 q 79 38 75 36 q 89 42 83 39 q 131 69 104 49 q 190 120 157 90 q 258 185 222 150 q 328 252 294 219 q 388 313 361 285 q 431 358 415 342 q 443 376 438 367 q 449 397 449 386 q 414 431 449 431 q 353 409 389 431 q 279 353 318 388 q 202 276 240 319 q 134 190 164 233 q 85 108 104 147 q 67 44 67 69 q 69 35 67 38 m 79 178 q 133 250 108 213 q 189 322 158 288 q 165 301 182 321 q 131 258 149 282 q 98 210 113 233 q 79 178 83 186 m 431 294 q 355 174 393 236 q 288 49 317 111 q 324 99 306 68 q 360 165 342 131 q 397 232 379 199 q 431 290 414 265 l 431 294 m 54 165 q 65 183 60 174 q 97 232 81 208 q 128 279 113 256 q 107 254 118 268 q 85 225 96 240 q 67 194 75 210 q 54 165 58 179 m 267 50 q 271 53 268 50 q 287 76 275 57 q 312 117 299 94 q 337 161 325 140 q 351 188 349 182 q 371 221 361 204 q 389 254 381 238 q 360 213 376 242 q 328 153 344 185 q 295 92 311 121 q 268 53 279 64 q 269 51 269 53 q 267 50 268 50 m 118 185 q 124 194 124 190 l 119 190 l 118 185 m 267 11 q 258 2 263 11 q 251 -10 253 -7 q 240 -31 249 -17 q 221 -61 231 -46 q 204 -90 211 -76 q 197 -106 197 -103 q 211 -82 200 -100 q 235 -44 222 -64 q 257 -8 247 -25 q 267 10 267 8 l 267 11 m 288 -10 q 293 0 293 -4 l 289 -4 l 288 -10 m 232 -12 q 235 -9 233 -12 q 238 -3 236 -6 l 233 -6 q 233 -8 233 -7 q 232 -12 232 -10 m -150 -508 q -89 -478 -124 -508 q -17 -402 -54 -449 q 58 -299 19 -356 q 128 -186 96 -242 q 186 -83 161 -131 q 224 -10 211 -36 q 147 -43 190 -17 q 57 -107 103 -69 q -33 -190 11 -144 q -111 -281 -76 -235 q -167 -373 -146 -328 q -187 -453 -187 -418 q -181 -490 -187 -471 q -150 -508 -174 -508 m 224 -26 q 228 -18 228 -22 q 225 -22 226 -21 q 224 -26 224 -24 z "},"h":{"ha":483,"x_min":-28,"x_max":617,"o":"m -26 38 q -8 103 -28 54 q 42 215 11 151 q 112 352 74 279 q 186 490 150 425 q 252 607 222 556 q 296 681 282 658 q 339 738 314 708 q 394 791 364 767 q 458 831 424 815 q 528 847 492 847 q 586 832 561 847 q 614 781 611 817 q 590 678 617 726 q 522 592 564 631 q 431 525 481 554 q 336 478 381 496 q 304 467 321 471 q 271 457 288 463 q 239 417 261 454 q 192 333 217 379 q 147 245 168 288 q 119 189 126 203 q 176 247 150 217 q 233 304 203 276 q 284 346 250 318 q 356 401 318 374 q 431 450 394 429 q 486 471 467 471 q 510 465 500 471 q 521 443 519 458 q 513 413 521 431 q 494 378 506 396 q 472 344 483 360 q 453 318 460 328 q 398 222 421 274 q 360 118 375 171 q 351 88 356 104 q 347 56 346 71 q 352 40 347 44 q 363 33 357 35 q 376 29 369 31 q 386 24 382 28 q 371 5 386 11 q 344 -1 356 -1 q 295 20 315 -1 q 272 69 275 42 q 280 144 269 107 q 307 219 290 182 q 344 289 324 256 q 385 350 365 322 q 399 369 392 360 q 410 390 406 379 q 394 380 406 389 q 379 368 383 371 q 297 301 335 333 q 224 235 260 268 q 155 164 189 201 q 85 83 121 126 q 53 42 71 67 q 21 6 36 18 l 17 6 q 6 9 13 6 q -8 17 -1 13 q -21 28 -15 22 q -26 38 -26 33 m 582 767 q 578 787 582 774 q 565 800 575 800 q 516 784 544 800 q 460 745 488 768 q 410 699 433 722 q 375 658 386 675 q 354 626 371 651 q 319 571 338 600 q 288 517 301 542 q 274 489 274 493 l 275 489 q 288 492 279 489 q 306 499 296 494 q 325 507 317 503 q 338 513 333 511 q 414 553 371 528 q 495 613 457 579 q 559 685 533 646 q 582 767 585 724 m 176 400 q 188 418 178 401 q 213 460 199 435 q 244 515 228 485 q 277 574 261 546 q 306 624 293 601 q 324 654 318 646 q 246 531 281 594 q 176 400 211 467 m 275 611 q 278 616 278 613 q 281 622 279 619 q 277 618 278 622 q 275 611 276 614 m 267 597 q 269 601 268 600 q 271 606 271 603 q 268 601 269 603 q 267 597 267 600 m 256 579 q 262 586 258 582 q 264 594 265 590 q 258 589 260 594 q 254 581 257 583 l 256 579 m 181 446 q 186 452 182 446 q 195 467 190 458 q 203 483 200 475 q 208 492 207 490 q 217 508 210 496 q 232 535 224 521 q 247 562 240 550 q 253 576 253 574 q 236 549 247 568 q 213 509 225 529 q 192 471 201 489 q 181 446 182 453 m 247 463 q 260 483 254 469 q 269 507 267 497 q 259 485 264 496 q 247 463 254 474 m 149 386 q 163 410 156 399 q 176 436 171 422 l 149 386 m 472 419 q 471 421 472 419 q 467 417 468 421 q 464 411 465 414 l 464 408 q 469 413 465 408 q 472 419 472 418 m 200 371 q 199 372 200 371 q 194 366 197 372 q 192 358 192 360 l 200 371 m 115 321 q 122 331 118 326 q 128 343 125 336 q 135 360 133 354 q 124 341 131 351 q 114 321 117 331 q 113 318 114 318 l 115 321 m 154 357 q 83 219 117 289 q 18 78 50 150 q 19 76 18 78 q 28 90 22 76 q 33 104 33 103 q 94 231 61 169 q 156 356 126 292 l 154 357 m 179 335 q 182 339 182 338 q 178 336 181 339 l 178 335 l 178 333 l 179 335 m 171 317 q 174 324 174 319 q 176 331 174 328 q 172 324 172 326 l 171 317 m 90 271 q 89 274 90 272 q 88 269 88 274 l 88 268 l 90 269 l 90 271 m 74 242 q 71 240 72 242 l 71 238 l 74 239 l 74 242 m 14 114 q 40 168 28 142 q 64 222 51 194 l 14 114 m 310 103 q 316 116 313 103 q 319 132 319 129 q 327 153 321 138 q 340 187 333 169 q 351 218 346 204 q 356 233 356 232 q 342 213 350 231 q 328 172 335 194 q 315 130 321 150 q 310 103 310 110 m 289 93 q 292 106 292 100 q 296 118 293 111 q 311 171 303 146 q 328 224 319 196 q 315 195 322 213 q 302 159 308 178 q 292 122 296 140 q 288 92 288 104 l 288 90 l 289 93 m 343 104 q 347 117 343 106 q 355 142 350 128 q 363 167 360 156 q 367 181 367 179 q 361 165 365 176 q 353 142 357 154 q 346 118 349 129 q 343 104 343 107 m 0 76 q 6 90 3 81 q 10 104 10 99 q 4 91 7 103 q 0 76 1 79 m -10 51 q -6 67 -6 60 l -6 68 q -9 61 -8 68 q -10 51 -10 54 z "},"i":{"ha":214,"x_min":-21,"x_max":318,"o":"m 153 465 q 163 472 153 471 q 174 474 172 474 q 216 455 197 474 q 235 413 235 436 q 221 352 235 388 q 186 278 207 317 q 141 201 165 240 q 96 128 117 161 q 61 69 75 94 q 47 33 47 43 q 49 20 47 24 q 54 15 51 17 q 61 13 57 14 q 68 6 65 11 q 56 -1 68 1 q 39 -4 43 -4 q 20 1 31 -4 q 1 15 10 7 q -15 34 -8 24 q -21 54 -21 44 q -8 103 -21 72 q 26 172 6 135 q 69 250 46 210 q 113 327 93 290 q 147 394 133 364 q 160 439 160 424 q 156 452 160 446 q 153 465 153 458 m 161 383 q 165 390 163 383 q 169 403 167 396 q 173 416 171 410 q 175 425 175 422 l 175 429 q 169 417 172 429 q 165 403 167 406 q 163 394 164 399 q 161 383 161 389 m 169 354 q 174 361 171 354 q 181 376 178 368 q 188 393 185 385 q 190 404 190 401 l 190 410 q 185 400 189 410 q 181 388 182 390 q 174 371 179 385 q 169 354 169 357 m 208 354 q 214 374 214 364 l 214 379 q 210 367 211 372 q 208 354 208 361 m 13 56 q 19 72 15 56 q 25 94 24 89 q 17 77 22 90 q 11 60 11 64 l 11 57 q 13 56 11 56 m -7 56 q -1 69 -3 63 q 1 83 0 76 l -7 56 m 211 589 q 227 624 211 613 q 264 636 243 636 q 301 626 283 636 q 318 594 318 617 q 306 560 318 575 q 274 544 293 544 q 234 557 257 544 q 211 589 211 569 z "},"j":{"ha":233,"x_min":-306,"x_max":318,"o":"m 218 451 q 217 454 218 456 q 211 440 217 453 q 161 324 199 410 q 61 114 124 239 q 48 86 54 99 q 38 64 42 74 q 28 43 32 53 q 42 67 29 43 q 72 128 54 92 q 110 203 90 164 q 146 275 131 243 q 171 331 158 303 q 193 381 183 358 q 208 420 203 404 q 214 439 214 436 l 218 451 m 190 415 q 197 428 193 422 q 199 435 200 435 q 197 433 199 436 q 193 426 194 431 q 183 405 190 421 q 167 371 175 389 q 159 353 163 361 q 153 339 156 346 q 147 326 149 332 q 140 311 147 325 q 124 278 133 297 q 107 243 114 257 q 100 228 100 229 l 93 214 q 86 199 90 207 q 78 182 82 192 q 47 119 60 147 q 33 89 33 90 q 36 90 33 88 q 40 94 40 92 q 51 119 40 96 q 93 204 63 142 q 108 239 101 225 l 115 253 q 121 267 115 254 q 136 296 126 279 q 153 333 144 313 q 169 367 163 354 q 181 392 175 378 q 190 415 188 407 m 213 369 q 218 388 221 392 q 206 361 215 385 q 188 320 199 346 q 166 267 178 294 q 144 218 154 240 q 131 188 135 196 q 128 178 128 178 q 133 185 128 174 q 141 201 136 189 q 153 226 146 213 q 167 260 158 240 q 185 301 176 281 q 201 340 194 322 q 213 369 208 358 m -306 -361 q -259 -340 -282 -351 q -214 -317 -236 -329 q -151 -250 -185 -299 q -82 -135 -117 -201 q -13 7 -47 -69 q 51 156 21 83 q 108 290 82 228 q 151 389 133 351 q 159 408 154 394 q 171 435 164 422 q 186 459 178 449 q 204 469 194 469 q 231 463 218 469 q 244 440 244 456 q 228 374 244 422 q 186 263 211 326 q 131 128 161 199 q 71 -6 100 58 q 19 -117 42 -69 q -12 -183 -3 -165 q -54 -250 -29 -215 q -110 -314 -79 -285 q -178 -362 -142 -343 q -256 -381 -215 -381 q -268 -381 -260 -381 q -285 -378 -276 -381 q -299 -372 -293 -376 q -306 -361 -306 -368 m 211 589 q 227 624 211 613 q 264 636 243 636 q 301 626 283 636 q 318 594 318 617 q 306 560 318 575 q 274 544 293 544 q 234 557 257 544 q 211 589 211 569 z "},"k":{"ha":413,"x_min":-14,"x_max":621,"o":"m -14 32 q 17 123 -1 79 q 56 209 36 167 q 96 294 76 251 q 132 382 115 338 q 167 469 146 419 q 218 569 189 518 q 282 671 247 621 q 357 760 317 721 q 442 822 397 799 q 533 846 486 846 q 594 828 567 846 q 621 774 621 810 q 594 687 621 728 q 525 610 567 646 q 435 543 483 574 q 345 490 388 513 q 274 454 303 468 q 242 438 244 440 q 233 422 240 436 q 216 386 226 407 q 194 340 206 365 q 174 294 183 315 q 157 257 164 272 q 149 239 150 242 q 208 294 169 256 q 290 371 247 332 q 374 440 333 410 q 440 469 415 469 q 460 465 450 469 q 469 450 469 461 q 456 413 469 436 q 425 364 442 389 q 394 315 408 339 q 381 278 381 292 q 383 263 381 271 q 385 248 385 256 q 381 235 385 240 q 368 231 378 231 q 346 238 356 231 q 329 256 336 246 q 319 279 322 267 q 315 303 315 292 q 320 331 315 318 q 328 358 325 343 l 243 283 q 260 271 253 275 q 273 263 268 267 q 281 250 278 258 q 283 225 283 242 q 277 182 283 203 q 264 140 271 161 q 251 99 257 119 q 244 57 244 78 q 249 31 244 42 q 271 21 253 21 q 281 23 274 21 q 290 26 288 25 q 298 33 293 29 q 308 38 303 38 q 313 31 313 35 q 292 6 313 14 q 260 -1 272 -1 q 196 25 218 -1 q 174 90 174 51 q 178 128 174 108 q 190 165 183 147 q 201 201 196 183 q 206 236 206 219 l 206 244 q 157 189 185 228 q 101 110 129 150 q 51 40 74 71 q 21 4 29 8 q 1 15 10 10 q -14 32 -7 21 m 263 493 q 351 538 297 507 q 458 610 406 569 q 547 696 510 650 q 585 785 585 742 q 556 817 585 817 q 467 778 515 817 q 377 688 419 740 q 303 581 335 635 q 263 493 271 526 m 278 608 q 278 612 281 615 q 269 596 276 608 q 247 553 261 582 q 217 494 232 525 q 191 440 203 464 q 178 410 179 415 q 206 458 174 392 q 239 529 222 496 q 267 585 256 563 q 274 599 271 593 q 278 608 278 606 m 231 556 q 231 558 231 557 q 232 561 232 560 q 233 563 232 563 q 225 550 231 563 q 225 546 222 543 q 231 556 228 549 m 204 500 q 208 511 207 506 q 213 521 210 517 l 217 529 q 206 511 215 531 q 186 471 196 492 q 178 453 183 464 q 169 435 174 443 q 158 408 163 418 q 153 394 153 397 q 157 400 153 392 q 168 424 161 408 q 177 443 172 433 q 185 458 182 453 q 193 477 188 465 q 204 500 199 489 m 260 511 q 261 517 263 515 q 258 514 261 517 q 258 509 257 510 q 260 511 258 508 m 236 463 q 238 465 238 464 q 239 468 238 467 q 240 471 239 469 q 236 464 239 472 q 232 454 232 457 q 236 463 233 454 m 199 375 q 201 385 201 383 q 200 382 201 383 q 197 376 197 379 q 194 369 194 371 q 193 367 193 368 q 199 375 194 367 m 160 361 q 150 349 160 371 q 116 275 135 315 q 81 199 97 235 q 55 137 65 163 q 44 108 44 111 q 50 119 44 106 q 71 167 56 132 q 93 216 79 186 q 118 269 107 246 q 151 338 142 318 q 160 361 160 358 m 183 343 q 184 346 183 344 q 185 349 185 347 q 186 350 185 350 q 180 341 185 350 q 175 331 175 332 q 183 343 176 328 m 129 340 q 130 345 132 346 q 125 338 128 344 q 121 327 124 335 q 114 311 118 319 q 110 304 111 307 q 108 299 110 301 l 106 293 q 109 299 106 293 q 117 314 113 306 q 125 330 121 322 q 129 340 129 338 m 335 319 q 338 331 338 326 q 338 336 339 336 q 333 327 336 338 q 329 310 329 317 q 335 319 329 293 m 354 317 q 356 327 356 324 q 356 332 356 331 q 351 325 354 333 q 347 310 349 317 q 347 303 344 300 q 354 317 350 306 m 97 269 q 100 281 103 278 l 100 282 q 99 278 100 281 l 94 269 q 91 260 90 260 q 97 269 92 260 m 224 239 q 224 250 226 247 q 222 250 224 251 q 221 243 221 249 q 216 226 219 239 q 210 197 213 213 q 189 99 190 135 q 188 78 186 78 q 193 100 190 79 q 202 150 196 122 q 215 204 208 178 q 221 226 218 215 q 224 239 224 236 m 240 224 q 242 233 243 231 q 239 232 242 235 q 234 217 238 231 q 226 188 231 204 q 218 154 222 171 q 213 129 214 138 q 208 99 210 113 q 208 88 207 85 q 212 96 210 88 q 217 115 214 104 q 223 144 219 126 q 231 178 226 163 q 238 206 235 193 q 240 224 240 218 m 254 144 q 265 182 261 165 q 267 201 268 199 q 267 204 267 206 q 264 194 267 203 q 259 175 263 189 q 251 146 256 161 q 244 117 247 131 q 240 99 240 103 l 240 92 q 244 108 240 93 q 254 144 249 124 m 65 197 q 66 202 65 200 q 67 206 67 204 q 63 200 67 206 q 61 192 60 193 q 65 197 63 190 m 56 178 q 52 174 54 179 q 50 165 50 168 q 53 169 50 161 l 56 178 m 43 144 q 44 152 46 151 q 40 146 43 153 q 39 142 39 144 l 39 139 q 43 144 40 138 z "},"l":{"ha":276,"x_min":-6,"x_max":589,"o":"m 496 849 q 528 844 511 849 q 558 832 544 840 q 580 810 571 824 q 589 778 589 796 q 552 679 589 729 q 462 587 515 629 q 351 511 408 544 q 251 463 293 478 q 224 412 242 446 q 186 335 207 378 q 144 246 165 293 q 104 156 122 199 q 75 81 86 114 q 64 35 64 49 q 65 28 64 32 q 69 24 65 24 q 108 51 82 24 q 163 110 135 78 q 213 169 190 142 q 240 196 236 196 q 257 192 250 196 q 224 143 249 175 q 171 78 200 111 q 113 22 142 46 q 64 -1 83 -1 q 15 13 35 -1 q -6 58 -6 26 q 15 156 -6 94 q 67 290 35 218 q 140 440 100 363 q 221 587 181 518 q 297 708 261 656 q 358 786 333 761 q 420 833 389 817 q 496 849 451 849 m 10 63 q 8 56 8 65 q 10 49 8 46 l 10 63 m 28 47 q 28 54 28 50 q 29 63 29 58 q 28 72 28 71 q 26 68 28 72 q 26 60 26 65 q 25 53 25 56 q 28 47 25 44 m 39 138 q 45 149 39 138 q 59 176 51 161 q 73 204 67 190 q 82 224 79 218 q 92 249 83 228 q 112 292 101 269 q 129 334 122 315 q 135 354 136 353 q 128 344 133 356 q 118 319 124 333 q 107 291 113 304 q 100 276 101 278 q 87 247 97 269 q 65 199 76 224 q 46 156 54 175 q 39 138 38 136 m 113 335 q 119 350 113 335 q 134 383 126 365 q 149 418 142 401 q 158 439 156 435 q 166 456 160 443 q 179 483 172 468 q 196 521 186 500 q 174 476 183 497 q 157 442 165 458 q 146 421 149 426 q 139 404 144 418 q 127 374 133 390 q 117 346 121 358 q 113 335 113 333 m 103 224 q 108 235 103 225 q 119 260 113 246 q 131 285 125 274 q 139 301 136 297 q 148 323 140 306 q 164 360 156 340 q 185 411 174 383 q 168 378 175 393 q 155 351 161 364 q 146 332 149 338 q 138 312 144 329 q 123 275 131 294 q 109 240 115 256 q 103 224 103 224 m 542 781 q 540 799 543 792 q 531 810 538 806 q 513 817 525 815 q 491 815 500 818 q 468 804 482 811 q 421 767 443 790 q 371 703 399 744 q 349 666 363 689 q 322 617 336 643 q 294 563 308 590 q 271 515 281 536 q 267 508 268 508 q 269 507 267 507 q 283 514 269 507 q 314 531 296 521 q 349 551 332 540 q 376 569 367 563 q 420 603 393 582 q 474 650 447 624 q 519 710 500 676 q 542 781 539 743 z "},"m":{"ha":626,"x_min":-35,"x_max":669,"o":"m 119 472 q 173 453 151 472 q 197 403 194 435 q 191 367 199 388 q 173 325 183 346 q 152 283 163 304 q 139 247 142 263 q 188 301 154 264 q 262 377 222 339 q 339 444 301 415 q 400 474 376 474 q 426 465 417 474 q 443 442 436 456 q 428 397 443 429 q 392 329 413 365 q 353 261 372 293 q 328 218 333 229 q 335 222 331 217 q 342 229 340 226 q 374 263 353 240 q 424 312 396 285 q 482 367 451 339 q 542 419 513 396 q 594 457 571 442 q 633 472 618 472 q 656 466 644 472 q 668 447 667 460 q 654 391 669 424 q 615 321 639 358 q 562 242 590 283 q 509 163 533 201 q 469 91 485 125 q 456 33 453 57 q 460 25 456 26 l 474 24 q 490 26 479 24 q 503 28 500 29 q 497 17 503 22 q 481 8 490 13 q 464 1 472 4 q 451 -1 456 -1 q 413 13 432 -1 q 392 49 393 28 q 406 138 388 94 q 452 224 425 182 q 507 305 479 265 q 551 382 535 344 q 463 301 507 342 q 378 215 418 260 q 303 117 338 169 q 226 21 268 65 l 221 21 q 194 29 207 21 q 181 53 182 38 q 190 115 179 79 q 220 189 201 150 q 261 265 239 228 q 302 334 283 303 q 333 385 321 365 q 346 408 346 406 q 308 385 333 408 q 252 327 283 363 q 186 248 221 292 q 122 164 151 204 q 69 92 92 124 q 39 46 47 60 q 24 20 33 36 q 0 4 14 4 q -21 13 -8 4 q -33 32 -33 22 q -24 77 -35 46 q 5 149 -12 108 q 43 235 22 190 q 81 321 64 281 q 110 392 99 361 q 121 436 121 424 q 113 455 119 449 q 106 468 106 461 l 106 471 l 119 472 m 403 435 q 404 439 406 438 q 401 436 404 439 q 401 433 400 433 q 403 435 401 432 m 138 404 q 138 408 138 407 q 139 413 139 410 q 140 417 139 415 q 133 400 139 418 q 103 331 122 371 q 78 278 88 300 q 57 229 69 257 q 47 203 50 214 q 44 196 43 193 q 51 206 47 199 q 58 224 54 214 q 66 243 63 233 q 72 258 69 253 q 88 291 75 267 q 121 360 100 315 q 133 386 128 374 q 138 404 138 399 m 151 382 q 153 392 156 393 q 146 378 150 390 q 134 353 142 371 q 117 315 126 335 q 90 258 104 289 q 64 199 76 226 q 44 152 51 171 q 36 132 36 133 q 49 156 38 132 q 72 208 60 179 q 92 252 79 224 q 119 308 106 281 q 142 358 132 336 q 151 382 151 379 m 168 342 q 178 368 178 364 q 164 343 178 368 q 156 317 154 317 l 168 342 m 147 297 q 149 301 149 300 q 150 306 149 303 q 151 310 150 308 q 146 301 150 310 q 139 285 142 293 q 140 282 136 278 q 147 297 143 286 m 132 267 q 133 271 133 268 q 131 268 133 271 q 132 267 131 264 m 128 256 q 128 258 128 257 q 129 261 129 260 q 131 263 129 263 q 125 256 128 263 q 124 250 124 253 q 122 249 124 249 q 128 256 124 249 m 38 179 q 33 174 38 183 l 31 165 l 33 171 q 38 179 39 178 m 250 171 q 253 176 251 174 q 256 182 254 179 q 257 186 257 185 q 249 174 256 186 q 236 144 243 161 q 222 112 229 128 q 214 89 215 96 q 212 78 210 76 q 219 92 214 79 q 233 133 222 107 q 250 171 243 158 m 454 147 q 458 158 457 153 q 460 165 458 163 q 463 172 461 169 q 455 162 460 172 q 444 137 450 151 q 432 106 438 122 q 424 81 426 90 q 422 66 421 69 q 428 72 424 63 q 440 110 432 90 q 454 147 447 129 m 431 140 q 434 151 432 146 q 438 160 436 157 q 440 167 439 164 q 435 159 439 167 q 427 141 432 151 q 418 119 422 131 q 411 97 414 107 q 405 72 407 83 q 406 63 403 60 q 407 69 406 65 q 409 77 408 72 q 413 88 410 82 q 421 114 415 99 q 431 140 426 129 m 207 115 q 208 124 210 124 q 204 117 207 125 q 198 98 201 108 q 192 78 194 88 q 192 65 190 68 q 193 68 192 63 q 197 85 194 74 q 202 103 200 94 q 207 115 204 113 m 460 94 q 461 99 464 96 q 460 96 461 99 l 460 94 z "},"n":{"ha":429,"x_min":-28,"x_max":493,"o":"m 129 472 q 182 453 160 472 q 207 403 204 433 q 201 354 208 379 q 182 304 193 329 q 158 256 171 279 q 138 211 146 232 q 176 246 151 222 q 231 299 201 269 q 294 358 261 328 q 358 415 326 389 q 415 456 389 440 q 458 472 442 472 q 481 464 471 472 q 492 443 490 456 q 478 399 493 428 q 441 332 464 369 q 392 253 418 294 q 342 170 365 211 q 306 92 319 129 q 294 29 292 56 q 303 22 294 22 q 319 24 311 22 q 336 28 328 26 q 313 7 328 15 q 283 -1 299 -1 q 246 13 258 -1 q 232 51 233 28 q 245 136 228 90 q 288 228 263 182 q 340 317 313 274 q 385 392 367 360 q 222 250 294 333 q 82 83 149 167 q 69 66 78 79 q 49 40 60 53 q 28 15 39 26 q 13 4 18 4 q -9 13 1 4 q -28 29 -19 21 q -10 92 -24 56 q 22 169 4 129 q 58 252 39 210 q 92 332 76 294 q 116 399 107 369 q 124 444 125 428 q 119 460 122 451 q 118 472 115 468 l 129 472 m 142 418 q 140 426 143 429 q 135 408 138 422 q 130 390 133 401 q 123 365 126 378 q 115 343 119 353 q 110 331 111 333 q 107 324 107 325 q 114 331 110 321 q 125 358 118 342 q 136 390 132 374 q 142 418 140 407 m 157 382 q 156 393 154 393 q 154 389 156 392 q 151 381 151 383 q 138 341 144 358 q 125 310 131 324 q 120 293 118 290 q 132 315 122 296 q 149 355 142 336 q 157 382 156 374 m 186 354 q 183 361 186 365 q 180 353 182 360 q 176 338 178 346 q 172 324 174 331 q 171 318 171 318 q 173 322 171 318 q 178 333 175 326 q 183 345 181 339 q 186 354 185 351 m 278 115 q 274 108 276 115 q 267 90 271 100 q 262 69 264 79 q 260 56 260 60 q 263 58 261 51 q 268 79 264 64 q 274 101 271 92 q 278 113 276 111 l 278 115 m 247 69 q 251 94 251 90 q 249 90 250 94 q 246 77 247 85 q 243 63 244 69 q 242 53 242 56 q 247 69 243 46 z "},"o":{"ha":333,"x_min":-21,"x_max":361,"o":"m -19 94 q -14 146 -19 122 q 1 197 -8 169 q 44 278 15 231 q 110 369 74 325 q 188 444 146 413 q 269 475 229 475 q 294 465 281 475 q 308 440 308 456 l 275 407 q 207 337 244 379 q 137 247 169 294 q 81 151 104 199 q 57 64 58 103 q 58 50 57 57 q 68 40 60 43 q 99 56 81 42 q 138 90 118 71 q 175 127 158 108 q 199 154 192 146 q 269 253 239 199 q 303 369 300 307 q 306 393 303 381 q 326 406 308 406 q 347 400 340 406 q 357 386 354 394 q 360 368 360 378 q 361 349 361 358 l 360 342 q 331 254 358 304 q 265 156 304 204 q 178 66 225 107 q 93 6 132 25 q 71 0 85 0 q 4 29 29 0 q -19 94 -21 58 m 156 358 q 143 350 161 371 q 110 308 129 335 q 76 260 90 281 q 65 239 71 250 q 55 218 60 228 q 47 201 50 208 q 44 193 44 194 q 51 201 44 192 q 65 226 57 211 q 84 257 74 240 q 105 290 94 274 q 124 319 115 306 q 140 340 133 332 q 149 351 144 346 q 156 358 153 356 m 117 347 q 122 356 125 356 q 117 349 122 357 q 110 340 110 340 q 117 347 110 339 m 108 338 q 97 326 106 338 q 78 299 89 315 q 56 266 67 283 q 39 236 44 249 q 21 195 31 219 q 8 163 11 171 q 9 159 6 153 q 21 185 13 165 q 51 242 35 213 q 85 300 67 272 q 100 325 93 315 q 108 335 107 335 l 108 338 m 160 307 q 163 313 163 310 l 163 315 q 151 302 161 315 q 131 272 142 289 q 109 239 119 256 q 94 214 99 222 q 94 211 92 207 q 100 218 97 214 q 107 226 103 222 q 115 242 108 231 q 131 266 122 253 q 147 291 139 279 q 160 307 156 303 z "},"p":{"ha":378,"x_min":-222,"x_max":399,"o":"m 150 496 q 183 479 169 496 q 196 444 196 463 q 192 426 196 435 q 186 410 189 417 l 179 385 l 192 397 q 215 419 201 407 q 247 444 229 432 q 283 464 264 456 q 324 472 303 472 q 377 450 356 472 q 399 396 399 428 q 384 318 399 361 q 344 231 369 275 q 284 146 318 188 q 212 72 250 104 q 134 19 174 39 q 57 0 94 0 q 29 1 38 0 q 6 11 21 3 q -59 -121 -29 -56 q -117 -257 -89 -186 q -126 -285 -122 -269 q -138 -316 -132 -300 q -151 -347 -144 -332 q -166 -369 -157 -358 q -190 -379 -175 -379 q -212 -372 -201 -379 q -222 -353 -222 -365 q -204 -281 -222 -332 q -158 -162 -186 -229 q -94 -19 -129 -96 q -25 129 -60 57 q 33 244 4 189 q 84 346 61 299 q 121 429 107 393 q 135 489 135 465 l 150 496 m 322 425 q 322 430 322 426 q 319 433 321 433 q 267 411 296 433 q 207 354 238 389 q 147 276 176 319 q 92 190 117 232 q 50 110 68 147 q 26 51 32 74 l 29 51 q 84 73 53 51 q 148 128 115 94 q 212 203 181 161 q 267 287 243 246 q 307 365 292 328 q 322 425 322 401 m 154 451 q 155 453 154 453 q 156 454 156 453 q 153 453 154 456 q 151 447 151 450 q 154 450 151 444 l 154 451 m 142 422 q 146 435 144 429 q 147 443 147 440 q 140 426 147 443 q 133 407 138 418 q 126 388 129 396 q 121 374 124 381 q 119 368 118 368 q 128 387 121 367 q 142 422 136 407 m 154 414 q 144 393 151 415 q 131 360 140 382 q 111 318 121 339 q 94 281 100 297 q 89 265 88 265 q 99 282 90 264 q 118 324 107 300 q 139 370 129 347 q 151 403 149 393 l 154 414 m 342 393 q 343 408 344 404 q 339 400 342 411 q 331 376 336 392 q 320 345 326 361 q 308 317 314 329 q 301 301 303 304 q 294 288 299 299 q 294 280 288 269 q 313 315 300 290 q 332 360 325 343 q 342 393 339 378 m 347 346 q 353 369 356 369 q 340 344 351 368 q 327 313 335 332 q 314 281 319 294 q 302 258 307 267 q 299 249 297 249 q 301 253 299 250 q 305 258 303 256 q 310 264 307 261 q 330 303 318 279 q 347 346 342 328 m 114 353 q 115 360 117 360 q 113 356 115 361 q 111 349 111 351 l 111 350 l 114 353 m 374 332 q 374 335 376 339 q 367 319 371 331 q 359 301 364 313 q 350 281 354 290 q 344 263 340 256 q 350 273 346 264 q 359 294 354 282 q 368 316 364 306 q 374 332 372 326 m 97 319 q 92 313 94 319 q 90 306 89 306 q 94 311 90 307 l 97 319 m 81 282 q 81 284 81 283 q 82 286 82 285 l 82 289 q 78 282 82 290 q 76 275 75 275 q 81 282 76 275 m 71 264 q 74 272 76 272 q 70 266 74 274 q 67 257 67 258 l 68 258 q 71 264 68 258 m 58 236 q 58 242 58 242 q 54 236 56 239 q 51 228 51 231 q 53 229 51 226 q 58 236 56 232 m 38 196 q 39 200 40 199 q 36 197 39 200 q 38 196 33 192 m 4 96 q 8 101 7 99 q 10 107 8 104 q 11 113 11 110 l 7 104 q 1 95 4 100 q -4 85 -1 90 q -15 65 -11 74 q -18 56 -19 56 q -10 67 -17 56 q -3 81 -7 74 q 4 96 1 89 m -21 46 q -20 49 -21 47 q -19 51 -19 50 l -19 53 q -24 45 -19 53 q -33 28 -28 38 q -42 10 -37 18 q -46 1 -46 1 q -43 6 -46 0 q -36 19 -40 11 q -28 34 -32 26 q -21 46 -24 42 m -181 -315 q -172 -290 -175 -300 q -169 -278 -169 -279 q -175 -287 -171 -278 q -183 -310 -179 -297 q -191 -336 -187 -324 q -194 -351 -194 -349 q -192 -349 -194 -356 q -181 -315 -189 -343 m -203 -335 q -201 -321 -200 -324 q -204 -328 -201 -318 q -206 -349 -208 -349 q -203 -335 -206 -349 z "},"q":{"ha":436,"x_min":-6,"x_max":519,"o":"m 401 429 q 417 447 408 436 q 435 467 425 457 q 455 483 444 476 q 475 490 465 490 q 502 482 485 490 q 519 463 519 474 q 490 415 519 458 q 418 303 461 371 q 324 151 375 236 q 229 -19 272 67 q 157 -186 186 -106 q 128 -326 128 -267 q 128 -337 128 -329 q 132 -346 129 -346 q 158 -326 142 -346 q 193 -283 175 -307 q 229 -240 211 -260 q 260 -221 247 -221 q 269 -227 265 -221 q 272 -237 272 -233 q 256 -280 272 -254 q 217 -328 240 -306 q 169 -368 194 -351 q 126 -385 144 -385 q 97 -375 110 -385 q 74 -351 83 -365 q 59 -321 64 -337 q 54 -289 54 -304 q 66 -200 54 -247 q 95 -106 78 -153 q 133 -15 113 -60 q 168 71 153 31 q 151 59 164 69 q 122 36 138 49 q 88 13 106 24 q 57 3 71 3 q 11 29 28 3 q -6 82 -6 56 q 8 152 -6 111 q 46 236 22 193 q 101 322 69 279 q 166 399 132 365 q 235 453 200 432 q 301 474 269 474 q 356 462 335 474 q 401 429 376 450 m 92 229 q 106 256 106 256 q 100 249 106 256 q 88 231 94 242 q 74 206 81 219 q 61 183 67 193 q 51 163 57 175 q 42 139 46 150 q 35 119 38 128 q 33 110 32 111 q 35 111 35 110 q 36 115 35 113 q 60 170 44 139 q 92 229 76 201 m 53 204 q 60 220 57 213 q 67 233 64 228 q 74 246 71 239 q 68 239 74 247 q 56 219 63 231 q 44 194 50 207 q 33 174 38 182 q 10 104 18 142 q 11 102 7 93 q 22 132 15 111 q 34 165 26 147 q 53 204 42 182 m 279 185 q 282 188 282 188 l 282 189 q 272 178 279 189 q 254 147 265 167 q 229 102 243 128 q 201 49 215 76 q 163 -32 182 10 q 128 -114 143 -74 q 101 -190 113 -154 q 88 -256 90 -226 q 88 -264 86 -267 q 93 -249 90 -261 q 125 -143 103 -197 q 178 -17 147 -89 q 200 31 186 1 q 229 90 214 60 q 258 146 244 119 q 279 185 272 172 m 64 132 q 74 153 69 144 q 78 164 78 163 q 69 151 76 164 q 57 126 63 138 q 64 132 40 82 m 206 96 q 210 108 210 104 q 206 105 208 110 q 200 93 203 100 q 199 87 197 86 q 206 96 200 88 m 196 78 q 196 83 196 83 q 190 73 196 83 q 177 47 185 63 q 162 13 169 31 q 149 -17 154 -4 q 113 -103 128 -67 q 89 -170 99 -140 q 74 -225 79 -200 q 67 -274 68 -250 q 68 -290 67 -292 l 68 -287 q 69 -285 68 -286 q 69 -281 69 -283 q 74 -244 69 -272 q 85 -193 78 -217 q 97 -159 92 -172 q 108 -131 101 -146 q 122 -97 114 -117 q 142 -44 129 -78 q 160 3 149 -24 q 182 50 171 29 q 191 68 188 60 q 196 78 194 76 m 229 17 q 233 22 232 19 q 235 26 233 24 q 236 31 236 29 q 228 17 235 31 q 222 3 221 4 q 225 7 224 4 q 229 17 228 13 m 204 -37 q 208 -26 208 -32 l 207 -28 q 204 -33 204 -31 q 199 -45 203 -36 q 190 -65 194 -54 q 165 -123 175 -100 q 144 -174 156 -146 q 127 -222 133 -201 q 121 -246 121 -242 q 122 -243 121 -247 q 126 -232 124 -239 q 131 -218 128 -225 q 135 -206 133 -211 q 144 -180 140 -189 q 153 -162 149 -171 q 163 -142 157 -154 q 178 -107 168 -131 q 194 -63 186 -83 q 204 -37 201 -43 m 54 44 q 56 38 54 43 q 61 33 58 33 q 115 56 85 33 q 176 115 144 79 q 238 196 207 151 q 293 283 268 240 q 336 364 318 326 q 360 424 354 401 q 354 426 358 426 q 297 405 329 426 q 232 349 265 383 q 167 272 199 314 q 110 186 135 229 q 69 106 85 143 q 54 44 54 68 z "},"r":{"ha":381,"x_min":-21,"x_max":415,"o":"m 190 310 q 225 349 201 322 q 276 402 249 375 q 329 449 303 429 q 372 469 356 469 q 399 467 383 469 q 415 450 415 465 q 407 419 415 435 q 390 388 399 403 q 372 358 381 372 q 364 331 364 343 q 369 314 364 318 q 380 309 374 310 q 392 308 386 308 q 400 303 399 307 q 385 285 394 294 q 364 276 375 276 q 326 282 338 276 q 308 297 314 288 q 299 320 303 307 q 285 350 294 333 q 152 190 218 274 q 42 14 86 106 q 35 2 39 7 q 24 -3 31 -3 q 1 3 13 -3 q -19 15 -10 8 l -21 29 q 3 124 -21 71 q 57 235 28 178 q 110 349 86 293 q 135 450 135 404 q 137 468 135 464 q 156 472 139 472 q 178 464 169 472 q 193 443 188 456 q 201 417 199 431 q 203 394 203 404 q 197 351 203 372 q 185 310 192 329 l 190 310 m 374 383 q 388 413 388 408 q 383 406 386 410 q 375 392 378 397 q 360 365 364 372 q 358 357 357 358 q 363 364 360 360 q 374 383 368 372 m 340 386 q 350 407 349 401 q 344 406 351 413 q 335 388 340 400 q 328 368 329 375 q 329 365 325 360 q 340 386 333 369 m 136 365 q 143 397 143 389 q 141 399 142 400 q 138 389 140 397 q 128 359 133 375 q 114 323 122 343 q 94 276 106 303 q 65 214 82 250 q 40 160 50 182 q 22 123 29 138 q 12 101 15 108 q 7 89 8 93 q -1 60 3 75 q -4 46 -6 46 q 0 57 -3 44 q 7 76 3 65 q 18 102 11 86 q 36 142 25 118 q 64 200 47 165 q 95 267 83 240 q 115 310 107 293 q 127 340 122 328 q 136 365 132 353 m 308 364 q 311 374 311 372 q 308 372 310 376 q 306 363 306 367 q 308 364 306 358 m 143 325 q 149 347 149 343 q 142 335 149 350 q 116 276 133 314 q 69 178 99 239 q 42 120 54 144 q 31 94 31 96 q 43 112 32 92 q 81 185 54 132 q 123 276 110 246 q 143 325 136 306 m 163 290 q 167 304 168 303 l 164 299 q 161 292 163 296 q 158 285 160 289 q 147 262 149 265 q 149 260 146 258 q 163 290 153 263 z "},"t":{"ha":207,"x_min":-7,"x_max":379,"o":"m 275 846 q 317 832 299 842 q 335 794 336 822 q 318 704 333 749 q 297 615 303 660 q 324 610 310 613 q 350 601 338 607 q 371 586 363 596 q 379 560 379 576 q 370 537 379 543 q 346 531 361 531 q 307 535 326 531 q 268 539 288 539 q 215 431 249 499 q 147 290 181 363 q 88 151 113 217 q 61 50 63 85 q 61 41 61 46 q 64 32 61 36 q 79 26 71 29 q 94 18 88 24 q 61 0 81 0 q 29 10 42 0 q 8 37 17 21 q -3 70 0 53 q -7 103 -7 88 q 15 210 -6 154 q 63 322 36 267 q 119 432 90 378 q 167 535 149 486 q 114 529 142 535 q 61 526 86 524 q 58 544 58 531 q 57 564 57 558 q 77 587 57 578 q 124 602 97 596 q 175 611 150 608 q 210 615 200 614 q 251 728 231 671 q 275 846 272 786 m 249 671 q 258 697 256 690 q 253 689 260 704 q 246 673 251 685 q 236 649 240 661 q 224 620 225 625 q 225 615 222 615 q 249 671 231 615 m 85 561 q 88 562 88 561 q 85 563 88 563 q 82 562 83 563 q 78 561 81 561 q 78 558 76 558 q 85 561 82 558 m 192 536 q 189 539 192 539 q 181 526 188 539 q 165 494 175 514 q 146 453 158 476 q 126 413 133 429 q 101 363 115 393 q 74 303 88 333 q 48 246 60 272 q 32 208 36 219 q 25 185 29 197 q 18 167 21 174 q 11 140 14 154 q 11 129 8 126 q 13 137 11 131 q 18 153 15 143 q 27 178 22 163 q 38 207 32 193 q 54 246 43 219 q 79 302 65 272 q 108 362 93 332 q 133 413 122 392 q 150 447 140 426 q 169 488 160 468 q 185 522 179 507 q 192 536 192 536 m 200 500 q 209 524 206 514 q 213 535 213 533 q 206 523 213 536 q 190 490 199 510 q 166 442 179 471 q 142 392 153 413 q 78 259 106 321 q 42 169 50 197 q 37 151 35 150 q 49 176 39 153 q 66 217 54 190 q 92 274 78 243 q 123 339 107 306 q 153 401 139 372 q 180 458 167 429 q 200 500 193 488 m 217 457 q 222 468 219 463 q 226 478 224 474 q 229 486 228 483 l 228 485 q 225 481 225 482 q 205 438 222 474 q 168 365 188 403 q 134 296 151 333 q 101 225 117 258 q 76 169 86 192 q 67 142 67 146 q 75 158 67 140 q 94 201 83 175 q 146 308 125 264 q 178 372 167 351 q 187 389 183 382 q 190 397 190 396 q 197 414 190 400 q 207 433 201 419 q 217 457 213 446 z "},"s":{"ha":319,"x_min":-53,"x_max":340,"o":"m 261 472 q 297 463 282 472 q 322 440 313 454 q 336 409 332 426 q 339 376 340 392 q 327 346 336 363 q 305 315 318 329 q 274 292 292 301 q 240 283 257 283 q 210 290 225 283 q 199 313 196 297 q 208 331 200 319 q 224 357 215 343 q 242 385 233 371 q 256 411 251 399 q 188 364 219 392 q 151 299 156 336 q 164 261 149 279 q 198 224 179 243 q 231 182 217 204 q 243 133 246 160 q 226 83 240 107 q 191 40 213 58 q 142 9 169 21 q 83 -3 114 -3 q 42 6 67 -3 q -3 29 18 15 q -39 60 -25 43 q -50 96 -53 78 q -46 104 -50 103 q -35 106 -42 106 q -12 90 -21 97 q 5 76 -4 82 q 26 66 14 69 q 63 63 39 63 q 98 74 81 63 q 130 101 115 85 q 154 135 144 117 q 167 168 164 153 q 155 206 168 190 q 125 240 142 222 q 96 277 108 257 q 88 328 83 297 q 106 380 89 354 q 147 426 122 406 q 201 460 171 447 q 261 472 232 472 m 153 408 q 163 421 158 417 l 167 425 q 147 411 163 425 q 128 389 132 397 q 122 377 121 379 q 129 383 122 375 q 153 408 135 394 m 281 408 q 283 420 283 418 q 278 414 282 422 q 270 401 276 411 q 257 381 264 392 q 244 364 249 369 q 242 356 242 360 q 248 360 243 354 q 259 375 253 367 q 272 393 265 383 q 281 408 278 403 m 185 415 q 185 418 189 419 q 174 410 182 417 q 154 393 163 403 q 146 381 146 383 q 160 392 146 379 q 185 415 174 404 m 293 388 q 289 386 297 404 q 279 375 286 383 q 269 360 272 367 l 257 342 l 267 351 q 283 368 275 358 q 293 388 290 378 m 186 378 q 188 381 186 381 q 186 382 189 382 l 185 381 q 184 379 185 379 q 183 378 183 379 q 182 375 182 376 q 181 374 182 374 q 186 378 182 374 m 317 356 q 319 365 321 367 q 311 353 318 364 q 306 343 307 346 q 307 343 304 340 q 311 348 308 344 q 317 356 314 351 m 226 318 q 231 328 231 325 q 226 326 231 331 q 219 316 222 324 q 218 308 215 308 q 219 311 218 310 l 226 318 m 243 307 q 235 303 242 308 q 229 297 229 299 q 236 300 229 293 l 243 307 m 164 107 q 167 115 169 115 l 163 111 q 154 101 157 106 q 146 88 143 88 q 154 94 149 88 q 164 107 160 100 m 171 83 q 176 90 178 90 q 165 83 175 90 l 160 78 q 158 75 158 76 q 171 83 163 71 m 196 58 q 200 61 199 60 q 199 63 201 63 q 194 61 199 63 q 193 58 193 60 q 192 57 193 57 q 196 58 193 56 z "},"u":{"ha":372,"x_min":-35,"x_max":419,"o":"m 92 463 q 97 469 92 468 q 107 471 101 471 l 111 471 q 170 455 144 471 q 196 401 196 439 q 176 323 196 369 q 128 226 156 276 q 75 129 101 176 q 36 49 49 82 q 163 163 101 94 q 267 297 224 231 q 287 333 272 306 q 318 390 301 361 q 349 443 335 419 q 369 469 364 467 q 376 471 372 471 q 383 471 381 471 q 407 463 394 471 q 419 443 419 456 q 406 403 419 431 q 374 338 393 375 q 331 258 354 300 q 288 176 307 215 q 255 102 268 136 q 242 47 242 68 q 245 31 242 38 q 260 24 249 24 q 278 28 269 24 q 293 33 288 33 q 296 29 296 33 q 290 17 296 22 q 275 7 283 11 q 258 0 267 3 q 244 -3 250 -3 q 192 19 213 -3 q 171 71 171 40 q 176 108 171 90 q 182 144 182 125 q 151 109 171 132 q 109 63 132 86 q 63 22 86 39 q 24 4 40 4 q -16 17 3 4 q -35 51 -35 29 q -11 140 -35 88 q 40 246 13 192 q 92 349 68 300 q 115 429 115 399 q 103 452 115 444 q 92 463 92 460 m 132 413 q 126 396 128 413 l 119 372 q 117 364 117 367 q 120 367 118 363 q 125 379 122 372 q 130 393 128 386 q 132 404 132 400 l 132 413 m 149 386 l 149 396 q 147 394 147 396 q 147 392 147 393 q 146 389 146 390 q 135 358 139 374 q 131 342 131 343 q 139 356 132 340 q 149 379 146 372 l 149 386 m 176 363 q 179 370 179 365 q 179 376 179 375 q 178 374 179 375 q 175 368 175 371 q 172 354 172 360 l 174 356 q 175 358 175 357 q 176 363 175 360 m 219 133 q 220 136 219 135 q 221 139 221 138 l 221 140 q 217 133 219 140 q 211 117 214 126 q 206 97 208 107 q 203 82 203 88 l 203 71 q 211 99 204 71 q 216 119 214 110 q 219 133 218 129 m 193 101 q 194 108 193 104 q 194 114 194 111 l 194 119 q 189 107 192 122 q 186 81 186 92 l 186 72 l 186 67 l 186 68 q 187 70 186 69 q 188 74 188 71 q 189 86 188 78 q 193 101 190 94 m 1 65 q 3 72 3 68 q 4 78 3 75 q 6 83 4 81 q 0 74 4 85 q -6 57 -4 63 q -6 54 -6 56 q -7 50 -7 53 q -6 47 -7 47 q 1 65 -4 47 m -18 64 q -17 76 -17 68 q -21 67 -18 78 q -24 53 -24 57 l -24 50 q -22 49 -24 49 q -18 64 -21 49 m 233 75 q 232 79 233 79 l 232 76 q 233 75 232 74 z "},"v":{"ha":340,"x_min":0,"x_max":368,"o":"m 56 461 q 71 470 57 468 q 90 472 85 472 q 161 445 138 472 q 185 372 185 418 q 168 294 185 339 q 131 202 151 249 q 93 114 110 156 q 76 46 76 72 q 78 35 76 38 q 148 100 117 61 q 205 183 179 139 q 250 273 231 226 q 285 363 269 319 q 292 390 288 371 q 303 426 297 408 q 316 458 308 444 q 332 472 324 472 q 363 456 357 472 q 368 421 368 440 q 356 353 368 394 q 324 265 344 311 q 275 170 303 218 q 216 84 247 122 q 152 22 185 46 q 89 -1 119 -1 q 28 13 57 -1 q 0 64 0 26 q 16 149 0 107 q 51 234 32 192 q 87 319 71 276 q 103 404 103 361 q 98 425 103 418 q 86 438 93 432 q 71 448 79 443 q 56 461 63 453 m 315 403 q 315 410 317 411 q 310 397 314 408 q 281 316 294 350 q 249 240 268 282 q 239 215 238 214 q 253 243 240 217 q 272 283 261 260 q 291 330 282 307 q 306 373 300 353 q 315 403 313 393 m 119 396 l 119 400 q 117 396 118 400 q 114 372 117 392 q 106 340 111 358 q 90 292 101 322 q 86 276 88 282 q 86 272 85 271 q 90 281 86 274 q 96 297 93 288 q 102 317 99 307 q 107 332 106 328 q 119 385 119 361 l 119 396 m 138 372 q 133 360 136 372 q 125 331 129 347 q 119 314 124 328 q 109 283 115 300 q 97 251 103 267 q 88 226 92 235 q 82 209 85 215 q 79 201 79 203 q 84 209 81 201 q 103 253 88 217 q 127 319 118 290 q 138 358 136 349 l 138 372 m 167 335 q 167 349 169 353 q 160 325 165 344 q 156 314 157 318 q 154 306 156 310 q 153 297 153 300 q 160 310 156 296 q 167 335 164 325 m 304 318 q 311 336 308 329 q 313 344 314 343 q 310 338 311 342 q 307 331 308 335 q 304 324 306 328 q 290 292 301 315 q 268 244 279 268 q 244 192 246 200 q 257 211 242 183 q 282 263 268 232 q 304 318 296 294 m 144 271 q 146 276 147 275 l 143 274 q 142 269 142 269 q 144 271 143 268 m 308 258 q 311 264 310 261 q 314 269 313 267 q 315 274 315 272 q 307 258 314 275 q 301 243 299 243 q 304 247 303 244 q 308 258 306 250 m 71 232 q 72 236 71 235 q 72 239 72 238 q 74 242 72 240 q 69 235 72 243 q 67 226 67 226 q 71 232 68 225 m 54 131 q 57 143 57 144 q 47 119 54 143 q 37 88 40 101 q 35 65 33 74 q 36 64 35 60 q 44 94 40 71 q 49 116 47 106 q 54 131 51 126 m 22 89 q 26 107 25 100 q 25 114 26 114 q 24 110 25 115 q 21 99 22 106 q 18 83 19 92 q 17 69 17 75 q 17 58 15 54 q 22 89 19 63 m 68 72 q 69 80 69 79 q 67 74 68 81 q 67 67 67 67 q 67 67 67 65 q 68 72 68 69 z "},"w":{"ha":563,"x_min":-15,"x_max":617,"o":"m 542 468 q 568 474 557 474 q 585 467 576 474 q 601 450 594 460 q 613 429 608 440 q 617 410 617 418 q 601 349 617 388 q 558 264 585 310 q 499 171 532 218 q 431 85 465 124 q 365 23 397 47 q 310 -1 333 -1 q 265 8 282 -1 q 240 32 249 17 q 228 67 231 47 q 225 108 225 86 q 231 150 225 128 l 229 149 q 231 157 229 154 q 214 141 225 154 q 188 113 203 128 q 151 76 171 96 q 113 40 132 57 q 76 13 94 24 q 43 3 57 3 q -3 19 10 3 q -15 68 -15 36 q 6 167 -15 115 q 51 267 28 218 q 86 344 71 307 q 101 414 101 381 q 101 427 101 424 q 99 433 100 431 q 97 453 94 446 q 124 461 100 461 q 164 440 149 461 q 179 396 179 419 q 161 318 179 358 q 119 235 143 278 q 73 139 94 188 q 51 42 51 90 q 99 80 69 53 q 160 139 129 107 q 219 201 192 171 q 261 249 247 232 l 290 319 q 297 338 293 326 q 304 365 300 350 q 313 399 308 382 q 323 430 318 415 q 333 453 328 444 q 344 463 339 463 q 381 442 365 463 q 396 401 396 422 q 380 317 396 357 q 344 236 364 276 q 309 156 325 196 q 293 75 293 117 q 293 54 293 69 q 300 36 293 39 q 339 73 315 46 q 389 138 363 100 q 442 218 415 175 q 490 302 468 261 q 524 378 511 343 q 538 435 538 414 l 538 442 q 538 453 538 449 q 540 467 538 457 l 542 468 m 340 411 q 339 419 340 419 q 336 411 336 419 q 327 372 335 401 q 313 325 319 343 q 310 311 296 283 q 328 361 319 331 q 340 411 338 392 m 118 379 q 121 396 121 390 q 115 388 119 401 q 112 372 114 382 q 107 354 110 363 l 101 335 q 104 340 101 335 q 110 351 107 344 q 115 367 113 358 q 118 379 117 375 m 557 399 q 559 412 560 408 q 556 407 558 415 q 524 322 543 365 q 522 315 519 313 q 532 332 524 317 q 547 366 539 346 q 557 399 554 386 m 353 379 q 353 392 356 394 q 347 375 351 390 q 341 355 344 367 q 333 331 338 343 q 326 310 329 319 q 321 297 322 301 q 318 288 318 289 q 324 294 319 285 q 335 319 329 304 q 345 351 340 335 q 353 379 350 368 m 133 365 q 135 381 136 376 q 131 374 133 385 q 126 360 129 369 q 119 340 122 350 q 116 331 117 335 q 114 324 115 326 q 113 317 113 319 q 116 322 113 317 q 123 336 119 328 q 129 353 126 344 q 133 365 132 361 m 567 368 q 571 385 572 383 q 564 371 571 386 q 547 335 557 356 q 531 299 538 314 q 526 283 525 283 q 533 294 528 283 q 546 318 539 304 q 558 347 553 332 q 567 368 564 361 m 156 346 q 156 350 156 349 q 157 354 157 351 q 158 358 157 357 q 156 354 157 360 q 149 331 154 349 q 150 331 149 328 q 156 346 153 338 m 374 346 q 375 358 376 358 q 369 344 374 358 q 366 329 368 338 q 361 314 364 321 q 358 301 357 301 q 366 319 361 304 q 374 346 371 335 m 583 332 q 593 357 593 354 q 589 350 590 354 q 585 343 586 347 q 582 335 585 339 q 572 311 569 311 q 575 317 572 313 q 578 324 576 319 q 583 332 581 328 m 356 293 q 356 299 356 299 l 353 296 q 356 293 350 285 m 289 204 q 299 235 297 228 q 294 231 300 242 q 288 215 292 226 q 279 192 283 204 q 271 167 275 179 q 265 150 267 156 q 262 131 260 131 q 269 150 264 132 q 278 176 272 160 q 289 204 283 192 m 254 157 q 257 169 256 164 q 260 179 258 175 q 263 189 261 185 q 258 181 261 190 q 251 161 254 172 q 246 139 249 150 q 243 124 243 128 q 244 122 244 121 q 249 134 246 124 q 254 157 251 144 m 297 156 q 298 157 297 157 q 299 158 299 157 l 299 160 q 296 158 297 160 q 295 153 294 154 q 297 156 296 153 m 243 115 l 243 117 q 242 117 243 118 q 242 114 242 117 q 243 113 243 111 l 243 115 m 17 74 q 16 90 18 94 q 11 61 14 85 l 11 56 q 13 53 11 54 q 15 56 15 50 q 15 62 15 57 q 17 74 15 67 m 1 82 q 0 79 0 82 q 1 76 0 76 q 1 78 1 75 l 1 82 m 0 57 q -1 74 0 74 q -3 64 -3 74 q -1 47 -3 54 q 0 57 1 40 z "},"x":{"ha":347,"x_min":-35,"x_max":382,"o":"m 111 451 q 133 469 122 463 q 160 475 144 475 q 187 463 176 475 q 203 431 197 450 q 213 390 210 413 q 218 349 215 368 q 220 331 219 340 q 222 314 221 321 q 262 349 247 335 q 285 373 276 363 q 297 394 293 383 q 307 419 301 404 l 333 474 l 350 475 q 381 444 382 475 q 367 381 379 410 q 336 330 354 353 q 298 290 318 307 q 261 258 278 272 q 235 237 246 246 q 225 222 225 228 q 235 113 222 168 q 289 17 249 57 q 274 1 288 4 q 254 -1 260 -1 q 215 13 231 -1 q 189 47 199 26 q 174 93 179 68 q 164 140 168 118 l 154 178 q 110 142 133 161 q 72 103 88 122 q 60 81 68 96 q 46 53 53 65 q 29 16 39 35 q 13 -3 19 -3 q -21 9 -7 -3 q -33 42 -35 21 q -19 91 -32 67 q 13 138 -7 115 q 57 180 33 160 q 104 218 81 200 q 131 240 118 229 q 151 261 143 251 l 151 303 q 144 376 150 343 q 110 446 139 408 l 111 451 m 335 425 q 335 428 338 428 q 334 428 335 429 q 333 425 333 428 q 335 425 335 424 m 160 397 q 156 413 157 406 q 154 421 154 419 q 153 419 153 424 q 156 394 153 415 q 160 363 158 383 q 165 322 163 342 q 168 291 167 303 q 169 282 169 279 q 169 299 169 285 q 166 332 168 314 q 163 368 164 350 q 160 397 161 386 m 344 408 q 347 419 347 417 q 343 413 346 421 q 339 400 340 401 q 340 399 339 397 q 344 408 342 399 m 175 397 q 171 407 172 404 q 172 403 169 410 q 175 374 172 396 q 181 322 178 353 q 183 293 181 307 q 185 281 185 288 q 186 285 186 281 q 185 305 186 289 q 183 340 185 321 q 178 376 181 358 q 175 397 176 393 m 194 147 q 188 197 190 188 q 188 190 186 206 q 188 161 188 176 q 190 133 189 146 q 194 113 192 121 q 197 107 196 106 q 196 119 196 114 q 195 132 196 125 q 194 147 194 139 m 178 146 q 175 158 178 153 q 174 160 174 163 q 174 153 174 157 q 175 147 174 150 l 178 139 l 178 146 m 188 83 q 186 92 188 86 q 184 100 185 96 q 182 111 183 104 q 178 129 179 125 q 178 126 176 133 q 179 115 178 122 q 183 100 181 107 q 186 88 185 93 q 188 83 188 83 m -1 46 q -1 49 -1 47 q 0 54 0 51 q -3 56 -1 58 q -4 46 -4 53 q -1 46 -4 42 m -18 40 q -15 51 -15 46 l -17 57 l -18 51 q -19 46 -19 49 q -19 40 -19 43 l -19 36 l -18 40 z "},"y":{"ha":394,"x_min":-354,"x_max":429,"o":"m 60 43 q 84 65 63 43 q 131 113 106 86 q 179 163 157 139 q 207 194 201 188 q 251 244 229 218 q 286 300 272 271 q 303 338 290 310 q 332 395 317 365 q 360 449 347 425 q 379 479 374 474 q 400 488 388 488 q 420 481 411 488 q 428 463 429 475 q 412 392 426 436 q 376 297 397 349 q 327 188 354 244 q 273 79 300 131 q 222 -15 246 28 q 182 -83 197 -58 q 132 -162 161 -115 q 67 -260 103 -210 q -10 -361 31 -311 q -94 -451 -51 -411 q -182 -515 -137 -490 q -268 -540 -226 -540 q -299 -534 -283 -540 q -327 -517 -315 -528 q -347 -492 -339 -507 q -353 -461 -354 -478 q -311 -326 -349 -387 q -221 -214 -274 -264 q -107 -126 -168 -164 q 8 -60 -46 -87 q 99 -13 61 -32 q 142 15 136 6 q 161 55 153 35 q 181 94 169 75 q 188 110 182 100 q 201 132 194 121 q 211 153 207 143 q 215 165 215 163 q 188 138 211 164 q 137 82 165 113 q 79 26 108 51 q 33 1 50 1 q 10 10 18 1 q -2 33 1 19 q -6 63 -6 47 q -6 89 -6 78 q 18 177 -4 128 q 67 274 40 226 q 115 363 93 322 q 138 428 136 404 q 137 444 138 436 q 136 463 136 453 q 151 476 138 476 q 197 461 179 476 q 213 418 215 446 q 186 331 210 378 q 135 235 163 283 q 85 139 108 186 q 58 51 61 92 q 58 47 58 50 q 60 43 57 43 m -267 -500 q -195 -474 -233 -500 q -118 -406 -157 -447 q -42 -313 -79 -364 q 28 -212 -4 -262 q 83 -117 60 -161 q 119 -47 107 -74 q 97 -53 114 -46 q 60 -69 79 -60 q 23 -88 40 -79 q 0 -100 6 -97 q -99 -163 -46 -125 q -197 -248 -151 -201 q -273 -347 -242 -294 q -307 -456 -304 -400 q -297 -487 -308 -475 q -267 -500 -286 -500 m 368 428 q 380 456 375 444 q 385 469 385 468 q 379 460 383 469 q 356 411 375 451 q 341 378 347 392 q 335 363 335 364 q 345 378 336 360 q 368 428 354 396 m 151 413 q 153 424 154 424 q 150 421 153 424 q 146 406 150 418 q 135 378 142 394 q 120 346 128 363 q 106 317 113 329 q 80 268 93 293 q 56 221 67 243 q 36 181 44 199 q 24 153 28 163 q 12 118 17 138 q 8 97 7 99 q 15 114 10 96 q 49 199 25 149 q 118 333 74 250 q 140 378 131 356 q 151 413 149 400 m 157 368 q 163 390 164 388 q 154 375 161 393 q 143 351 151 367 q 128 321 135 335 q 60 188 83 236 q 33 122 38 140 q 31 110 29 113 q 36 118 33 108 q 46 146 38 126 q 67 191 54 165 q 94 246 79 217 q 125 304 110 275 q 145 342 136 324 q 157 368 154 361 m 182 353 q 185 362 186 364 q 176 346 183 360 q 157 307 169 326 q 152 299 154 303 q 149 292 150 294 q 146 286 146 288 q 153 295 147 286 q 165 315 158 304 q 176 338 171 326 q 182 353 182 349 m 319 275 q 333 308 331 299 q 329 307 336 318 q 318 287 326 304 q 300 249 310 269 q 276 202 289 228 q 257 161 264 176 q 242 131 250 147 q 228 106 233 115 l 201 53 q 190 30 194 39 q 185 19 185 21 q 199 43 185 17 q 235 109 214 69 q 279 194 256 149 q 319 275 303 239 m 360 290 q 367 310 367 307 q 361 297 368 313 q 350 275 358 292 q 332 242 342 258 q 314 199 325 224 q 293 157 303 175 q 280 128 286 140 q 274 115 274 117 q 285 133 275 115 q 308 178 294 151 q 335 236 321 206 q 360 290 349 267 m 260 204 q 265 219 265 215 q 258 207 265 219 q 242 178 250 194 q 226 148 233 163 q 218 129 219 133 q 222 133 218 126 q 230 147 225 139 q 240 165 235 156 q 247 181 244 175 q 253 193 250 186 q 260 204 256 200 m 90 175 q 93 182 94 182 q 88 172 90 176 q 83 161 83 164 q 85 164 83 160 q 90 175 88 168 m 65 122 q 68 129 68 125 l 68 132 q 65 126 67 133 q 63 117 63 119 q 64 117 63 115 q 65 122 65 119 m 206 101 q 203 101 208 110 l 203 99 q 206 101 206 99 m 199 90 q 199 92 200 93 q 196 88 197 90 q 194 85 194 86 q 193 82 194 83 q 196 83 193 82 q 199 90 199 89 z "},"z":{"ha":461,"x_min":-7,"x_max":468,"o":"m 339 471 q 434 465 400 478 q 467 422 468 451 q 460 403 467 411 q 451 395 456 400 q 444 388 447 390 q 402 351 438 376 q 318 293 367 325 q 305 282 306 285 q 314 279 304 279 q 347 273 326 278 q 376 263 368 268 q 406 237 392 256 q 424 206 421 218 q 422 188 425 199 q 417 176 419 178 q 407 181 413 176 q 369 201 393 197 q 345 204 364 203 q 303 207 326 206 q 257 208 281 208 q 218 208 233 208 q 197 207 201 208 q 185 200 193 206 q 163 181 178 194 q 132 151 147 167 q 103 120 117 135 q 85 100 89 106 q 75 83 75 85 q 86 86 75 83 q 111 92 93 89 q 147 99 129 96 q 212 106 175 104 q 283 108 249 108 q 347 103 318 107 q 390 93 376 99 q 424 68 408 85 q 447 35 440 51 q 451 17 450 25 q 450 10 453 10 q 440 13 449 10 q 421 18 432 15 q 390 27 404 24 q 360 32 376 31 q 325 33 344 33 q 276 33 306 33 q 157 25 217 33 q 51 4 97 17 q 20 -3 28 -3 q 6 3 13 -3 q -2 13 0 8 q -6 28 -4 17 q -5 48 -7 39 q 13 85 -3 57 q 28 116 21 103 q 44 141 36 129 q 63 164 53 153 q 86 189 72 175 q 103 205 96 199 q 110 213 110 211 q 100 217 110 217 q 67 225 83 219 q 43 235 50 231 q 25 276 17 254 q 34 282 28 281 q 64 282 40 283 q 104 281 82 281 q 146 281 126 281 q 179 281 165 281 q 196 283 193 282 q 207 290 199 285 q 225 303 215 296 q 264 328 242 314 q 306 354 286 343 q 322 365 310 357 q 350 383 335 374 q 381 402 376 399 q 378 406 385 406 q 363 406 375 407 q 338 404 351 406 q 218 397 269 397 q 146 401 167 396 q 79 451 92 415 q 78 474 74 471 q 94 465 82 474 q 123 453 108 457 q 159 450 138 450 q 212 453 181 450 q 290 464 243 457 q 314 468 300 467 q 339 471 328 469 z "},"D":{"ha":565,"x_min":29,"x_max":625,"o":"m 261 638 q 269 640 264 639 q 278 642 274 642 q 315 624 297 642 l 326 611 l 356 618 q 412 628 385 626 q 460 631 439 631 q 543 613 511 631 q 594 569 575 594 q 619 517 613 544 q 624 472 625 490 q 585 295 619 381 q 498 144 551 210 q 376 39 444 78 q 233 0 308 0 q 192 6 206 0 q 163 25 178 13 q 151 38 156 32 q 147 46 147 43 q 183 53 147 53 q 313 92 247 53 q 431 194 378 131 q 518 336 483 257 q 557 496 553 415 q 549 533 558 518 q 526 556 540 547 q 492 569 511 565 q 456 572 474 572 q 358 554 411 572 q 331 544 336 547 q 324 525 326 540 q 315 494 321 511 q 299 454 310 478 q 273 397 289 431 q 235 318 257 364 q 201 248 219 290 q 165 164 182 206 l 160 151 q 138 86 144 108 q 128 44 131 64 q 123 15 125 24 q 115 4 121 7 q 96 0 107 0 q 50 14 71 0 q 42 23 43 18 q 39 49 40 28 q 61 149 44 100 q 99 246 78 197 q 147 344 121 294 q 199 451 174 394 q 203 464 201 456 q 206 474 206 472 q 188 464 201 474 q 158 440 174 454 q 126 410 142 425 q 103 382 111 394 q 83 351 90 363 q 74 335 76 340 q 70 329 71 331 q 69 328 69 328 q 52 337 64 328 q 29 361 40 346 q 49 423 31 393 q 96 478 68 453 q 156 526 124 504 q 218 565 189 549 q 233 574 226 569 q 240 579 239 578 q 246 601 243 582 q 251 627 249 619 q 261 638 254 635 m 265 494 q 268 501 265 496 q 271 511 271 507 q 269 514 271 514 q 265 510 267 514 q 260 497 264 507 q 251 474 256 486 q 242 453 246 463 q 239 443 239 443 q 242 449 239 443 q 250 463 246 454 q 258 480 254 471 q 265 494 263 489 m 300 492 q 303 500 301 494 q 304 507 304 506 q 303 506 303 507 q 301 503 301 504 q 300 501 301 503 q 290 474 296 490 q 285 457 283 458 q 292 469 286 457 q 300 492 297 481 m 235 482 q 236 487 236 483 q 236 493 236 490 q 231 485 232 493 q 229 475 229 476 q 235 482 229 475 m 64 410 q 75 432 75 428 q 68 424 74 433 q 56 404 63 414 q 49 390 47 390 q 64 410 49 390 m 94 428 q 85 421 94 428 q 72 400 79 414 q 65 386 64 386 q 77 401 67 386 q 96 428 88 417 l 94 428 m 506 268 q 506 270 506 269 q 507 272 507 271 l 507 274 q 502 268 506 274 q 493 256 499 263 q 460 210 479 236 q 425 169 440 185 q 404 144 401 144 q 421 157 406 144 q 472 213 449 182 q 506 268 494 244 m 496 210 q 499 218 496 213 q 500 224 500 221 q 494 215 497 221 q 488 206 492 211 q 482 197 485 201 q 462 174 472 188 q 440 151 451 161 q 426 135 432 142 q 421 126 419 128 q 429 133 424 129 q 437 140 432 136 q 447 150 442 144 q 477 181 465 167 q 496 210 489 194 m 508 175 q 511 183 513 183 q 490 161 500 172 q 474 142 482 151 q 463 129 467 133 l 458 122 l 464 126 q 475 135 468 129 q 488 149 482 142 q 500 164 494 157 q 508 175 506 171 m 86 68 q 87 78 86 74 q 88 86 88 83 l 88 93 q 86 89 88 92 q 82 78 85 86 q 80 65 81 71 q 79 54 79 60 q 78 48 78 51 q 79 42 79 44 q 81 39 79 40 q 82 38 81 38 q 86 68 85 38 z "},"":{"ha":1157,"x_min":0,"x_max":0,"o":""},"!":{"ha":403,"x_min":139,"x_max":389,"o":"m 178 190 q 186 226 178 197 q 208 296 194 256 q 236 383 221 336 q 266 474 251 431 q 292 550 281 517 q 307 596 303 583 q 322 624 314 613 q 350 636 331 636 q 375 631 361 636 q 389 611 389 626 q 381 564 389 597 q 361 488 374 531 q 333 396 349 444 q 303 303 318 347 q 276 225 289 260 q 257 175 264 190 q 231 157 250 157 q 198 166 218 157 q 178 190 178 175 m 139 44 q 154 84 139 67 q 193 101 169 101 q 224 90 207 101 q 240 63 240 78 q 223 21 240 40 q 182 1 206 1 q 151 14 164 1 q 139 44 139 26 m 353 610 q 356 628 358 625 q 342 592 354 628 q 312 502 329 556 q 276 388 294 449 q 243 282 257 328 q 234 254 238 267 q 229 239 231 242 q 228 231 228 236 q 235 249 228 226 q 254 303 243 271 q 266 342 260 322 q 276 371 272 361 q 285 400 279 382 q 296 433 292 418 q 312 485 303 457 q 329 538 321 513 q 344 583 338 564 q 353 610 350 603 m 335 617 q 338 626 339 626 q 324 599 335 626 q 298 526 314 572 q 263 422 282 481 q 226 299 244 363 q 219 274 224 288 q 213 253 215 260 q 208 238 210 242 q 207 232 207 233 q 212 242 208 231 q 226 286 215 254 q 241 331 232 301 q 258 385 250 360 q 276 439 267 410 q 290 483 285 468 q 303 523 296 501 q 317 564 310 544 q 328 598 324 583 q 335 617 333 613 m 363 539 q 356 528 364 557 q 344 494 351 515 q 330 447 338 472 q 314 397 322 422 q 299 349 306 371 q 268 242 265 244 q 272 250 269 240 q 285 297 274 260 q 292 318 288 304 q 301 344 297 332 q 317 393 307 363 q 336 454 326 424 q 353 509 346 485 q 363 539 361 533 m 221 204 q 225 219 226 222 q 217 197 224 217 q 210 175 210 178 q 213 172 210 172 q 217 185 217 172 q 218 193 217 188 q 221 204 219 199 m 200 207 q 201 216 203 217 q 197 206 200 215 q 193 187 194 194 q 194 179 192 179 q 197 189 197 179 q 199 199 197 193 q 200 207 200 204 m 201 56 q 201 60 206 60 l 200 60 l 200 57 q 201 54 200 54 q 201 56 201 54 z "},"$":{"ha":488,"x_min":14,"x_max":474,"o":"m 364 636 q 379 667 368 643 q 402 715 390 690 q 424 761 414 740 q 435 783 433 782 q 443 786 440 786 q 463 781 451 786 q 474 764 474 775 q 468 747 474 758 q 464 736 465 742 q 460 724 463 731 q 443 683 453 703 q 425 644 433 664 q 421 633 425 642 q 417 621 417 624 q 431 596 417 618 q 446 542 446 574 q 445 522 446 532 q 442 504 444 513 q 436 482 439 494 q 428 458 433 469 q 417 438 424 447 q 399 426 410 429 q 382 425 393 425 q 373 425 379 425 q 364 428 367 425 l 364 429 q 369 451 364 436 q 378 472 375 467 q 390 533 390 501 q 390 544 390 536 q 388 554 390 553 q 382 547 385 554 q 378 538 379 539 q 357 492 367 514 q 338 447 347 471 q 326 424 335 442 q 310 386 318 406 q 294 350 301 367 q 288 332 288 333 q 297 315 293 321 q 322 265 313 292 q 331 208 331 238 q 315 138 331 175 q 274 69 300 100 q 216 17 249 38 q 149 -4 183 -4 q 140 -4 146 -4 q 132 -7 135 -4 q 126 -17 131 -8 q 121 -28 121 -25 q 101 -73 110 -50 q 81 -118 92 -96 q 72 -125 78 -122 q 63 -128 67 -128 q 48 -123 60 -128 q 36 -115 36 -118 q 44 -95 36 -111 q 60 -60 51 -79 q 78 -23 69 -40 q 86 1 86 -6 q 72 10 78 7 q 26 56 36 29 q 14 122 17 83 q 36 140 26 133 q 65 146 46 146 q 71 144 69 146 q 77 128 72 143 q 87 97 82 114 q 97 67 92 81 q 107 54 103 54 q 115 68 110 58 q 124 88 119 78 q 133 109 129 99 q 139 125 136 119 q 176 209 158 167 q 213 293 193 251 q 221 311 215 299 q 226 331 226 324 q 222 344 226 333 q 210 369 217 356 q 199 399 204 383 q 194 428 194 415 q 203 478 194 451 q 225 528 211 504 q 257 574 239 553 q 294 608 275 594 q 322 623 306 615 q 351 633 339 631 q 358 635 354 635 q 364 636 361 635 m 379 640 q 411 714 399 678 q 379 640 392 676 m 258 521 q 267 531 263 525 q 272 537 269 533 q 276 542 275 540 q 306 572 288 557 q 312 578 307 574 q 317 585 317 582 l 315 585 q 308 581 314 585 q 301 574 303 576 q 276 549 290 565 q 258 521 263 533 m 228 504 q 235 514 229 504 q 242 526 240 524 q 260 552 250 540 q 281 578 271 564 q 274 573 279 578 q 265 562 269 568 q 255 549 260 556 q 249 542 250 543 q 228 504 236 525 m 346 536 q 361 569 357 551 q 357 563 360 569 q 353 554 354 556 q 349 546 350 550 q 346 536 349 542 m 292 444 q 295 449 293 443 q 299 457 297 456 q 309 479 303 465 q 322 508 315 493 q 335 536 329 522 q 343 558 340 550 q 334 542 342 557 q 318 506 326 526 q 301 468 310 486 q 292 444 293 450 m 256 397 q 258 399 258 399 q 261 401 258 400 q 270 422 261 401 q 290 465 279 442 q 310 509 300 489 q 319 531 319 529 q 321 537 321 533 q 322 543 321 540 l 321 543 q 312 535 318 543 q 299 519 306 528 q 288 501 293 510 q 281 489 282 492 q 263 444 268 463 q 256 397 258 425 m 400 518 q 401 523 401 519 q 401 528 401 526 l 401 538 q 399 533 399 538 l 399 529 q 400 518 399 522 m 338 518 q 342 526 340 521 q 346 533 344 531 q 341 527 344 533 q 338 518 338 521 m 276 383 q 289 406 279 386 q 309 448 299 425 q 328 491 319 471 q 338 515 336 511 q 336 514 336 515 q 335 513 336 513 q 319 479 326 496 q 304 446 311 463 q 290 415 297 431 q 276 383 283 399 m 279 417 q 282 419 282 417 q 282 424 282 422 q 279 417 279 421 m 268 394 q 271 397 269 394 q 272 401 272 400 l 271 401 q 269 399 269 401 q 268 396 269 397 l 268 394 m 154 33 q 163 35 157 33 q 172 39 169 38 q 212 73 196 50 q 237 123 228 96 q 250 179 246 150 q 254 233 254 208 q 253 242 254 239 q 251 250 253 246 q 231 210 247 243 q 198 139 215 176 q 167 70 181 101 q 153 35 153 39 q 154 33 153 33 m 256 171 q 259 177 257 171 q 263 190 261 183 q 265 204 264 197 q 265 214 265 211 l 265 226 q 259 200 263 217 q 256 172 256 183 l 256 171 m 274 160 q 279 171 276 160 q 282 185 282 182 l 282 196 q 276 180 279 193 q 274 163 274 167 l 274 160 m 310 164 q 312 167 311 164 q 313 172 313 171 q 310 169 311 172 q 310 165 310 167 l 310 164 m 58 92 q 58 94 58 93 q 57 96 57 94 q 56 93 56 96 l 56 92 q 57 89 56 89 q 58 92 58 89 z "},"":{"ha":593,"x_min":14,"x_max":579,"o":"m 194 332 q 234 408 214 371 q 281 478 254 444 q 339 544 304 507 q 406 603 374 582 q 419 612 410 606 q 438 624 428 618 q 458 635 449 631 q 472 639 467 639 q 519 628 499 639 q 552 601 539 618 q 572 560 565 583 q 579 514 579 538 q 572 457 579 486 q 549 404 564 428 q 523 376 540 393 q 493 353 506 360 q 468 346 479 346 q 455 348 464 346 q 444 356 446 350 q 449 361 447 358 q 453 367 450 364 q 499 444 483 399 q 514 533 514 490 q 511 560 514 547 q 490 574 508 574 q 478 571 481 574 q 449 547 469 567 q 407 503 429 526 q 365 456 385 479 q 339 425 344 433 q 326 407 336 421 q 306 376 317 393 q 287 346 296 360 q 278 329 278 332 q 320 328 297 328 q 366 327 343 329 q 410 319 389 325 q 446 301 431 314 q 450 298 447 300 q 453 293 453 296 l 451 290 q 453 289 451 289 q 461 285 458 289 q 464 276 464 281 q 454 263 464 267 q 460 263 457 263 q 467 261 464 264 q 460 253 467 257 q 447 248 454 250 q 432 245 439 246 q 421 244 425 244 q 338 249 379 244 q 254 253 296 253 l 246 253 q 239 236 243 250 q 235 219 235 222 l 235 218 l 236 218 q 255 217 246 218 q 275 217 264 217 q 341 216 307 217 q 407 214 375 215 q 424 202 411 211 q 438 189 438 193 q 444 183 438 186 q 450 168 450 179 q 444 162 450 164 q 439 157 439 160 q 445 158 442 157 q 451 160 449 160 l 453 158 q 436 140 453 143 q 410 138 419 138 q 328 140 369 138 q 246 147 286 143 q 235 149 240 149 q 226 149 231 149 q 219 144 219 149 q 219 135 219 139 q 223 110 219 125 q 233 82 226 96 q 249 57 240 68 q 269 43 258 46 q 278 40 274 40 q 288 40 283 40 q 353 53 321 40 q 410 83 385 67 q 455 113 436 100 q 482 126 474 126 l 485 126 q 490 115 490 121 q 483 95 490 106 q 469 78 476 85 q 433 49 457 63 q 381 24 408 35 q 328 6 354 13 q 282 -1 301 -1 q 223 12 246 -1 q 186 47 200 25 q 165 97 172 68 q 153 156 157 125 q 124 157 146 157 q 80 158 103 157 q 40 164 57 160 q 22 179 22 168 l 25 183 q 23 186 25 186 q 21 189 21 186 q 17 196 21 199 q 14 200 14 193 q 15 204 14 203 q 28 210 18 207 q 51 215 39 213 q 75 219 64 217 q 90 221 86 221 q 124 222 107 222 q 160 222 142 222 q 164 240 163 231 q 167 257 165 249 q 142 258 160 257 q 106 262 125 258 q 72 272 86 265 q 57 290 57 278 q 55 294 57 293 q 53 300 53 296 q 50 307 53 307 q 47 310 47 307 q 51 315 47 311 q 74 321 54 318 q 119 326 94 324 q 165 329 143 328 q 194 332 188 331 m 232 331 q 240 343 233 331 q 249 358 247 356 q 294 432 269 396 q 347 500 318 468 q 358 513 353 507 q 367 525 363 518 q 324 478 344 503 q 285 429 303 454 q 273 410 282 425 q 255 380 264 396 q 238 350 246 364 q 231 333 231 336 q 232 331 231 331 m 526 492 q 519 468 524 481 q 515 444 515 456 l 517 444 q 522 460 518 444 q 526 478 526 475 l 526 492 m 557 456 q 558 465 558 458 l 558 469 q 557 460 557 467 l 557 456 m 213 333 q 218 344 215 339 q 224 354 221 349 q 247 396 235 375 q 272 436 258 417 q 279 447 274 438 q 285 457 285 456 q 270 438 282 456 q 246 399 258 421 q 223 358 233 378 q 213 335 213 339 l 213 333 m 176 224 q 183 254 183 240 q 178 240 181 251 q 176 224 176 228 z "},"":{"ha":724,"x_min":14,"x_max":710,"o":"m 299 360 q 349 436 317 388 q 419 533 381 485 q 500 615 458 581 q 579 650 542 650 q 617 647 594 650 q 660 635 639 643 q 695 613 681 626 q 710 581 710 600 q 702 535 710 557 q 680 497 694 514 q 645 469 665 479 q 601 458 625 458 q 589 461 599 458 q 579 471 579 464 q 582 484 579 478 q 588 497 585 490 q 606 540 600 521 q 619 585 613 560 q 617 588 619 585 q 614 589 615 588 q 565 558 596 589 q 503 488 535 528 q 445 408 472 447 q 407 351 418 368 l 431 351 q 483 357 457 351 q 533 363 510 363 q 549 347 544 363 q 554 324 554 332 q 543 300 554 308 q 517 288 532 292 q 485 285 501 285 q 457 285 468 285 q 413 286 435 285 q 367 288 390 288 q 319 239 342 267 q 274 181 296 211 q 228 122 251 151 q 181 68 206 93 q 317 56 243 57 q 454 56 390 56 q 503 56 481 56 q 544 61 525 57 q 583 74 564 65 q 624 99 603 82 q 637 87 631 94 q 643 72 643 79 q 619 24 643 42 q 561 -1 594 7 q 493 -11 528 -10 q 438 -12 458 -12 q 309 -6 372 -12 q 181 0 246 0 q 138 -1 160 0 q 95 -3 117 -3 q 53 1 74 -3 q 17 18 33 6 l 14 31 q 149 144 90 76 q 250 289 207 211 q 169 276 204 288 q 92 258 133 265 q 74 276 79 264 q 69 301 69 289 q 92 334 69 322 q 145 351 115 346 q 205 358 175 357 q 249 358 235 358 q 269 359 260 358 q 289 357 279 360 l 299 360 m 331 354 q 336 360 332 354 q 344 372 340 365 q 353 384 349 378 q 358 392 357 390 q 419 478 388 435 q 485 561 450 522 q 499 577 488 565 q 511 593 511 589 q 462 544 488 574 q 413 481 436 514 q 367 415 389 447 q 331 356 346 382 l 331 354 m 354 351 q 370 369 360 354 q 383 389 381 383 l 456 489 q 497 540 475 517 q 540 588 518 564 q 495 546 522 576 q 440 478 468 515 q 389 406 413 442 q 354 351 365 371 m 635 544 q 640 556 638 544 q 642 569 642 567 q 640 574 642 574 q 635 562 638 574 q 633 547 633 550 l 633 546 q 635 544 633 544 m 647 521 q 656 536 650 521 q 661 558 661 551 l 661 561 q 660 564 661 561 l 660 565 q 658 563 658 565 l 658 561 q 656 553 657 560 q 652 541 654 547 q 649 528 650 535 q 647 521 647 522 m 399 353 q 409 367 399 353 q 431 397 419 381 q 454 429 443 414 q 468 447 465 444 q 510 504 488 478 q 556 558 532 531 q 540 544 553 558 q 510 507 528 529 q 472 459 492 485 q 436 410 453 433 q 408 371 419 388 q 397 351 397 354 l 399 353 m 688 529 q 692 537 690 529 q 693 547 693 544 q 692 550 693 550 q 689 542 690 550 q 688 531 688 533 l 688 529 m 504 336 q 512 338 508 339 q 521 340 515 338 q 524 344 524 343 q 512 341 522 344 q 501 336 501 338 l 504 336 m 190 340 q 192 342 190 340 l 189 342 l 188 342 l 185 342 q 189 340 185 340 l 190 340 m 131 326 q 146 330 133 326 q 161 335 158 333 q 170 336 164 335 q 176 339 176 338 l 175 339 q 165 338 172 339 q 151 335 158 336 q 137 331 143 333 q 131 326 131 328 m 129 306 q 165 315 146 311 q 200 325 185 319 l 196 325 q 181 323 192 325 q 158 318 169 321 q 136 312 146 315 q 126 306 126 308 l 129 306 m 508 322 q 513 322 510 322 q 517 324 515 322 q 519 325 518 324 l 518 325 q 511 324 515 325 q 504 322 507 324 l 508 322 m 181 294 q 182 296 181 294 l 179 296 l 176 296 l 175 296 q 176 294 175 294 l 179 294 l 181 294 m 169 292 q 171 293 169 292 l 168 293 l 167 293 q 169 292 167 292 m 160 289 q 163 290 163 289 l 161 292 l 160 292 l 157 290 l 160 289 m 146 285 q 150 285 147 285 q 153 289 153 286 q 148 288 151 289 q 144 285 144 286 l 146 285 m 264 253 q 267 258 264 253 q 275 269 271 263 q 283 281 279 275 q 286 289 286 288 q 281 284 285 289 q 274 273 278 279 q 266 260 269 267 q 263 253 263 254 l 264 253 m 285 247 q 292 256 286 247 q 299 267 297 265 q 307 277 301 269 q 313 288 313 285 q 311 289 313 289 q 306 283 310 289 q 297 269 301 276 q 288 256 292 263 q 285 247 285 249 m 339 265 q 346 274 340 265 q 353 285 351 282 q 345 276 350 285 q 339 265 340 268 z "}}}
